<mxfile>
    <diagram id="pHxpYtWOElrGvQ4DOVb2" name="Page-1">
        <mxGraphModel dx="1792" dy="438" grid="1" gridSize="10" guides="1" tooltips="1" connect="1" arrows="1" fold="1" page="1" pageScale="1" pageWidth="827" pageHeight="1169" math="0" shadow="0">
            <root>
                <mxCell id="0"/>
                <mxCell id="1" parent="0"/>
                <mxCell id="2" value="" style="shape=image;verticalLabelPosition=bottom;labelBackgroundColor=#ffffff;verticalAlign=top;aspect=fixed;imageAspect=0;image=data:image/png,iVBORw0KGgoAAAANSUhEUgAAAcMAAAFVCAYAAACTuYSAAAAgAElEQVR4Aey9d3BUyZfv+dv3x/tjNzZeTOzEzsa+N2923uzsm/fG/GZG3iCLDN6bxruGhqaBxjSmaRpoaAe0AZqm5b3BCQFCEkhCWAkkQEhC3ntXUqlU3n02bpVKKkklJEB0082tiIy6dW/eezO/mZXfPCfPOfknxI+IgIiAiICIgIjAO47AnxobGykoKKC2thbhWEwiBmIfEPuA2AfEPvCu9YE//cM//AN/8Rd/wd/93d/xP/7H/xCTiIHYB8Q+IPYBsQ+8U33gL//yL/lTT08P//RP/8Tdu3eRSqViEjEQ+4DYB8Q+IPaBd6oPXL16lT8ZDAb+/Oc/8/Tp03dcYyxWX0RAREBEQETgXUQgKytLJMN3seHFOosIiAiICIgIDCIgkuEgFuKRiICIgIiAiMA7ioBIhu9ow4vVFhEQERAREBEYREAkw0EsxCMRAREBEQERgXcUAZEM39GGF6stIiAiICIgIjCIgEiGg1iIRyICIgIiAiIC7ygCIhm+ow0vVltEQERAREBEYBABkQwHsRCPRAREBEQERATeUQREMnxHG16stoiAiICIgIjAIAIiGQ5iIR6JCIgIiAiICLyjCIhk+I42vFhtEQERAREBEYFBBEQyHMRCPBIREBEQERAReEcREMnwHW14sdoiAiICIgIiAoMIiGQ4iIV4JCIgIiAiICLwjiIgkuE72vBitUUERAREBEQEBhEQyXAQC/FIREBEQERAROAdRUAkw3e04cVqiwiICIgIiAgMIiCS4SAW4pGIgIiAiICIwDuKgEiG72jDi9UWERAREBEQERhEQCTDQSzEIxEBEQERARGBdxQBkQzf0YYXqy0iICIgIiAiMIiASIaDWIhHIgIiAiICIgLvKAIiGb6jDS9WW0RAREBEQERgEAGRDAexEI9EBEQERAREBN5RBEQyfEcbXqy2iICIgIiAiMAgAiIZDmIhHokIiAiICIgIvKMIiGT4jja8WG0RAREBEQERgUEERDIcxEI8EhEQERAREBF4RxEQyXBcDW9A3tlLfV03DR1qNDrjuO6a8EwaHSqdEcOQ1+tRqfQYhp6c8FeLDxQREBEQEfgjIyCS4Xha16Di9o8pLJ0dy7of66iT6DBioKuymQe3a8jMfLmUldNJW58O/RBSEwqioz67iIhzVRQ0qVEPyWCg4dpdPtqYyqehddT16DAA+s46Tn58jY07HpBcLKdPO+Kh46ihgc5n1aRmN1PVpUX7RyBWgxZJlxqN1sCrIDIO0MQsIgIiAn8gBEQyHE9jGpTcOHKBKZOCWXm6iYYeYYDV8fDnFJbMjMLX9+WS/4oHZNUoUQ8ZpY3ICgvZtzwOX+9IAhdd57sr7bTL9ebBXNFGxLZzTPa8wJdpXXSojKYylCdmsNg/gvmfl1LcqkVvHPLQ8dQODEpuHb/CgunRTF2SxbmCPvp+K+l3fCUeI5cRSd4Tdn+QypeJzTTL9KaJwxg3/T4uqzu49vN9vjiQxdGoehp6tH+cuv0+WkAs5R8UAZEMx9OwA2QYwuozzTT2mGQynsXdYvuGJFYsT2K5kBbG4uUSjIt3PAvfu8SS2VG4OQUzKTCRxUsumfMsT2LVrifkNKpGkKGht5s7MbdZNyMcF6dwln5dSWWXMNjpqb92mxVTw3GdepVDP+QTEf2MmMgcti+MZpJ7AhsP5xIU8YzomGfEmFIhF+9K6Fb0k+kL6mmQ1HF8dRweDkFM/eQ5Rc2alyZVbUUp3+y8xuoVl1jxMmnVbS6WyenTv6CAL3lJ11rHyc2J+LiE4OaTyCcxLSZCHHWaYDCgVeuQ96nolshpb5XR2NBDTZWE8tIOigtbefK4mYc5Ddy7W8etrBpupFeQdL6SJy1qVEJ3sP6o+mhqU6N+JSnd+kE2juW1nFiVwGTXMNb9bJmY2cj3SqeMqDol5GeUEPnTA458lsknO9LZsSuDA0fu81NECZlPpfSoDCIBvxK+4k1vMwIiGY6ndWySoRGNXEV3l4LOTnNqzclj46wopn5cQG6plMoLWSwICGfpsWoKqvsG8nV2a1DrjIwQ4gwG1AoVLU9L+P7YU7LL+1DojGjqK/lqbRwejkHYOYbiPikcT88IPD3DcBHO2Qfj6h6Oh+mccN6c5h0qp7JjLMnBQNuNOyaidXBO5PD1TjqUgtT5ch9twRM+nBuFi0MwDi+TXJL55Ukv0gkiQ0NvO4mfX2aaRzD29hEs/6KIu9Uq01qr0aAiNzyLbeuTWPreBRYuSGTO7HhmTo9j+rQ4pk2NZerUWKZMiSEwMIaAgBgC/KPx94/Gzy+KyZOjmGzSAkTi4xOJt1cUC3YXkt+sZoD39ErywjJYvewqByIbqO2xpQ5/OWyH5JbX8M2SWDzsglnzcwuN0uFMPCT3OH8YkdU2cP77m6yZH0eAbwSek8Jwcw3F2TkEZ+dQXF3DmOQZga9fLIs33Sb8lgSJUlRBjxNgMdvvAAGRDMfTSDbJEFA0EbY3hVWLz7No0XkWzY3GwzkYJ89Y5sw7x/xpEbg4BeHmF8/cBf15lqRwOrsHiWo43Wipf9LA02oFcqUWmUxrMtTRS9uI3X+JKe7BOE5P48y5cjKy68jOruNWwm1WTonAb+094pOrTOeE85aUU9KHXD3GgKWVkLjnPP6uQThMvsSeb3L5JeQxoaFPhqV8vvssjd2nqyjp0DJci6qrqyHk2G327clgz8ukT/O4WatEMRFjuqqH9O9SmOsbioNdCDN3FHC/SoHSMvEw6rj/w2VmeofgYB+EvX0QdnbjTw4OIbi4h+HqFIR9/30uM68TdFuK1KTzNtCWncvGuZE4OwTj6hnLys8LedikRjMR9RP66kSToU5BYfIDti2Jw3dSCI72wXhOv8CKBbFMXZzC/q9z+P74XT7bcZX3pobj7BCEg1MoHv7n2RlUR03/2vV4/kZiHhGBtxkBkQxHaR19ZwNRX2exa1saW7deZ9n0cJMU5j0nmQ0fprL14zsk3C3i00WxeHnGsnDpJVYvicfbNQQX3wSWLE9i5bxo3JyD8Zh6nqUrLvPejAjcXOP57EoX7UprMjTS+6yQfSsTmDr9IttPVVLaqUUtaePcF1eY6RWCg10QjvNuc+VJF80dcjo65LQ9zOfD2VFM+biAhyVS0znhfEeHgq4eNSqNAeMI8dO6wgY67+SyflYETsLg7hCCmyBhethO7i4huEyKZe035TwfRohGnY6+XhU9PS+bNKh0hmEWstZlHOexspsb319ngV8oDvbB+K/PJb1EbpKsByEwUH+nkLMnH3DiuxxOns7jl+AnREQ+Iy6hmAuXyrh6vZIbGbXcvttAbl4LTwvbKSmXUFPfS1OzjKrbeWyZG4mLQKQeF/nyciuNUn2/WtmItr2Z+EOXmTopxESYjq6RzN6US1qpwlSWcdZm9GwTSYaaXu78cpNlwqTNIRiPWSl8FVNLUZ2UWz8mM9MvHN/ZVzh6romqJjkdLV08uPCArfMjcXUMxtkzge3hjTT2jq2KH71C4hURgbcDAZEMR2kHfVMpny2JxdOkJgrB0cEsQdg7BOPkFIKz2zm+Sn7CrnmxeC25x42Cbpqs1KQPS6VUWalJn1X3cu/UFWb4JrB/BBnqqM3IZcu8SNOg5OwRz95zrdwJucmSwDBcAmLwdw3BySkMX/8YpvSr86b6R5gGJQfXCPwDYkwqPkHNJ6R5nz2nvE3zwrUdQ28r4dvPM9lFIMJgnF1CcHUdLQXj2C9JuUy7QcxTGbLh4uEoWL7p0wZpJ1ePpTB/cqhJsvFf94BrhTJk2uGqaCM6tZY+mRqZTE1fnwa5XINCoUWh1KJU6VCpdSjkGmQyDXKlDq3OgN4gPMeIpqWeMx+fx881GDvnOLaG1FMlEdSggxMbo0GPoruHnNhsVk0JN00y7J3CCFx5m/NPZK9o7WuF4ESRoV7Bo9CbLJsSjqNDGLM+ziO9UIpErkdvUJH5zUWmegRh75XMj1kSutUCBga0SjXtxaUcWR2Dh1MwLn7JnMzuMV23KqV4KCLwu0NAJMNRmswo7yE/s5IrSaUkXSrg0KoYPJ2DmL39IWFxJSQlV/OkopSDi2PxXvGQ3DolqpICts6NZvruEsraNEjSb7N4SoTJArW+R0thaAqz/WyRodE8yJRW8uPmRGZvyCWjQoG0vpJvtmfw85XH7Jkfg6d3Amu3pPOJRQ350UUCPUJxn5bE5m032G05vyeDz8PqaOx+wXqhQc2zyBss9hckqXBWHqsgv1xKS4vMZmrMzeej2ZE42wWx4Eglpe1DSWAUGMc+rVPTXCOlSyFIV2NnH55D1VhP6L4kZgjSs30IUzbmklpkiwiH3znKb72cG8dTWD43jjlbHvOoUWVaD9S21BO86wKB7sHYO0az7odKnrdq0AlEOfxRRiNahZKqrEdsE6QohyDsvZP4NrWTLuXY+lKDtJvSGqVtFfeEkKGB1qwcszrXPpRZuwq4W2GlTtZJiN+ZiJ9LEI7vPeB2lQKNlbuNoAVoF/rDrEic7UPw/+gp+U3qEarz4bCIv0UE3mYERDIcrXX6LQxVgrQgbeDkuji8HINZeaqRqjYNwnltbzVfCdJj4GV2H77HiQNXmeUdiue86xw4ep+vP77A5EmhBKzO4PDXD/hsXTze7vE2JENzIYx6HbLmLirqlchlSnpkaro6lPT11nJ8eRw+829z7Vk37d1mVWRn3mM2m9Skz8irkNFtpaKU9ulsD9SmVxnozMnn4wWCwUsQnisfcKNMgUpvY2Dvz9+RfoelU8Kxd4jhkwsdtMnNefUdVZzYnMS8GXFMFwxRXjZNiyUwIJYFG+8Qe78HqWqMNc6B9tLS+OAZh95PYLJbsEkl6b3uITef9yG3rBEO5H2JA72M5M/OEeAWhMfmAoqaVfRVV3Fy23kCTEQYycpvykx+oII/5ggiHHiVEb1aQ8vjYg5vus5XiY3UClKkFakMZB1yoKcmKZu1y5LZ+0sN5ZJh67MDZBjEggPPya1Vo3nJWYRB2sRZwdrWOQi3RXe4WiQbipmigR9WxeHpEIT/J88pETQMwypq0PSReewyUwVDJbckfrjbQ7dmWKYh9RJ/iAi83QiIZDiO9tEUF7BlbhTOdsEs+76Buu7+NZK+Gr4WLPscQ3B1C8PdVTBACMK+/7ebi2DRaDY4cHMLw9VZkCriRiVDU1EMBvTKHjJPpvPBJ49MEqJSWc93K+Lw8oxn5QfX2bY9ne3b09m24Tz+7iG4TrnA+g9T+bj/vHBtb1At9RKtzcFaUVnOV+/H4+UUhKPfNc5kS5AIhjajjWUGBZnfJJkGPjuv60QUyOjtH4D1rWV8tigat5cwRLFltGLvFM6Cg6WUdmgZy7BU3yvhVmgWa2ZH4e40aAAz8/NyKgTr2dHqMY62xooMPbc85VZyPp+vS8DX1SwRrj1uJkJBUhrPawxaLVKJkl6loH4c+w59Vz0nN8Tj5RyM26wsLpXIkVsDYkWGTm6R+E07x9rttzlzrpbilvEQo4HWtDssnxqGg2M8+y600SIf2va6mmJ2z4/G1U5wJRrNfcNI7/1c1k2PwNEulDVnmmjssS7oeMAW84gIvD0IiGQ4ZltoeBx8ndk+ISbLQ2efc2z5oZyidg1avZq22i7KSjooGW8qldDcoxs1yotB1sW1764z3y8MJ8+LfJ3aRZe0zkSGns7h+AXEMk1wAxBSQARujsE4ukcSMMXq/LQ4Fhwoobx95Jqhqr6Gk1vOmda97F0T2B3TRL1Uj2FUJgR9WyVHlsUySZAiP3jCYyuVmODKkBL+iO+P3ePbb18+HdqUiI97MHYO8XyW3EGb4gWSoUFD3f1Cjm46z1RvYX0wCOfJcQR6huBkH8Tsw5VUdQrRgV7jY0WGkxZeZvn0aJN63N41js2nK02E82KJ8DXebVCRF5zGfN9Q7O3DWPptFeWduqHkbkWGlkmFo3Mok7yiCJhxgQ8+zSU+q8MUrMEm9+r7SP3iIlPcg3BefI+MSgXqYRll2fdZMU3QAiRwOFVC5wjLZ3Md9R0VHFocg7tdEFP2llLdrn2Nyou3igj8tgiIZDgG/vrWKr5aJUh/FgkkGGf3KBbvKSCnQYWivpEr554RNsIVYbhrgvD7KVfyZEiF6DEjRmwjivo6wvZfZoZ3KA5O0aw/WUVpuxa9yiwZ+sy7RVJeJw2tfbS19dF03+zXGLj1KfeLe2htM58XrrV3C2Q9VHrRSxoJ2nGRAEGt6BjN+lPm5wvrXqN/9FQk3mSRnzBAR7IlSnBgHyQswWBEaTI4MRulCIYp409y7v6YzHSvYOy8rxMlGL3YVPnp6XxeRdihayyaGmkKZGBvF8KUdXdJvFvOMUH97DSBZLjfrCb1/iif5JBbrF96lSPxDVR1al+geh4dwfFdMdB5P49t86NMlqrOc7NIKupDPqwNB10rgpi79S5HD9xg7ZwoXE39MxgnlzA8fWOYs+oG30RV87xNO9StQ9nIybVxeDkEMedwJZUdw8gWPcVh15njG4K9bxrxxTL6RukfRlUDP/arUyd99IzKFvX4qirmEhF4CxEQyfBFjWJQ8eiXVOb6mM3khZl4wLxE/NxDcfa8xHfZPbTefcRGIfLMKO4IQ90UItkU0krzcEdprYKi64/YvSIe336iWvddOUUtapMEaVSbydB71k1Cr9WSk9dMXl4zD5PvsXpaBH4bcki60cCj/vPCNVPK76BBKkih5koa9Rqqbz9l/5pLbDtVQaHl+S/AQN9Zy4n18Xg6BeEwM5PLJX0obBLWCx4y2iVtJ9HbE03WrO7r8k3GKkMMVA1a2oqqifo6lWWzovFy7Xcx8bnArjMVFNQrkCvaCNmcgI9T8MRIhrpuEneZjUem7CulpF5GW6scqWDgM07V6GjVHf28EXlFGUfXmXG2c0nkswutI9SXpvsHJMNgVp9qpLxRQVdrN09vFPL9nmRmegk+lmZVvZtnJFPmX+Xryx10ys2dwKzWjsHNPoxN4W009w5ObEzP10u5tM/sd+q2Lp+8RtXohjHCJG1lHJ72QXhvK6SyVTN6FcUrIgJvOQIiGY7aQEakj5+wfWEULk4xTPEPxdkpmBXfVZEans3OL5/zpFGNsryCs8dus39fJvvGTFmcvdmNZJiHub6jlh82JpgMGuzd4tl6ppqSVo2ZCIXy9ZOhp1Monj5RTPYTIqJEM9mn3wnaJRxv3yjTOeH8QAq8xtmHvfQMhEcxG3X0dCnofqGBTT8oBiUPf0llniAl2EWw9nQ9Nd2CSnVU0F7qgrLwKVvmReFsH877vzTRILUamLVSbvyQxvKZ0Xi6mZ3k7ZyjWLIrl+S8btp6+w2EtO2ETiQZDkhOwSyxrA8bza4VL1W5cWc20ldZwfEPE03rknZ24Sz7upziNg26keoD2073RrPLiKxHQUNRLfHf3TAZOwmqYzu3ixzP6kbSHwhXV/ucTxZE4+IQxSfnO02GUNZF1bdWcHhJDO72ISz7vp5ayeg+hPq6EvYsFNYWg5h1qILaDlFNao2lePz7QkAkw1HaS99Rz09bE/F1CcZn/QOObIjFzz3YFJu0tlVJV6uUqopOSotayHvUSG7u+FLe0zael3RS16UdsAIUJLaqy9msWZnO95ebTYYvQ0z29T08uFRI2Nn7bFsoGI2EsWDrHU6cyuPs2Rek4BJy6lUoX0mSE9R2j8y+j/ZBuC2+w/VSuelZE8KF+j4yvk1mumCN6J860m/RqKf17kM2zYrA2TGC2RuyCbvRRl27GpXJf7C/FBNMhprip2ZjKYcY9l3upF0xVNU8Snd5xdM6WnKfcXBdPD6CgY4QNWf7E+5VK007ltjE2UoytBWOzajXo5Qpaa9q4vKZTHZ+U0phs+D2YH6a4D+7f2E0bvYRbIvtoLXP+i0GWq9nszQwDHun83yTJaFL8C+0WTs9dZcyWRwQapoofRTVRotsbLcRm48ST4oIvAUIiGRoqxH0CrK/v8ZsIWyXTzInM1tI/Ow8UyYNBurWPCtg18pzTAkwx64U4leOP8WyM7aTVpllmDGiV0gpKuqms9eG/57RgFqpRd7bQcyORCa7RrItqoXqdrXJaVxwHLedzCHdbAkYtqo9eM6IwkptZ+92ni+S22kVjFssRR7M/ApHBtpuP2ST4LfoEMrir20YiiBIsUqeZ5Ry7V4bwgRECC03wtBnQslQw+Mgs7GUg386CcV99L3SRGJsSHSSTjKCrS1iQ5mxJZ+MsuFRc4Y9awwytOQW1nJVQuDxXu2QtWOjsoEf1whrhsHM+7KaamuDI81gaD7BuCarWoF6lAbXd9Txwwdmi2R77xQiHsvoHaLjtpRE/BYR+H0gIJKhrXYy6mnJesD7cy/wSXgDNZI+0kxbOA2SobboGbvXnGNaf1BnIbDzQPIzh26zcwjD2y968PxAnjg+ibOQoZHeulZy7gg7IVSTkfGCvREzivlyTSxezuGsPPqMi9dfkNeyx2JWE+Wdw4wobNV54JwRRVUl328WSFew8oxk9fdVZpeHUQbGgVvHdWBEVlbCkTVxpnVIlzlZXCzs9w0ccb9Z/afS2iBBS94JJENNTSmfL4vB3SGI6Z+WmoxPJpoLNZIu7p7P5ZNVCQR6mS1iBYyXfFbIvSpzyLYXwjxOMrTAM+Jbr+DmV5dM25E5zcjkfL+RDuhpSr/H2unhONqHsepkPbWCC5GNyY9B2sGFI8lM8xTU5yHMPlDKc8HQy0beEe8XT4gIvKUIiGRos2GM6FVyyoq6aOvRotNb9jMcJEOjRkN3p5z2tj5aK+u5cqWe4iopLYKVZ1YOa6dH4Dwtg/jcDsoeVnPzUSc1jRZrTzndprBXwuihpywugxVzYsaxL2IE7oKvol0Qzu4RePtEjn2PfzKn7o3XIVpPZ8Fzjqzv96uzD2PuvkIe1qtMEUhef6wzICkq4csNCfgIPpiTzvPF5TZah/m52WyS0U5OEBkaZB2c+zzJFBDd3jOZU3e6TU7kr11ngw5pUwe5aUWcOZLG6gVx+Hv37zYitKN/EgciayltNfsI2iKfIVV/XTI0Gul58JD1MyJwcghj9vZ80vPbyUt5xM7F0bg7BuEYmE5cgTnc3tD6G1HU1RG67zLT++PluszOJEEIMycEOhhSUPGHiMDvCwGRDEdtLyN6nTnQtXG0XSsAYZac9PU15k9PZOOJCko6tSif5LNxViQus7K5cquIrzdfYNa8qxw910zTiI1mDdRce8Cej5JZtSppjHSRWb6hONkH4z3zAktXjJU/iVVrs4h5LEM6YEQzSoXVfTy5eI/NC80xJ+3swpi/t4B71S+KTDPKs2yd1vRRcPkBWxfHmnb2EGJ7bgupo6rLhlrY1v2jnZsAMjTIJFw7lsIcH3NouuXHqijrfIVyaaTkJBcR/vNDTnyVzf4dKaxdmsiMqYKxUwST+oMyCFbJDu5xrN3/mPQCKZ19L2Gp+rpkKPRZlZT0r83RYxxcwvERjK68LdqMKDb+Uk9Nz1BDKZ20m/uJ99m6JK5/fTMIp8BrnErvpEMxAYHWR2tf8byIwK+EgEiG4wHaJhkakFVVc3b3JaYJs2T3RHacraZMMpQMU57WEXsgicBJobh5x7Hq03zzbgoD5GREp1TTLVHQ1TVGam8hfJuwsWsEH4U2UlIvH/ueLhVyzQvUjGhpfVrOmd1JzPYLM23RY+ccw9pvSsivV5pDtL3OlF+roupeMSd2JJl2QRC2ALKflMiu0FrKhZ0vXtdd4bXI0CzphH3a79tpH0zApjxuVb7iBEAn5dKBS8yaHI67WyguzoMB3k0O8vYh+M5JZtexZ9x42k2LZJR9LV/UJyeADDEaULY2ErbrvFkVboke5BDJiqPPeSLsz2hqF8H3tZHLQbfZvDSBQO/+/mEXhPfiTMKzu/qd+1+ng7yosuI1EYFfDwGRDMeD9XAy7JKRf/4+W4Qg3a7BOHpf4EBcA1UdGpOFqPpJHh/MjMRlZjYp5TIk7e2knLjGbK9QnF3D8Z17k/hnr7Drg66bc58I0WMi2ZEw3BJwPBWxyqNXUZ9XTtDBayyaHoWHoLa0C8J16hVTHE2hLq8caUWvpbOiidSYXPZ9cIGZAZED6l3PuWmcSmmjUdj09nWJUKjOK5Ohlsq0h+xaZpF0gvFfa97tom/EbhdWuL3o0KijNCqNucLuGYK7i38c85Yms/mTbI7/UkRqTge1zXK6Zdr+zZ1fgUQmggwBwcBG3t7JnQv5HD+cxWdf5BCZ1kJtp3WwBiP6rhai9lw0xWU1SbSeCXz4dTEPKvrotWXQ9CJ8xGsiAm8xAiIZjqdxhpOhREFekOCMLwTlTuOn6200S4XBXU/F5XtsXxFjGvwdZ98mtUqBymBAJZNRcC2XHYuimbOr0DT7tpi7j6cIpjwTSYaqHlK/ucYcYSNcwR/NNYaVnz7mRmH/DhKvTFRGpE+f8emqRPy9wnBxCjaFsXPyOc+WY8XcKxci8LxIUh03GuaMr0yGRqSFhexeFIWrUzjzdz4ms7TPtMXSmOt2oxbRiLq6kvC4agrKemhpk9PRqUDSo0Im16LuNwR6BQocfKOijh/WnSPQM5LNYUK/ew13BqMBjVKDTKpCKlWj6Cc36/IJrhq9dbX8su862w/ncTVPQmtPv4WqdcbBEopHIgK/SwREMhxPsw0nwx496vYmLsdVkFsmo2dgcDfSk3mPldPCTTutT9tdTFGbpt/KzohOpaa7SUJ1S7+v3HjebZ1nIslQ2HevuZHwT6/x4b4cEu900Nj5Cmo76/KZjgWXCAWFiVksDYxiyoKr7D/1nLvPpXRI38AgqpdyOyqXrw7e4vukNtpkozuJDy+qQauh9lYRkckNlDSrUL3Obhf9Dxe2N5IrXrRjyPBSvORvg47eTjltrX109elNauaXfMJLZxekyL4eJd1SYSPmNxmA4KWLJt4gIjBhCPxuyVCtVpOamkpBQQEqlWrCALH5IEK4v4YAACAASURBVKOW0rQn/PTdfaLvSOkRdqkXYnIqdGYfLqsZsqFXSnF+Izl57dR09FsIWj/UaMQgSF1W91hffuGxQcXzzOfEhj/jxnM5fa+7ZY6gKutRIulRo3zhuuILS2XjohGdQk5djWBdq6Cn7w2QoOWtRgMquZpeqQrZS4dME4hbi0L1EgYslveK3yICIgJ/KAR+t2TY29vL7NmzOX78OBKJ5A03ihGtSmPaId2m47f1240GdDq9aYd0wUH8VTjP+nFDjoVNY4XBW67lhb53Q276rX5YSH9CEfitKiO+V0RAROAPjsDvlgylUim+vr588cUXdHV1/cGbSayeiICIgIiAiMCbREAkwzeJrvhsEQERAREBEYHfBQIiGf4umkkspIiAiICIgIjAm0TgtyNDbRv03Ybe9FdK0sYkfL2c+GLrX9OV889Q7gJVAVC7CBo2QNN2aDkIHT+CJBK6L4IsA+R5oCoFbQvoFYLD1ZvEV3y2iICIgIiAiMDvAIHfjgylKVD2b1D0f75Skj74K3zd/jNffPSf6LrzF1D0X6D0n6HCE2rmQN0KaNwCrYeh4zR0RYL0CvTdA+Uz0DSAXi6S4e+gk4pFFBEQERAReNMI/HZk2HMJiv8rPP1fXilJ7/wHfF3/SiTDN91DxOeLCIgIiAi8AwiIZDgeNam+j5IHtWSkV5Nfo0I5EFf0Heghv+MqCgG4Hz3spM20R+RbUBGDmrqn9WTdrOJOsQyZ2jCxrjdvQRXFIogI/F4REMlwPGSorOfUhgvM8L/C6ftDt0PSSzq5e72MC+eec27MVMrdCiXyVyVTXQ83gu5yYG8WZzMkSBQTuN5pUFFw5TEnj9/lm1NlPG1T87o+/b/pn0Kv4N5Pqbw3K4G1R57ztFXDCNiVvVTVKkxhyCzekNqKCk5/mcUnO9PZaZ12ZfBLppS2vFJ+PJLJLutr/cefHC+lqE098j0WIHQ9XPz8MvOmJLD3XAdtfYNkqJLKaW3qpbFxfMm8tZil1JYXiN8iAiICr4qASIbjIsNavl0ai4fTJU7m9tBttaO3rryIPcsT8POKwGus5B3H3vOdtPW94iCmbSP0o3MEeCbyxXUJnUIknIn66GVcPXSJmb5h+G97RmGL+q3crFVXX0v4d3f5/LPb/JzaSaewF6I1BjoFxeml3Houo6263rQzQ4BvNEsPlVLUrmGg6RTdpH9/nSXzk/g0qoGGXh3C1ELz+Akfr0gk0D8a//7k5x2Gm2sEmyM6qLnxiM3LEgiwuu7vH4mHeyju793nVo2wO7x1gayOdRLidybi5xbFznOdtMotGfXkh6Sxcl6sjY2grTaNHtgcOpb1p+upFzbftXq8eCgi8PII6Ci78YQfvszis6NPyaqUI5/AOfbLl+e3u0Mkw5ciwyROPpQOIUNtaQFb50bhv/oOEYllpKZVkjYiVRBzKIkpXlFsi+mgZRQyNMjaSD6bw9dHcrlc0IdsuGimbSVoYwI+rgkcTpXQqRo2FOrlPL76jKCfHhGT3W2SHIflGL2n6WVc3n+OALcgvLYV8rxFYyKH0W/4ba5onz1ly4IYJk06z5F0MwaDdTQiKyhg97J4psy/zun0duqrG4nYdYEA3zg2/VxPc4/OVHBVVTlHVscyySkYF+9EdkQ00Nirx6BW09Uhp7W1rz/18jQinbmTI/ggrJ2mDtWw63201pdzZEkM3gvukjkuMoweRoY6HvxwmemeQTg4heLmFoa7u+3k6hRk2l1k/lc11HTpRDJ8A91QK1dQV9JE5uVnnPk6g4925ZFdq0T1hyQJDffPpLAoMJRJq3PILpePrtl4A1i/TY8UyXBCyDCa6buKKWpQolLrUI9IWkqj05nnF/1iMuyo5OjyeHy9UwgvlNGrHxzmTZ1mLDLUdRG3+yLTfeP5NKmTNvlLhIMbRoYlrW8pGT59zMbZkTg6JnLkZjedQ8QwIwa1krK0HDbNiWbyzBTOZHXRUFHDL0fvk/CgB2l/fiFId+uTYg4sj8HdMRgX30t8ldJJzf0ivvtiqBr0I0Er4BJmIsOG6gZijmezd5eVGnVHMnO8Q3Gd/7pkGMzcg6U8KpXS0tJnI0lJ/yaJqZ7BDCdDXVUNEWdy+Oqru6+Ujh7OZNvGVI4mNtEkTAqsRimDopdnD+rIvFnFjRuvkDIaKe/UorF+qNXz3/yhHnmXjIZaCeWl7RQ+bSb3fh1ZNypIvlBEdGgeJ4/d4cDuNDauuci8mXEE+kfh6x3BJLdQnFyi+TCkiUbpH1ES13D35FXmegfhuDKHuxUKzNPFN98qb9sbRDIcjQy1nVz4IpV1Sy6waKGw510IDnahTJ6ZyIJF51m0LIu4IhmSYrNk6O4Vy5x551kkXLOR5gaG4+IU+WIybK/g4KIY3F2vEVYko3f44DEWGWo7idqWiK9rNLsvddKmGEamL+p9v0MyPDqCDIUKGtGrVFSlP2D9jCj8FmRyvkBKm2RwiyILDAatlvb8AnYvjGJS4FVOZ0moSr7NshmRTPKOJiAwhqlTY5gSGIWfXyy74jppel7C/iWxeHtGDlyfOjWaAL8oAtY+5G6dcvS11gE16WiSYTALv62lRjLaoKsj76dkZnqFjCBD9YOHrJsXjbtbmEmyFKTLl0quoTg7heA2I5OL5UNVZbqmMr5Yc44pvpH4+LxC8rvKmRwp3SMWbS0t8aa/dVScu8W6hXFm9bZfFJMnR+HrE4m3VwSeHubNmF1dQnByNEvedvYhePjFs3hNKnuP3OVYuCCJa8e9dKBTaVHphK3K3nTdXvf5IhlaEBTJcDQy1LSYVJK+zkHYC/v9WXYDtzf/tndO4tRDKR1FZjKcNDmBJcuTWLPmss20dFYkbs6/UzLU69Eo1Ei7FbS1SKlvUaDQDlurs/SoN/yttZIMbZOhUABhNwolRZdy+TasmpIOYa3Q9qhk2sbpdhnXhX36ZDraU7JZHBjByhM1FFTKaGvro61NSv71Is5dqaPocQE75kczeUMedwu7aTFd76P5WSVRYYVcvt9Ft9KKzPrqObPlMgtmxDF9egzebsE42Afj5h3DlGnCuQT2JbSRdCSJ6Z6vToaavCfsWHeBWTPjmfnSKRZfN2GyF4RDYAZJ5XKs51G6+ufsXRCNq+U/8LLfjhc4cacbyXC1/xvuK4OPN6KqLGb3gmjcnUJw94hkckAcM+eeZ8mKZD7YnMau9efwcQ/BziGBPREV5JR009TSR0eXkp5eNb3j3HlFU1bGd7uvsmhuMicyuukavpQxWKi35EgkQ0tDiGQ4Ghka1TQ+byUvp4EHtx+zY3YUbo6J7Iss4+a9Bh7ktFEv1aEsMZPh1I8LeFgqpbNLQdeIJCc/JJU5k8dQk75RydBIX1E5Z7+7y4HPMtm39yaf7Ejn422pbP4whQ82XGauXxhODkE4esex8L0LLFl8nvlzE5g5I45p02KZOjWWKVNimPZhPrkNqt9kbWF8ZCh0byM6pZpeuQ7tCzcqNqLX6AY23pWk3mZxYDgztj4kNqnSrBa89oTPVycydcYNotMesnleNB7zbvJLQhlpJrVhJYnfXmPBtGjmfFZKRbuVillWzVdLYpk0KoGEsCGkhfOHX48MjWoNki457e2vkJrrOPl+PN5OQTguuk92zVDpdoAM7SNYe+w512818ODB2OleZAYL/cOw/83JEIw6DV2tMlqaZbS0ChMcOe0dcjqFzZclStrT7vDelHDsHS9x8kE3XZpX27dR31nNVyti8XAM58PINpplw9U7lqH3bfkWydDSEiIZjkaGgnShM6DV6tHKqvlmidma9McH3XSo9Gi1BvQGIxYDmskrsjgTXsSFC89tpGKC9l0kwHMMA5o3TIbKe7msmxONm0soLi6hODuHmJKTUwiOjoLE0i8B2wfh4GD+bW9jEHdc8oA7tUMHTEuHetPf4yfDVymJEc3zAj6eF4Wbazhe3v0qQe9wXJ1CmbqjkMdlVRxfG4+XSygeXoMqQy/3EBzcEth/sZ12awtXg5q22i7KSjooKa7mxw1xeLtEsvF0JfeedFBS2kl9p4rbJwQDmleXDF+ltgP39NVxfEUcHvZBeGwuoKhZPUS9N0CGDlFsj2+nsUfo/2Mnxf1cVk+PwOEtIENhcmQUtlQbRUOgvvOAZdMEMkzi9CMpPQNmxwMojevAqOsj9YuLBE4Kxm9XMc9fuPauR9bcRm5BDz0KK23CuN40UZlEMrQgKZLhqGRogQhQWlwrRrcmdXEOw8NzdPcKD0EN5RDB1hdZk1rI0CmBrccfEhxZQFSUVYq4z+a5kbg5RbFqfy4/h1ldE/JF5LBtQRTuTrbXDHXVVQQdu8PBQ3f4+lgOP57OIzjsGbEJz0lKymPXgigmOQQxbctDEq/Vci+nkbwnrRQWd1Be1cXVoxeZ6hHEW0GGDjFsDa6lrFPYVd6qrV7z0KhV01hYR+plwW+0iLP7LhHgEc7iz4u5V6VEpdXRUVrCoaXRePgmceD0E2ITizl3vpQbFgf/IQtF5n0dDXoDeo2EuJ2JTHaLZmdiBy0yA3q9sK6k477JmjSYaR8+IDy+hOQrZVwZkUo5/bFw/0gDmteptrbsGdvmRuFsF8zi43XUDluztCbDnYmdtI5iDT28DJrch6yZ8baQ4fDSDf09UWQoxDpuS73N0sAwnKZmcllQOVv6p0GPtKGDnLRigr/LZvv7F5kzPQa/KZf4LL6ZZtlvQYhWZDj3JtHZnXSrfpslkKEt8uv/EsnwNcnQIJWQl11NakoFKWOl61XkvSCCjcFChvbBuLiHm8jV0zOCwRSGi6NZenN2C8fDw/qacGy+bm9vmwyNOh19vSqkUjW9MjV9fRrkci0KpRZVVzVfC1aT9iGs/qmJmk6dafav0/UP2AYduaeSmeEV/HaQoV0wrp5RTJmbxEef5RCd1kxdj27Qj/BV/0sGPSqZ0qRy7Ozs42lEGnMnR7IxuImKVhV9fWpkkgZOr4/Hd/oN4h510iio27oU9Cr1Jm3BqK8ehwGNg0s4nl4ReHtH2kwersGmNezh1qSjvnPMCwbqLmawyD8Ue4d4Pk/pokM51Ar590uGemrvPicy6BGnTz98YTq5N4kAzxDs7GNYt/8uJ06Olv8RkTcF/9bRiMuIrq2SI0tjmOSSwJ7wUi5fLOTnbzLZsvo8s6fFMNknwuSX6uIaipNJGxOM16I7pFQoUFqIc8x2m6gMg2Ro5xiG1+RY5q9O5eDJIm4WSOl5h4hRJMNXIMMumRqZymDazV6rEXae15iIRSCXsZJCpUMjqFgFlc2w/jxAho7RLN6Uyo7dGezZY5V2p7DIPwxnhzBmrb7Ox7usrpnyXWeJYLXqaJsMh71uyE9dxTO2z4vCxSGGvUmdtFtbUJhyjkaGRnryivn+SBa7d9+c8PR5WB2t3dqBsg6oSS3qW/tgnFzC8PSJZtr8ZHZ984TrT6T0viDUmb6xlrDjt9lnVd69XxfzuEWNqqOa7zZdYm7/GmmAdyhODsG4ekUTMMW8bipYj3q6BOPgGIaPfwxTpsYyddp5DiZ10T7gSD9Q5MGDMckwCPdpF1i19ioffHCN1YJ1qHMwHjMusmqdcO4qy2ZG4Oo4gZKhVsK53efxdw3CYXoml0sFSWZoz3wTZGjoaSbx+zt8ZtUGE9V/9nz+hOZWJaDjwakrzA8MZ9KkMZJgLd5PTM6uYbi/IP+CI5VUdWqH/X/1yDu6KbhbQfzZbN6fGYGL0G88zRargouGi1skMxZfYfvBHEIvVJEWepPF/mE4OCew71wLjTJBS/Dr/p/Aigz7/1P2jiG4TorAxz+OxeszOBFVRWGTGvVwV6/Bnv2HOBLJ8GXI0DGGFVuusXrJJQ5faiT+aAor5gnGJS+ZZlziq9TuERFkDNJm4gUftj0Pufa8h9ZuFT09Vqmz3mTo4OUSx/6LrVS3KYdel3STk1xIaFABN57L6Ru39Z6B5iu3eC8wDAf3qwQ/7kU6Ys1kNDI00HY1m2XTI03rkMJa5ESmyR8XUtWqGfizDZChQwzrD97l4O5rLAoIM8+w7YMRJGbhT7zko2zOXmmmQaobYQ6vLSng44XCzH2wrG5zskkRom9097fBjnS2b09n03tCvhACFl3lw63mc9u3X2XB5DCc3eNY9sF1tm1PZ/uOTEJu99L9oqhAA2QYxebTJVyMf8p3+9M4caWD5H5r0nlflPO0qo8uiZyy+JvM9wtj/mHLOQVVj6q5cuk5aY97TROyobQ1ANM4D4xIH+axaXYkTnYhzD1cQXmHdsh6ofCgN0GG+rZyDi0T1k8H22DC+s3kdCqq+kxkmPPTNRZPty1lD5G+PQbJ0NUjwrRePOS6laT+3pdVVHcKAQ/0NOaWEnoii63rLphUnv6TI/HyCMO5X4Nj5xDNyn33CUmq4XG5lJZ2Bd1SNbKmWk5tSsDHOYRZe4p40qRGZ5qE/Lr/J2sydJiVwqHDWXyy4Rz+k0JMwR3sHUNx94wkcHYS244+IbWg1zTRHGcH+11lE8lwVDI0oGjrIvd6IacOXTU5VTvaBePkHIKLZzw7I6sI2XGOQHcrtwuLtDLWt30Uuy+aneIHeotBj1qupKO1jw6JGqUtH6Wx/AyNBjQqrUn1qdKaZ5kDz3/RgRCK7fMLprq4rsjlfp3ShqWojpxTyUzvV5PeG8hjpOtOPvu2XGHF8iSWT3DacLyChk4bkqFjIodT2qltV9DR0M6dS3kc2mReTxOMfoRILpO8o5i1MoPIHNmAs70Ag76rg6zk58TFFBJ1IpV5vmE4T8/iaoUchV6HvFdFT7eS7m4FzyLTmOsXycZfGiltFM4p6e4wT0p8p90kPl9Ci0Q4r6JPZQtzIxqpjLK8Gi5H3TOv+QoSg4cgMYTj7hLGxrAWLoywJjUiv32f5dPCCdj1nNI2wULViF6rQ6XSDli/vqhZx7pmkLcT0y8V2nte4cz9HnoEK8phN74JMjR01fHLvuusWzHxfWbFhvvUNShMFsVqmYKONks0odG/65KzWRgYhp3jJY5ntFLRPHreDqkWrV7AyUDD5WyWz4gwkZ+jaySzll1n37HHXEgv4siKWLycY9iV0Epdt7C2LRjwCB1Qwf0zqczzCcF5+k3ihImNzoL7r/t/siZDx+X3yXjWTVdXH7XPakg8ncX7cwUr+iDsLBPNwETWHSnmSeNvY00+rGtO6M/XJ8PSUkhJgXPnID4eoqMhJAR++QXOnIEff4Tvv4djx+DoUXM6dAj2vg9b7WHTf4f1fwfr/h9Y819gxV/Be38JC/4C5vzvMO1/hYD/CL7/AQL+BCl/Mm359Ka3cFI+fsrOVYkE+EQwyaJCcYhm9ZECbj7rob1XS0+rlJrKLioqhqaSa/dYOTUC5ynphGc2UVQ+9HpFZTctUvOfw9Ka+rYqjgnquTmpBOVKTYOS5drA91hkKGSUNxK88wrLFqVwOrsHyTj8nFRlhexaGIWrfSgrf6ynVoh5OXxERMe975OY5hmE47JccuuU/etzgpO7mh6JwmSmLpiqT2Tq6tWis1LPDEiGjokM+BmaJgEapBIZ5TmlnD1whVneoSa/OcdpN7lQ3Ifc6hlGYeKh0qJQaOnNy+ODWZG4CGRYLqW1VUbTQLBsKQ9DUpntG8mGM7U8KZOaA2nX1fD92jh8pqUTda+VyobB4NrNnWq0A1K1gbbMHD5ankCgXyTe/Wu6gs+qk3c8K7fd5ufztZS0Ksk+IWAbzOJjdQNO97rKInbOi8Jj/h1uVCsYR1MOdJUxD/RK8kJvsMhPwCmUhUfKKWkXnMpHNPwbkQyNeh2yHiVdE9xfTH2vS42w1j3+j4GOa9ksCgzD3j2FSGFHkXHdbkRTX034qTxCE6t4VCalpUNJj0yDUq0i59RVZnqFMv1AmVniNhVIT0tWDhvnROLsmsC+xFaaTOpRS2l/3f/TEDIciEBjxKDTo+xT0dXUwZ3zD9m7SpDig7GzC2Xx0XKKW0dqECw1+L1+vz4Z3roFiYkQEwNhYWYS/Okn+O47+PZb+PJLEMjvwAHYtw927oQdO+DDlbDGHVb8Gyz9J1j0D7Dg/4U5fwMz/m8I/CuY/H+A538C5/8N7P8j/Ot/gGTz/odvmgx1TaXsXxiDt995Nuy5znuThbW4i5y4I6FDbZ7hCWbaBoOeyqu5HD16j1OxtZR3aZA/zjcPsDNvcU2wJtP3WxQarL5NZt6D3UbfXMb+hdG4TeoPxTZs3caUczxkKOs3hHG+PD4Tcb2Mm98mM90jGAefFEIf9dI7MEsdLJ/wp7n1bb816eo8HjeqRqgfrXO/qWObZDjwMrPk1CdV0FBQRcSXNzgQ1kitRDdC9We5RVv4xKQmNJFhQSnHP7zE3CmDwbH9PENxdAjCxTMKvwDL+Sg8nIMRVEhek82RagL7g2jP3V9ChUmKE95gRJWfx4ZZkTi7CFJDEgsCwkyRiD4KbaS0SUWfUo/OoCHbhG0wy35opK4/ALdR2cJZIRateyJH0mzEorVU4mW/DSqKz99m7YwIk3rZbWE2l4v6kNts9zejJn3ZIr/Z/Dryfr7KTO9gHGffJr1q/BMPgdTlMg1ypc40aRucSxiR5eSybkYErtOzSLZYlep7yTh+lZme4Sw8WMKzZk2/evTN1nD0pw+uGdoMxyZMNJUaejq6ybv2mEO773HuUbcpmtDIadPob/k9XHl9Mrx9Gy5ehISElyPEbWvhfR9Y7TiUEOdbCPE/2ybEX4kMjdpu7qbVUVjRS0drBUcXxzDJaaRrBQYFN74SdnuIYNlXVZR26lA9yWfjrEic3GJZ8n4KH21NY2t/2nGykpouK6fs/l5iIUN3j+tEPR9lZjpOMjQ5eTtf5kx+Lz36F3VDA23ZuWycLQyKIcw7ZJEObNyjl3Pt4HkC3IOYtLmAYsEXzUa2N33qxWQ4+HaDToeiV4lULpCNRQU1eN1yNIQMi+u4ePYBXx68xcGBlMm2LWns/TSLzwfO3eLgvlQ2b83g0/3WebP5KrbRFAzcMlAYe7u4l1HP45IemltbCN2aYAqXN2TXCiEU3mdCkPRQ1oe00dTbb9pu1PD47DVm+4QSuO0ZT5rVr28tq5RyNyyTldMjcBYCLEy+wg/pnXQoDTa0AWaUBtSk9hFs+rmGR8USqqu7x0zlV+6wdEr4W+JnaGlxG9/KVoI3J+DjFMTk7UUUC76Blga0kX28p4y99SYNgqdLLPuT+43SjAaUwtr+9SqeNChME+UJeNV4i2Qj3xhkaLnDaESn0iDtUaPQCMsBlgt/nO/XJ8N79+Dq1UFCFNSkoaFjS4gfr4dNfvC+O6xxhJVmCVE195+RTv1Xevz/hR7v/0nPpL+nx/lv6bH/a3r+5f/i4beOZId7kPKzG87//resX/SPXD3jR3bUHLJjl5Edv5Hsc5/wwaorLHvvHh+8/5CtHz1m355nHD1Syo/fV/HL2Vpiopu4dKmd9PQu7t2Tkp8vo7RUTkODConErEJTKXUmU3mjYnQ/Q4O0ju/WxOHpHM/n1zppVxrRPDWToaN9MI5OIaZ1RouDu/sHj3nWpGI4R/0WZKisKufLdfF4CpFHpt0YtnYxrJNrO4jYkoAQnm7qp2WUtw+3phuW/w39HC8Zjvf1Q8iwXIZEpqZXKrifqOiorCfhmxTmT7vIwXPN1LQqTeel3RJunLjGvBnn+OCLp9wslNIuMd8jRLwRgjEMjBUGAxq13iw1DBjQDItNqmrmzPp4vJ1j+fRyl5UlrxFleRGfzI/CzT2BT8+30Wrt0D/eSpry6ZGUVHF272Vm+YbhaC9EGrrEl5dazIG5B0WaEU8dIEO7fgnZP4aAgHEkH3NEI7u3wul+RLX6Txhoy7jH6mnhONpH83F8Gy1W+0yOdte4zhvMwRSmeYYw7dNSytq15gmk0YBW3R8ZaaCjjOuJbyDTOMnwDbz5bXvk65Nhbi6kpQ0SokVlOhYh7t4Em6fBRq8hhNgxw5MSl5kU/PssCv5lOgX/cwoF/58vz/7Wk2d/7coKl2h8PW/iNSmZ//bfnPjnf1yHl3sSvl6Z+Hpl4euVja/Xbdzd8/DzK2Du3CKWLn3Ohg1l7NxZxaFDtRw7Vs/PPzcRFdVKUlIHGRnd3L8v5dmzPmpqlHR2Cv53OgyW6c+oTvcG2tLvsmJqOI7uVwjKN1thavvJ0HlyMofPPiXBKirNpdsddNnwUfq1yVDdWMtPH5/HzzUYO+d4dsc10yjTjzrj07dWcPC9GNztQ1j1UxMNPb+NY+4bJcMKOUqjHml9M9dDb7N5STx+HqE4usay5ngFFRKteRKjkJBy7BozPcNwdY/Af9Ylth5+ROLNFuoFX8fRROZRyFCwbjU5vQt9aJglr1Gn4N6PV5nhFYr7jDTCHkjpHbeVsDDc6OmqqCPhRDorZptdQgQDI9fpKfyY0kZzr97mOqH1QGVNhgMxescyErO+/haToa6tjh83JeDtHITzgttcL5ejtPzvrUF4pWMj3bfus3JaOC7TMkkqs3LAf6XnvYmbRDK0oPr6ZJifD5mZL0+In26F7bPgQ78hhNgxczKFrot4YreI/D/PJ/8f55D/32eQ/3cBPP6vvsz+lyvY2eXzb/+Wzd/8jSt///cf8q//mmk6J5y3JBeXx2+cDAVXiNCt5/B1EaytQpm1/Ql361T0PTZLhi4zsrhc3EuPUouyP6nUBhPJDp8Q/npkaKSvqooftp7H3z0Ye4dIVnxbYVINmU27ha6hQyYRrCMFcjSil/fyIDiNeb6CY3biwD6Clk70a36/MTKckmkKUN1V8Iw9qxJNJOjkGErA0hucvtpMdbsGjcmCEDDoUUhlFKY/4dD6BLxdQ3AWwrfNuEFcUR+y4WK/BSCbZKilICSVuT4huCzN4faIMHdGVE01nHhf0D6E4rM4k7i83pF7XVreYfrW09fSwb0rT/n2k2QWTo9GCBcnSIN2DuHM3ZJD8uMeupS2rF+HLCvwDQAAIABJREFUPMj0Y4AM7cN4b08uv0QUEhc3dor5NoWZPqFvRWzSkbUCvbSNhINJTPMIxt45nj0JLTQLUuHwP6etm8d5ziCp5uvlsXg4x7Lvki3/3XE+6I1lE8nQAu3rk2FBAdy58/KE+Pl+2L8D9myB7RtAUJtuXkPHopUUey7nidNSG4QYyKw/X307yFCv4GFwGgsmh+LgEsucGRFM8oxg+ppbhJzJ5L3ACFxmmn3XXuR6ZmkICxm6OcWyamcmnx+5w5Hh6Yt0lk8Jx8Uhgnkf3GT/IRt5Dqaw0DcMJycba4YGLfV3nrB/VTw+LkIkk3AWHSzmUYMKjbVqTy/l6pdXWTonnlmzE5g1PdYsIdkH4br4HjcrFagmbPZsQWB83xNHhnokZdWEfXqJQMGnyjGSFUdLeFLTStyh62zans3PyY2UNSmQ9U8Kho6RRnRqDdIuKcW3n/PzkRtsPlJMUesL1vVskKG2oYIjK2OZ5BjGih/qqLFhyWs06GjLyWfb3EhTjFSf+WmcyehCIqzzDYNN39lIxIFrvDcjhsne4bgJhj4mKS2EyYtSOX6+gfIWFUrBWGb4zcOeZfmpb63m5M5rrFhylW+vddIk0QxM7iyTPFvf8qY27tys5MrVOorbNKh/oz5jqYf1t7KhntB9ggVviOl/8N6RUp61vAFjFr2cG19eYsqkEKbuLaHUOoi7dYF+s2ORDC3Qvz4ZFhfDgwevRogHD8KBz2DfXti5A3Zsp3PZJp77rqHAbYVNQpz1r9d+fTKU1/QH6u43oNGYrfHWTI/AySGMxV+UkpdXwekt5/CdFIaHh3mtxCHgOmfTGimt7aVZiJbfMpg6e4e5VlisSU0RVUJxdbW1H50QDcXs1+joLOQx74o+ZN86134JwAYZausr+FqQZJyDsHOKZs03JTxuUJkiSwwZF41qMr66yNRJQ30o3Wdd5/TNLjpfYGxh6Vhv6nsiyFDd1kbKz5msnRuDl2sIXguSWTJVCGcXyYxl1/n0mzxir9SaDEUamgbbzLr9rI8b67upLOvgeVk39Y0yWiUakx/aCAyGk2FXN9eOCpa8ITgGpBP7VGblbzb0boNGRWXqfdabfNpCmBRwkZ0/VfK8QzvEJ9SoV1NyPoslQmQTgQSdI5m3PpNTFxsoaZAPhIwb0t5DXzXil1Gvpbfb7DLTqzQHqB+RycYJo2m9VPCL1Jv98l7mpTaeNyGndAqKU/LYvSIeXzdBMxLB4gOF5NYqR/4PJuKFRgPt/bFKnadkcKl06F6RE/GK13uGSIYW/F6fDAU/w7w824R44cKglallDfH0aThxYlS3i85VWygLXE+h1+oBQnxspTKd9W+/IhlqOkn6+gYbl8Xj6xqCvVMSPz3qIjcxm7WzBGu8YAI2PiJDiCmo1dHX0srVk+mmEEtmlVQonr5R+Peb3QvbH5lTPDuj22ix2r13QDJ0SeDDw/f54ac8fnqV9GMGywPCcbZBhkathrpbj9j+fipfxtWbthqyvb2RnsacUmJC8jhzJo+zwQUkpDRQVCen16ZjuaU7vflvbVEB25fE4eNzieO3uukastP9eN6vpTDqBkuEdV77YHyW3+FCnoSaxyV8Jagi3UJxE0JR+Ubj3+9KMdhulvZ70Xcsa76roUFivV+4ntrbRYSevmU2tXeMYldiHRdPpLHYLxRHx2g+DKqntmf0NVvTHo0qFRXpuXw4xxzqyyUwjegCM4EO1tyITi4lOzaPXyJLyS6Q0NxhduEYYtgzeMO7dWRQURifaZosOHudY8eZSoqa+yeEb4SsjehayzkkrLc7xbJ3eLCN3xx9LQ/OprJ0ejg+H+SRUyXudM+f//xnnj59+vJNU1EBwn0vS4iCH6LgiD/MD1GybhtlMzZS7Pe+TUKc9e8pv55kqJWStP/8QJQZ98V3SatS0FlcxN7F8czf8pC05330aftVTgaDKchzc2k9SSH32bc5iYUzBYOfcNxcQ3C1JPc49l8eun5g6KjlzJ4U1qy7S1KxlA7Z2HFObcZB7W7nRsxjfjpVTE6TaljgX2HTWw3dXUp6Feag0rb//8Ief1YxV+ValOr+/LZvePl+84p3GDUaJB1yWlsVSFXmGK8v9ygjqvoKjq6MY86GB1x91kuvYCqu09Lb2kFmXA6fbrrE7MBIPNwE6duq3cZ1HM2OuPZhOzvoKY25wZJpZncGO+fzfJPZRtbZNOZNjmLhgSLyG9Vj7Lso1FJoPzWNj4o4vCaOubsKKTC5WwxrFKMBtUKDXKFDY1KHDrv+coD9sXIbjWhkUnKulJIhRA/6/9k7D6gqru5vv+v/vcmbRBMLCliQJk2QpgIiFhABsWPH3it2sCKIIiDSuyYxMZoYjYnGJJaY2EvsBRULICCgdOnt8nxrLlwEBGyxoNe1fmtk7r0z5+xzZj9nnzYVm1+8TguVlWRz5OvTBGy+wano8i7qd8eoZRRm55fv0pNWKN7Z6HXa4t3J99MpefXIMDoarl+vDkRh7WHVSTV1RYgSIHp4VC7MT5vpxF27OUTazqwViIPfJAxFpaTeTebcmThOnkniVnweucI2Z8VFPLiXRnxK7WMvZaWlFOSW78qS8qh8W6eq3WpJSbni95cJLXXJP/GOHBn5pKUVkC/eSk3yyQsey0QU5AkgLS7v9nlyixe80Pv79bLSImIuPCAyPu9JQ0bIrrDAOK+83B4JW3hV6dauXn71dZ3mkJFb8+0VIrKu3mFLyFm8N55h8y8JxGYUk5/+iMP747kliUyey+RliIqLyUx4yLWYPHKFDSCe63fSL1VaoKyM4oISCsVbHr4B6wmNk9xCsnOLpY2TykJ49/7z6jC8fx9u3vzXgJg+dzm3RywkalDtQBzc6Y83FxkKO8aUVrzgt+JlvuWTDsrPCzMt38Cj9O7VmgafImGnmorF+G+kAAWAlZArvP4pu5DcAkmULaJQEnG/oE2F8Thhm7q6Xlb7gpeTfl1qgQ/eAq8Ow4QEELpKawLxzBl4iQgxY5Ezd8Y4cXPoQm7VAsTBnfe/URh+8DVEagCpBaQWkFrgA7DAq8MwORliYuoH4uHDT9YhSrpMq+5UI0yqqegyTXdyI3rScm6NcqwFiJMZ3OWAFIYfQMWUZlFqAakFpBZ4kxZ4dRimpoIQHf5LQExfsZ67U1dzZ9yyWoE4xEgKwzdZQaT3klpAagGpBT4EC7w6DDMyQIgOnweItU2qqREhZrp4cXfWGqImOVcB4oLKLtMhxgelkeGHUDOleZRaQGoBqQXeoAVeHYbZ2SBEh88CorAwv5YxxHGWlnTV0amUSQdtjDS1MdLogLFY2hhraGMiVgc01bqgpmaCmpox7dtroKbWEQ0NEzQ0TNHU7IaWlplYHTp0R0enO7q6PdHX74WhYS86dzbHyMgCE5PemJr2xsysDz16WNGrlxUWFtZYWtpgZdWXvn1tsbXtR//+/cUaMGAAggYOHCjWoEGDEDR48GCxhgwZgiA7Ozuxhg4diqBhw4YxfPjwSo0YMQJBI0eOFGvUqFEIGj16tFj29vaMGTNGrLFjxyLRuHHjGD9+fKUmTJiAoIkTJzJp0iSxJk+ejKApU6aINXXqVARNmzatUtOnT2fGjBlizZw5E0GzZs1i9uzZlZozZw6C5s6dK5aDgwOC5s2bJ9b8+fNZsGCBWAsXLkSiRYsWIWjx4sViLVmyBEGOjo44OTmJtXTpUgQtW7asUsuXL2fFihWVWrlyJatWrRLL2dkZQatXrxbLxcUFQa6urmKtWbOGqnJzc0PQ2rVrxXJ3d2f9+vWV8vDwQJCnp6dYXl5eCNqwYUOlvL29EbRx40axfHx8kMjPzw9BAQEBYgUGBhIUFCRWcHAwNRUSEkJoaGilwsLCCA8PFysiIgJBmzZtYvPmzWJ9+eWXfPXVV9X09ddfI2jLli1iffPNNwj69ttv2bp1a6W+++47BG3btk2s77//nqr64Ycf2LFjh1g//vgjEu3cuZNdu3ZV6qeffkLQ7t27+fnnn8X65ZdfELRnzx6x9u7di6Bff/21Uvv27eO3334T6/fff0fQH3/8wf79+yt14MABBB08eFCsQ4cOIejPP/8U6/Dhw/z1119iCY5JoiNHjiDo6NGjYh07dgxBx48fF+vEiROcPHlSrFOnTiHR6dOnOXPmTKXOnj2LoH/++Ydz586Jdf78eQRduHBBrIsXLyLo0qVLlRKWnF25ckWsq1evIujatWtcv369UpGRkQi6ceOGWDdv3kTQrVu3xIqKiuL27dti3blzB4nu3r2LoHv37okVHR2NoJiYGGJjY8W6f/8+guLi4ioVHx9PQkJCpR48eEBiYqJYSUlJCEpOThbr4cOHCHr06JFYKSkpCEpNTRUrLS0NQenp6WJlZGSQmZlZqaysLAQ9fvxYrOzsbATl5OSIlZubS15enlj5+flIVFBQQGFhYaWKiooQVFxcTElJiVilpaUIEomEbfDeyGy2OvH66jDMy4OsrJcGopWJCW3btkVBQUGsdu3aIUhRUVEsJSUllJWVxVJRUUGQqqoq7du3F0tNTQ1B6urqYmloaKCpqSmWlpYWgjp06IC2trZYOjo6COrYsaNYurq64jWWwjpLfX19sQwMDDA0NBSrU6dOCOrcubNYXbp0wcjISCxjY2MEmZiY0LVrV7FMTU0R1K1bN7HMzMzo3r27WD169EBQz5496dWrl1jm5uYIsrCwEKt3795YWlqK1adPHwRZWVlhbW0tlo2NDYL69hWg3RdbW1v69esnVlV41wfu+qBdG7CrwloC7KqgrgprCaRrgrouSD8L0LXBuSqYq8JZgHRVOAtglgC5LigLMK4NyLVBWQJiAcBVwbtu3ToECfCtKgHEtQFYAl8JdCWw9fX1FcNWAK6/v3+lqsK3JoAF4FaFrgS4EtAKsJVIgK4A3KrQrQu0EtjWhOz27dsrISsAtiZkBbhWBawErHXBtSZY64KqBKz1AVWAaU2g1gdSAaI1QSoAtCpEnwXQmvAUwCmBZ1VwSuBZHzQFYNaE5ovCUoBkVVAKkJSAsjZI1gfIqnCUALI+MApQrAlGAYhVoVgfEBs+DIuKIDf3pYGYvG0b8Zs3Ex8WRnxQEJGuGzgxdy3Hpq7mxOTlHBvnyLHRizg5Yh7H7ObQz3gHBgZ/oKe3GyUlY9TUJqOntxMDg/3VZGx8EHPzPxkw4G+GDz/KhAnHmTPnNE5O/+Dicp4NGy4SHHyFLVuusXPnTX79NYq//rrL2bPRREbe5969+MpKJGlx1TxKKteLHiUtthc5Slp3L3qUVPYXPUpajy96lLQ2X+QoaZm+6FHysL7oUXiwX0ZVW8vP+3+J83jeo6T1/bJHSav9RY6SFv6LHiXO70WPkijiRY+SiONFjhJn/KLHqhHNi/xf4uxf9ChESy8qSXT1okdJNPaiRyF6e1EJgHsR1Rm2vYEPXj0yFIngZYBYc3Pvilmm6YFbiF4VQtRif27P8+bubHeippWPIV4Z48xg0/I3VLzRt1a8gYKQ3kJqAakFpBaQWuDtWeDVYSj08/6LQEwL28Ztl03cXh5cDYhXJruztM9OzLqckU6geXv1RXpnqQWkFpBa4L20wKvDUDCLAEQJFAUwlpaWq6QEiovLJUSPEhUWQkFBufLzQZAw9piby+7vYhnZ7x+su53CuttJrE1PYmN6AiuTE5h2PkunTuelMPwXq6Iw7igZn5Uey8eppXaQ2kGYCCP992FZ4N+B4b9os23bHmJpeUUMPMmLems7SrtJ/x2jC+OgwiSj3393IDZ2vVRSG3zwdUBLq9XLvbTg33kkpVd5SxaQwvCXFA4fzuDUqSyuXs0hJiaf1NQicnNLxG+kf0vl8kZvW/7GEmdgk1RSG3zwdUBPr60Uhm/UA70bN5PCUArDitd3SWEobQxIG0NCHZDC8N2A05tOhRSGUhhKYSiNBj/4aLBqQ0gKwzeNoXfjfu8cDFNSioiMzOXKlZx6dfJkIt26mePg4MyxY3FPfVfo8rx2LYd79/J5+LCItLRi0tOLycwsISurhOzsEnJySsnLKyU/v5SCAhFFRcLrmkSUlpaJu0jf9iLQN1VFpN2k0oioKgw+9P9LYfimPM+7dZ93DoYiUZkYRgKQ6lN6eiYWFr1Zs8aNR49S6/yucL0PBWovW7XqhmE4abeXcfyMC4nZIZSWbaIoZR1XLyznzJmlT+lStA/5ReGvLcoQZXsTc3cdCRnBFJdGvLb71AeDgvsL+TpiFucT/CkU1Q7RovwQikXhlNUScYrSlhLsaMm675y4/zgEUS3feXL/cLLiXLh8zZ3U/FBK6/1u7Wl5cq2393nBIy+Ss0MprsNe1dJYFExBcTiisreXXikMX9aTNOzfvXMwfF5zCrtCCFs8CfsMCjtSSP+9vAXqhmEwR9boYDJmKGdj/SgtC+fBD+b0MmyDbmclTExVMBVLER1VGcwWzyTqYXAVCISRcMWJ87c8ySwMe4bjf7bzyzvYD2vj9kz7xpnE7NcHXQpc2Bs8lA3fOhKfUQEsUSC3/l7IuYtzcB+jTg/7oRy650fBUw4+kIMuBtgO68PWixvILqkC7bz1XLu6mj/DLBls1A7r2WM4HhdQJ1QhmKNrO2JqP5TTsX6UvOMwLL41E48lPRhv34XhdrrYWqpj2qk16koy6I8Yzl+xfhQ+A3LZBwdgZ2vI4q0rScoOq1KXnl0/qkH1FWwlheHL+5KG/MsGC0Mh2hMgKGx7JI38Xq0K1gfDg44qqA8cxKloP0oJJ+5rE/R0O+F1cAVR8V48eODFg9iFuFrLYTJ7CpFJVWBY6sH2WWoYWvTmp5sbyXsKHC/m4HL3WtBJqQ0TvnXmQW4VyLyC46vVgWbNZqFZa7rNmc6N5Ir8FKzj52V69LTtRfCuCTgN02PJ9lVPQ7l4JRv6yaM+YAjHo/0oKZOkM5z0E8MY00sFy4mD+e6HUazzm82VpACKBUCUruP7JYbYr5nN7UcSGwZz0EkF9QEDORntWxEZhhHzU38mz7Dj93s+5D0DLuL8lQaTHr+GC8cc2LVlNBtcrJgzyZgV37uQ/DgcRH786WPBnMXD2X/P96XLqTTFAbexevS10WX42G7Mnt8Nmw6f83kTOezc53AjPVjcu1CrzcVlGMqFDR3RUtfF47g7GSURLwXD4nR3zh2cztehI/HZOJyAiMnsPeHGo7zQ52qQSWH4av6kof66wcKwoRr8XUz388DwdBUYdlT4HNm2zVBSaYGKIOWmyDT6CI1pNWBY5IirhSztBw7jTKy/2BGWPlrDiQMz2f71GAJ97HBztsFpkQVzZ/dgxuyh7LvnQ24d0BTDULktk75bTeLrhGHmTGYbyGA4fdoTuIvCyE1ZyZY5WvQYP4w/zq3hYXYIJSIJ7MrBXhoznvG6Lei9cgF3U0OrOPNgYo858NtOOyb3UcR8/iRO3/WloDSCMgFoxS4EDm1Dd4cq96QChgOrwjCU6wEG6HU354dI7woYhpMW5cSBnyezOXg46136snC2GWNH6GFjoYJhh5YotW2CvFxjZFs1R1Nfie7mHZjkv4T49FAoWcfmcQq0t7DmwG0fimoBbHHcYkIXmjJ/kyP3M6rm60mDpqw0mMyUjTx8uJGUVA+O+3XBUFEW29UzuZwQSLHoGXArdeer8W1R7W3Lobu+1dJRELec05Ebyc6vp0dA5MelrdYMNZFDQf5z5NvKoKragnatvkCuVXMM7Aby6y1f8kqfpLk2MEth+C56qdefJikMX7+N3/k7PA3DUG7tH4efZ38mdm9GCy0tpi2wwf27JZzx7URHHX1W/TCPExdWcvHiSi6em46jeUuMakSGokfTmGEgg/GcGZURVvZvNvTWa4Fc66Yoq7Wio4Eixqbt6dFTHfM+FnxzfQOPSzchynTj+O8z+H7rRL7+cizhoaPxnaFOuxZNMRnThxWuA3F17stSxz7Mn2uB1x43UnLqcZQvEj3WBkPh92Vh5CWt5kKkN4/zwyirjPokzjWcR7t70UVZAXuf6fz2txMX7m4ktyic4juTmNmzLZ3sBrH7T0cux/uTV1wFDsUuBAxphZnD9CcArgOG1/z00DHtxfeVMAwjarMppppNkGnxBYrqbTE212HYuO5MGtQOhab/pVHrdgxdYs++s2uIjt9AUvJGUh+HUCKMvRavwru/HIp9h3AmRugOl+TnybE01RGPQa1pp6SG425XHuXVZ+swEg8NYIh+K3rNnyhuCBU9C4RsQvRoJnO6yGBgP4ydvy3i5IV1PMoNpbR4LVtnqqHXpTN+RzzILKreACkHWjgJv1pjo9MEBSMT1m5bzNU764mL9yTu9nJ+cTNAT6EpJotmcvdRcL3jzVIYvvMu67UkUArD12LWhnXRp2EYzDFfU4b0UUGnzSd82lwG3U5KmM+fyEF3fXQUvqC1Sks0tOTREqsF8p9/jGaNyLD42kiGaMnQd91SotPLJ5SUpLkTedONO9GCo/Ii4cEGEhM3kJTkTXKyLzlF5ZMnSu5NYGo3edq0aERLuSYoKLdEre1nfPLxx8iqtkK/izJdzdrT07Q1ii0a09t1MffS/qUxprpgKABRFC4GSCUIS735Y303hlqpYmzYGrVWn/C///4/GjVrTEvZL2ilpMq8H1aTnOnDuSAjDJVlsV49l9spIdUnibwSDCMojFvJkaNOXIhcR2ycF4lJG4k9MpRRhs1R6WZG0IHVxKUFUSh0PdaEXZETbn1k0Rppz6X4gFq7EstKQ3j490Bs1b+gTTdr9kb5UFDzOuIGRzgZ5+yZ3K0VxhNGcfh2RfQr/uwJXCUAS/pjMFOGatHNWIGOal/Q5H//x8eNPqNFy8/F0ZzpvKlcT/Yn5dwo7A1lULcewB/3fJ++d6k7Wya2o20bdVb86kxCThilZRWNDVE4+bETmNCxCbKWQ7ga4yeFYcNyUW8ktVIYvhEzv9s3eRqGERRk+fAwyZ3vZ7dDxcqaX8+4cPeeO/cuLeL3PTP56acZ1bRr1wz2HV/N3fveZOQJjmgThcf6Y67WGvuIVSRkl7fmy0ThlApRgsRR1eokN1FWuJG711dz/eZaomM8uB+3niPrOqLeuj0LflrK9bhyiCactGOgRhPMVy7iTuq/CcNmyCkqM2zuEL455EJSTmitERNl/pyI6Mui+RY4LTehR7vGaAwawLe/OXL+1FQWmcvSccJYriQEUJS1imB7BZTUdPE8sp6MqhFOBQwV5Jui0l4OTU15NDXlUJD5iI8/b4yiqmzFOXmU5f7HZ5pmbK+MDDdRVhpGUXFYhW2FMUh3ts5QQcvEjE3H1pJWIDQyaouoNkHhYpx7yaI3fgJXHwTWCkMBXqICT36ap4piy+YM8nXifubT9s69MYX5lnK0bt+ekdPNWbjIkiVL++MVOp3jd3zE0fCTrskIsk6MZcWi3sx3smFCj+a00NDD9du5nDjvxA+L1FHr2JWIK148LvLnUnAX9JVkGeC5mJiaXbWlnvz9pR1u3tO4mBRQrYs1L86Jbxw7oCbTiE7zZ3HnYYgUhu+2S3orqZPC8K2Y/d266dMwlLTgg5FMoDl915Vdi7XopNaEVvJfIF+bWjelTTslHH5cQ3JeBAV/WGKkqsTMH11Iyq/DEdcBQ8oiKC0NR1QBTghgv6MqKh2MiLjsRXbFuGJJlD0jtJtiIYZhMFHfWzNmoCY9e6q9mCxM8DnqQXphBIgjw2a0bNYYmWaNaCHXlPadtJm8ejx/RfmQV3WGKOEUZPuTkeFH8qF+9FZry9jw5cRmhlJa4s+vC5VR62PDwTvCWFwYaX/3x0qtGfozpnA9KegJeCpgqGNuzKKVg/DwtMPTcxDTzGVoqaPNbKf+rBefG4zTKFW0zfvw862N5NcanW2i+OYYRum1ZrDHIu6kh1aPQmvavHABy81a0mnqZK4lVklTze+VhZN9chA2ao1pYdaXA3dqjOvdm8XyAa2R/+y/fK7Qll4DOjNuoikTRuthYSiLkqYa0yKcSMh6MuYoKggkM8OPjOQFrOoti97YMfwT609xaRiZv1pioqbF8oNrSSmKoDhtES5Wsijod2f7de/qY8tlYRTkBPI4u3zZjRD9irLXsj+gF/0MWtCqlSw9pwznQJQP+c9YliPtJn23/NObSo0Uhm/K0u/wfZ4LhtFexJyfz76fp7NpSQc0VNszxd2eb3ZMZ+fOKto1l3/uB5BfEkH2HnMMlVWZv2cNDwteEIY1HXH2YlZbyqLcdwgnYoRZmuXAFsOwQzMsVi3mXmoIUdv6MMpWnW6mqpi+iLp3YcPf60mrhKEMemNG8/v+WXzt3pMBnWWQa9EYeWUFbOeM5dQD/2rRh7AM4sx6HbR0uxB23pPHYocbwlFnddTNzNl9w1vctSfKdyV0dGsU1DoRck74Xnk+irM8uX5uOddjvUnLCiQ7W5APexco0962H4eueZApPhdIZqond++s5+Hj4Kcm8Eiiruxfe2OkqsXyP9eSUvwM2xcuZGUPWQynTOJqfTBkE2W5y/HsL4tscxWWH1hLakV0WxTngOsQBRTaKjBi9WSORa7nwUMfUlJ9SUnZSFLMUr6cpYZmB13cD7uTXjUqZhP5Z4Zgq9UG+7AVxD0u71IvPNqPXuqqzNvtSrJQf0TB3AjtQkcFWUaELCdemAlbs55U/h3Keb9OdFFpjr6dNV8dXk1sSmDt3cSVvykvCykM32Fn9RqTJoXhazRuQ7n0s2E4kL9OLuLCrQ3EHLdnWrfmNPnfR3wh0xjZGhFiGwtbDtzxEa8ny91jgaGyCnN/eVUYhpPwkzmmSjL081xCTMaT7rni6yOx02pKH1cnotPCKc7xI+Wht3gMUhiHfG4l+5BVUD7OVB4Zls8mvZ7gT162HykP1nD0u0FMsWhNp0njuZAQWL3b9PEinC3l0B07lvPxks9C+GtFe9S6W7Dn5sbyca6yUKKF5SkKLRgWvKLCoYdxe0tLVL+7AAAgAElEQVR3zG378OONqhFPbbNJN0HBYtYNUmOMlyOx6WG1ACGctB97oK/aEbdT7qQ/Y/YkRU6s6S2Hjv1YLsdXdJMWBFMgCn8SuUqAURbEcRdN2ss0oo+HE7EZ4RTHzWftsHYoqqgx/+sl3HkU9PTM0bIwcu6OZ6JBS3qvmMe9lNAq6Q7gL2dN1HWN2XTek+yKyK3wr750V2tfpTEVQVH0BMbrNUN12Ggu1DG+WQ7IAPY4KKLcpRtbzqwjQzwW/YxGQUUepTBsKJ7r302nFIb/rj0b5NXqgmHxY3e+naZA2zZNUGzTDHUjVTq3b4aamREOEzRoLyeH1QxzhnRqSltjQ+yMmtLKagDH7/mKI7f833rTWUWJmTtdK7pJw3l0dAyeYfO4lhxUvr5O4mTrOZYmzWOVjRzyOqZ8c9GLnCrdXEVnB2OtLsNA7xXEZtYXKUi6fp/jWNsEmrJwivMDSX/owf3kQAqqzgQlnId7e9NNVYGJW1bxIEey+0wAvzi0Q6W3DYcqlyxEUHx/Nhud7dh+woOsAiHNYUQGGYpniG6P3FBl7WAdMMyfxxITWQauLW8APB0dRVBwrB/magpM+Lo8PU9/p4odSlbjP0QeZdvBnBZmkxLClWAzRs8dzeH7fjUmq0SQtscKWwstJgY6kpARRPQuC3obajH/ayfu3FxI8Dw9TDu2pot1dwIOryNDnEdhHHgFXv3kMZw0gRsPgiphKHo4mwXdWmIwcSKXHgRVduk+/sWcziqaLDvkJu4mFfJQVuzBno398NruSFxWfTv4hJOZsIbI217iRs6L7GgjhWGDdGOvnGgpDF/ZhA3/Ak/DMIQrX/akb+eWyMs2Q9/aFOeIufyy0ZypS0eyfdtQppvL09FuCL9st6W/divsvGbhMbIN2qOGc/6+vziiyD9ohamqAlO2VawLFAVwLsgYE7XmaJgaMtfNnu/3zOOvY0s4ccJRrJP/uJFcdbJKjgtb56ijKivHyIAlxGRVHf8KJ+2nnuKF+JO2/otrD2uDYSWsKyb/VB2rK3Ilwl4BZRNzdl3bwMM0PwpKwigrXo3foFZoDRvJhfsBlU5eWI+XnRVInrArj3hSSwUMu5lXWS4hwKp+GA6qmKVbG+jKspbgai2Pes/e7LjiTW6VBsRT3y/z5afZiih16MKmi15kJTmw1LwlipYD+LPGej/ht6I8fx49rFiaIYqgOGcDd26vJzXbnxOeenS1MsPrqwn4zNTEoJcF269WRLuFjqyxlMVk1jRuJUmWN4RyI8IIfWUVHHa5kPTQl4yCMErKwrjqp4eWliH+FzzIkqznLAsnPzuA7LxQcRdxbVvelecvlKyHXsTHe/O46MV2P5LCsOH7tJfJgRSGL2O19+w3T8MwgrRDI1npPpofj7kQk+RLVl4wD0+NZ8UkLQzVWtLJzpYtP4xknk0r1C2s+emKE34jWmM07cmMxPLZpPKMCl9FvDCbtCycgqz1nNrajzE95GjTshEtWnyOrNznyMl9IVYr/R5si9wgnhxRmraCr+ZooiH7BcZzJnI2LkC852f2vWUc+Wshh36fgsuQ1sgrdMT79Hoyq01sqRL5VILsOc/VC8Oa1wgn5UBfLNVb0MdlPreuzGSZnTajnUbw1UYzzJSbYem66BnLPiSRYQ+++WctD7MCePxYkA97hQk4tv3486oHGeJzATxOmcV8o5YMrAeGwvha3O+29NVujkonXeZ6TuLgpfWk5QkArpmHMOJ/7ImxclN0rDphZ96KVi1aM27TMuKELdGe+n7N30dUTHQK4o/FqnQZN5JT93zIjJnCDJN2jPFfRlxmMHF7+2DevjVjI1aQULGdnihlHiuEseA+/Tl0azW7lxnQd7QV/l8NY6qZDG0tB/DXPd/n7kWoBH3xSgLs26Pb0ZhNV714XMdGDpXfr1JHpDB8zxzcc2ZHCsPnNNT7/LWnYShMow8k83FQxabJwlhLBAVXp+LhMgCvwFF4L+uKlb4Mip2M8T3gRmrGYlwt5ei5cDY3H4aId14pOm+HrYYMAzYIsyslXZjhFOcFkJrswfUTc9mxZQwBPsPYsGGoWN6hc7j6KJCi7BUEjVdBtUVTTGeN4aiwtkzYrYVwUnb3ppeuDHItG/HF503otmAKV5KDqo/hVXFutTm8es+9CAyzl+MztA1ttE3YdM6T7KzVfDtHA83WnyPT9H/I6Jvx5Tmv6nuUPpW2chh2aNOYFvJNaavQHAWxmiH7xX/576efIteqacU54bPP+fzjjzB3K1+/WXteIigt8CNq/whm27RBUV5Yt9cURVV5DGz6sud21a3cIijNduUHR206tPqURk1ksFo6hYsPAuucoFP7PcNI2tcHC31VRq4az4EzDqztL4eujRlLZhrSXUMG/dHDOXzXj0JxpBfIPz6G6LZpxbhNy4nP9ufat72w0GyCrMynNJZRYOqXK3jwMnuUFjsTPlUbU9MebLm+oXL2ce3prg53KQzfZ29Xd96kMKzbNh/MJ7XBsDanURw5mUXDVNFs1wT5tq2wmDiY3efc+MPTCCsjGWQaN8Uu6MlswNIkR7YFjuT7k15kPjWbNAJRcSgFeUHk5EhmTwaSkxsifiNFmSiYO3tH4bttIdfiAygSg1BwWhEUxy1lz45JfP3tVPHaxvspQeW/eQoy1Z1cbXmq9VzeMjY79mRpuBPxNdez1bxHiQ9X940jYvcqEjJDEQnbtqWv59LBaXy7dRbHb2wgq/BZb2Eoh6G2bgdmuQ0jdPM4NtencGuG6MkxzHu5eAJLrXkQpzOC0sJA0h95cP34LL72G4CTQ3dmec4m6lGNxkNZGPmZ3sTcWMmlSHcS0yuWKNTMb71/R1Ca783Zrf0YZ6mAmmITmn32f3z0WSMU9TSZ4DaFU9G+4pnG5dFmGKlX57ApYiaXxG8BiaA414/7l+az49tJ7DnuyoOsUPHaybrzWEcZl4WSnbax2kYOz3sNKQw/GNdXLaNSGFYzx4f5x/PCsCzdkS/X9Mdt40T2n19LfEogBSWhJJ6aRpifHd6b53I1KRBh6y3B8ZSVhpKXI4yN1bPgu07nGkFJQSA5wquLamzlJVy3ID+YvPwQCsWv+3m+WYLP6wwRhZKT6UdmTvneo3WPSwlbtIVTXBBErjATtTKdEZQUhZAvvMpJsvdonfksB3zuAxf+ubCGhDR/cvKCyatPuf6kJG4gJSu0fDu1eq9dfv3S4hDycgLEa/rShSUZlY2LqjCJoOqmCM9tr2r3jyiP/JM8uBu5kjOnlnLuqhsx8d6kPa4JWKFBFEKupAFU0R0rKikv39dSttXSWjXvT/4vheGH6QelMPwwy71arp8XhohCyBHGs3KCKarc1iuC0qJgcXSX88xJDU8czss52vf39wKESkrKGw31wvc5nPm7YdtysJaUSHbF+ZcbLK/RDlIYVnMPH8wfUhh+MEVdd0afG4av0QG9Gw78/YWt1L7PX7ZSGNbtK97nT6QwfJ9L9znzJoXh8ztKKVTef1tJYficjuM9+5oUhu9Zgb5odkaMGMEnn3yCurocghOQSmqDD70OfPLJR1y+fPlFHyXp9xu4BaQwbOAF+KrJj4qKEj/4wsP/Tkpdncv/+c8T7djxbqbzXbXfW0yXuvpu/vOf7ZXaseNMgym7/Pz8V320pL9vYBaQwrCBFdgHl1w9PfjPf55I2mJvMFVAT+8G//nPhUpdvpzXYNIuTeiHZwEpDD+8Mv8XciyCWyfgwBnIyIOyqpcsgAt/wfkYyCuu+sHL/V8Kw5ez2zvwq5eCoaiEu2ce8/ufuSQ8FlFarW6BKLOAUwczORZZRE5hjQ/fgTxLk9BwLSCFYcMtu7eY8iLwHw36BuB1GNILn6RF9BAWW8OCrZCY8+T8y/5PCsOXtdxb/91LwbBMRPTOeGy73sZhax6JOWVP2lqiEk5sjKanRSwhJwvJKpbC8K0X8nuUACkM36PCfHNZKYI1ltDiE1DqD4eiQdJKFyXCJH0YHwbxj189SVIYvroN39IVXgqGlFGUmoPfyBtomsWx9XIxOaVCBsrIPP2QkZ1v0N85gyvJpZSUSWH4lor2vbytFIbvZbG+7kxVwNC4N2i1A7v1EJ1e3l1aGwwzb8MPQbBqBbgHwakYyC95vkRKYfh8dnoHv/VyMBS4JyL11ENGGEbSY156Ofgyc/C3v4nhwET2Xi0mv0SIGMvIiclmV1gyq1c8YF1gOqeiS8Sfic2RV8TZX1LxWfOAlS7JROzJJb6Wrtd30HTSJL0FC0hh+BaM3vBvWQFDy4UQNAv0DGH9ofLu0powfHgUJlmCuR04LIRxNtDFGrb8A9nPMaYohWGDrS4vDUOBh4XFnPS+h0GHKBbvyuEP72iMO9/F7dd8HuWXUVZWRuaFFOb2j6LPsFjmO8Uzc2gU3frF892FIrKLijm4NhrrftHMWpLAyoUxWHa5xbiAbO5niJ50vTZY60oT/m9bQArDf9uiH8T1KmBotRwuXwLnfmA4tLy7NP9BlW7SNAi1h25jYO9ZiE+E+9dgcR+wWAQ3k0FUw2B79sCCBTBtWrlkZJ7MJBVmldrZlZ9fuRKSkkDaVVbDgG/3z6++SmXOnDimTbuPjMzlypmkwqxSO7t74vPCZz4+D0lNra93oIzCR9l42t2gY/coOitHYueeSWRKxaSa0gK2Tr9Fz/HJ/Hq2gISkIuKjMnHuf4N+KzO4HZ+Fs8UNBqzI4GxUEcmJBewPesDqL7O5ny56qtq9XatJ7/4uWEAKw3ehFBpcGqrA8PZDiD8A/fRg6Hq4e/0JDGOvw0RDmBgOcY8rZp2K4IgzaFvD/ttPxholNjh/Hjp2hMaNy/V//1cdhp99Vn5+6VJISZHCUGK3d+T4888ZaGhcp3HjS/zf/z1ZViHA8LPPLorPC58FBT0iK0s8GFh3ystEJB9LYkCHK6jaJPJbZDEFFdNLRSkZzOlyDa2u9xg/PY558+KY53CffnpXkLdK4vjtXLbNuoW29k2sRsWx2j+NPUfzuJtcSqG4i7Xu20o/+TAtIIXhh1nur5jrqjBMgdJ8OOAC+obgvg0GdyifQBN7FobpgMOPkFRlEfNVX9DuBbtvQH6NSRAFBTBxIjRqVB2CVdcatmwJR49C8XN0s75iTqU/fzELZGaWYG19h48/vlgtKqy63rBDh+sIaw5La66bqOVWoseZLDC6Rs/Fmdx89KR7s/R+CmN1r2M6LI6lLkm4u5drjfMDVgZlcSe1hIz4XPaEJuIw9i7mnSPR7HCTgasyiEwp5RkYriUl0lPvuwWkMHzfS/i15K8GDAWe5SeAS38w6AVqzWB0KMRFw6wuMMwbYjKeRIZ7F4BWfzh6D0pqwFBI7/HjoKxcNwznzIHkZGlU+FrK9tUuKozlbduWRps2V+uEoadnEhkZ9XWRVklDfhaOXa/TZ0UWt1OewLAsK5OFJtcxX5DO2VtFpKQUk5JSyOmfU/lqby6JD/I59XsWJyILiIkt5E5kLr+svIO2fiwRV4p4XLN7vsotpf/9MC0gheGHWe6vmOtaYCiMwiQchP460PgjGBYK8RmwdzHomYLLNrh+F45/B7baMNAD7lXMQK2ZGiE6nDSp9uhQGhXWtNY797cQHdrY1B4ddugQ+dxRoThjdcAQUTEHV9xGt9NdlkRkceVuAZd/S2Jcj1uM3PCYmJgs3IdGMWheCvuvFJIYl8euRVGoGcXxfWQxebW0wd45Q0oT9EYtIIXhGzX3+3Kz2mAIiPLhoAuotayA4WPIuQ+bl4JNNxBmhnYxg7Er4aSwNrGezqoTJ2qPDqVR4TtfiYTocPv22qNDT8/k548KhZzWBUPKyE3IZsvKGGzNbqCnG4l+l1sMmP2Q/TeKySss4dbeJKYPvo2xwQ30DG9iZhXNqm054uUVIikM3/l69KYTKIXhm7b4e3E/ESTfg3uJUFBS0f1ZkbH8FLh1HWJToUiAnQgeP4S7N+HqVbh+C+JToLDG72rapbboUIgKjx2TjhXWtNU7+Hdt0eELR4VCvkSlJN7O515SLRNfRCKyU4q4dyufq1fyuCp0iSaVkF9cvvSiJK+EB9EFRF7L48rVfG7eKSQlW0SJlITvYI15+0mSwvDtl4E0BXVZoGZ0KI0K67LUO3e+tujwhaPCdy5X0gS9zxaQwvB9Lt2Gnreq0aE0KmxwpVk1OnypqLDB5Via4IZsASkMG3LpfQhpF6JDFRWQRoUNrrSrRodeXi84VtjgcitNcEO3wGuFofAWdT09PamkNnj5OqCpid7//oeenBx6Ojovf513pAyElym/jn/v6rOmotKRjz7SQEFBh44dpb5A6g9fTx04L2zW8Yr/XisMhYLfsWMaly87SyW1wQddB9TV5dixYwev6w3q0mdN6mM+VD/bqZMiR44ceUUUwmuHoVBAsEkqqQ0+6Dqgp9eWy5cvv/IDW9cFBBhKnzWpn/kQfW3PnupSGH6IBS/Nc8N0eFIYNsxykz5v7365SWEojbQ+6EiroTkpKQzffafa0OqUNL3ldUoKQykMpTBsQHVACkMpDKXwej114D2BYThZ6f4U5Kxi54aBhP7uRmpuOBDCtV1DWRsyh6hHgZSWPduIJfnBFIrCEb1NBykKIOHWam7c9yW/SMjHs9P9+r4TQmriRnKKwp5tE1Egj+67E5PoT0FxOGVvI92FnhzbPpHfLm/gcWFEHbYLJ/3aQn77awUxGcGUPEe9eHX7hpOV4Elqfmj5/Qo8uXRhHak5IeV2Fflw/cQSLtzxJqeobtu9XRiG8+jaQvb+vpTozCp2E/kTd8uN6ER/Ckueo76WrufPL+3ZddqLzLwwRGUR5XWlZCN3b7jz8HEoJaK3Wef/5XuXhlBQFI7oBfIkynTl6J9LuZkUSGFpXfW49nSKcjdyP8adxMxgikXVfytKX8Wfh51JyAyuxx8+7/MRTl6qJ7H31nI7yo2oKDfu3N9ITmEYxXkBZKb5kJLytFJT/SkuDqvj2aw9Ty///IWQluxDdkEopc/wRw0WhkXnRjN9iBamJsoYGythoK/CmLXWDNNtwxi/5dzPFB7KQH5zVKPT6GGci/UnN3EV/0R68zhf4mzCSb08nz17Z7Bt03BcHYyw6a7F1JAl3D4wjClDtOgqvr5wD2XMF0wRV87XDspCR7xGaDLFfxlxGa9eaUoTnfnrwGKuPAigoM4HK4w7+0awenEvpk81ZfyYztgN1Ma8myK6uu2ZFOJIXGZo/YDLX8Q6Ow1s5k3helLQs+H5jMpZ9wMQwq394wkMnMqZB/4UiJ1MODl3HDl6cRW/uptgbWNGwN/uZNQGRJE/B5w7YjrAmp8jN5Jfj5MqjV3Et8HDcF87iLVPaTBfHXYnPU8CgAAOe5kw0mkiVxIDqjx84Tw+P4aZfdvTZ5o9x+97cjKwK+adVRgbsERs16Ib45hioYTl3ElcSAysE9BvF4ah/OPTmR6jhnAk2pfiikaEKMMB54EajHCdx53UCrjXLFuRHxe+7ceKoAXcTljA2oE6OP6wmku7BjNr3nB+vbmR7LhpLOpviNP2VSTmSJ7Rf9s5vvnrFV60Z8YIIxy3riTpcVj9z1CF3XKPDGRwdz1W7HHlUb6kfj1f2otOD8O+TwfmfLuaxOwnvy1I3UjihQksHqaJzdh+fHfGk+zCJ59XPm/P/XyEcsbXiAGmrdDQkBOrw+BBHLzhycUtFgztpYC2dqunpW/MufNrXwiGJQnz8XXsg+vmhdxOC67ybElsEkb0gTGscxL8VzcmiP2XDhZmSujptmecz3yiUkLqtX2DhWHBnzaYqbdngs9EdoR0p6tiK0ZtsGWAmgyGNt1ZsGwAfrsdiZjYhva9TVm1yJQhZm3QNrfipxsbyRM7wDBube5GTxNVeg/qzIQZFix1G8n2I2tI+Lk3Xdu3w2pab5xW98W+a1MUBpVD9XlhKCrw58EdZ079OZvvvxyFp4s1c2cO4qdbG8kuLS/E0pgZrJ7UnQ1/rCMlv6IVlz8fJ1NZBrg5Ep1WUVlLPfjVw5yFAQuISQuupVDDSb44j12/LOF2elCloxIqeN7B/tj2MCXgvAeZdcIwnIe/DWDsYG2sBxgwemJ3Zk/QQqvl//iivS6uv7iQmveMBzl3NvM6yaA7fiJXHrxOGAawz1EDg14W7LrpTZ7YKYcQvdeWkTaGLAyaQuhCQ4Yun8bVpMCnH5zsxTj3lqfr9PEcueRG1LUVHD84mx0/O3IvI6gaiIoujWP+GD0szZXRVmyKio4SZj01sLDQxMKiAzNDF3Hu0hpiHwVRVOzLrlnt0B01gvP3/as0BiIoyVjJ5snKaHQ2Juj4euKvTGZuTwUsF07hcpIHh1w7oKmmxYqfnUkWGmt1RKtvF4YhHHfVRNPalkO3fSiqSGPxBTv6abbBPnQ5cY/rgFhZKLE/WWBpbIjHHxOY3V0Nh6+nsnpwOwxHDOd4jD85JwfQR98A9yPrSCuuiBZrQvV1/S34gzpsXgmJl7p3CBc26qGt1J4le115VPA8+Qrl8kZdtI1M+eqCJzl1PrMSEFQ/Fp0eRB91eUaGrCT+cYX/EHnz++ouDBrajVVB9nguMGPpluUk1NbAfe7nI4yH1xZxYM90fvxxmli7Dq0iIcOfMxsN6WFrwhK34YR49GHy2O4sXjsU//Xd6KGpz5njLs8Nw9K0tVy9tpI/wmywt2iP7Wx7jkT7UVitvMJJOTSUGSM6Yt3PgFETzJg1URvdNp/SREWbpduWk5hdv/9qsDDMP2SNqbo2q/504XS4MQadjAg+NIJxejKoaCpj1qsD9utn4je6Fe3aNMfAXJ+py0aw44gryTmhFV0EYVwPNEDb2ITAgyu4neDNozR/svNCyf2jDyZqHVl5YBV3Uzz4blpbNIcO5VysD4+zAsXdQWUiP+7+s5Dfdk7iy5AReLrZ4ji/B5PHdmKQjTpdO7Whg4YsKkrNUdFoQxdTdSysTQk47kF6RcRSfH0Uw/TUcNjhQlJedRgOXFsFhsUuBA5XoMe8qUQmBdUCw1BOexvSfeRgjt570moXHuTcvRZ0UtfH4+x6MuqMgiIoeewt7l65F+NB3O2F+I5RRElNC6dtS4lOD6G0RpfLU06iAoZ6kyZxLfF1wtCfn2YroGRoxo5ICQzDKcj04ERYD6wtzfD7dQkXY33JLQrh1s92OM7qiv2oTtgN1qWveVsUvviIxi1lUFOXR0OtJSoqLVA36cX2G97kVLGRKM+X+Bh3bp8fhb2OLLYrZnDkght37qzlzp113L81Dcf+HVn4zWoSs3zYOVOBjqNHcOF+gBiGRXcXsW3TKHw2DmG1gzGjxvVkicsQvDwHsGhGN2Yt7Mta1x5YaXyOnHZHZiwbxIaNw/DbIrSAq4NZsPdbgWGJN5HHF7J/3yy8x7RBoXMX3COmsOe3JUQ+9Od6hBG66hos+MaBE5dWc/Vqha65cj8tiKLSCEoSVrDv24HMnGzJOl8rBmq3wnaOLQvs9Rm72I6vD6/hXEAn9LoasX7bbP464cgJQadWci8tmKIqZfJUvXsKUmHcOzQO33W2rFhmxZLFliyYb87c2T2YMc2MyZO6Mn6sEfajOjN8qD6DB2pj0a8nEcfXk1lbT8JT168On/rSI8pYiIuVLLLtVBi3uD+eG4fh41Muj5U2eP28iqTsUMoKvLn1zxL+2j+XvbvHs6hPS1p3UGeEfWfshvdl5y1vMm5NxXlub5ZvmMShqxvq7E4vuTaCwVpyDPNfyf2sCp9SFkrG3UVscTamT+9u+P62lJsPgygqCX3J5yOc9L9HMGeMLlZ9NLG0rJCVNqPXTGPLQm0spw5j36k1xOwbwNBB5gTsW0bURXsmmBlx4blhGErsH0OY1F+LARNtCQofzsZvF3M7KahGN28EpdkbiY915170euJuLyZ4qhoaGhrM27SIWynBlDzDfzVwGOqw+q/FBE9RwmTiGM5en8hMQzn6Lp3BkYtriUn24sdZCqj1sWTn0dUkJCzlp00T2X95I9lFQiWpgKGuFtNW2xEQak/olnlcTw0k49fedFHXEwMkXRTAHod2aNrZcfb2IoKn6jMr2In4VFe2zNDEQLUpbZVaot1JBYt+BoyZbEJ/g6Y0+d/HyOt1ZI73VA6dWca5Sy5E3fEgJUcYEymvpMXXRzJEpz0OP7qQVCMyrA7D1fgNboXpnClEJtUWGYZwdLU6Gja2HL7jUy0yrIThP/XBsMoDXurN315dMNZVY1b4Im6nhVBaVvFQSRyDyJ+7Zxbw60/T+GH7ZL79ZgJfhpjTW6kRCt26stzNDm+vwaxb059Vy61ZFuDA3dSgp6M0yfVe6FgbDIX0R1CU5c7pY8u5L46OhVZ4OPEHRrB8kTlz5/dh2TIz+qg3pmVHfZZ4jGbrj7P47dASTp9fxZUbHqTlSxpKVezBJooqop/+S0ax5cdZ7Nkzm8NXvMi6P4mp+m0ZG7ySuMynYVh4bQYbXW1YML838+f1YrR5a1RU29FvfHdmz7Ng/vzezBunjqpMYzQtOjN5Vvm5ReuncyU5oFo5vjUY5szHpb8KHZWb07rpf/n400+Rb9sMpfbauO53wHN4W1p9/gkt28mgqiaLmkTqisz81oXE7AjyL0xi1XxTRo7owpBerWj1+Ud8LtsKUysdhowyYk7AVDyHtqatzGfIKzRHWaWFuIGioqbFqj/WklJQo/7VW19CuRrcBSP1L5Bp0Rj51k1RVGmJhlZrdA3aYdRVle69NLGy6Uj/Xq1p0/xjPm4kx8jAxcRlPWMooN77Vq8zEEzkl13p0vZj/vvRxzRt3oiWLRtXqkWzz2ipqs2aA+tISZ7Lyn4qaCs1p51CE5o1+ojmiq3o0kOLwWP7syvSm6QLU1g1sQMG6i1pr9kO8+EWhP7tQUYN25TGjmeMTgsGeCwjJqNKN6golOxH67l60ZXEx8KYr2DTl30+Isg6NwWPVX1wcDCvIguWR8zjB6nk/S8AACAASURBVCcdrGYMYc00fWwNmtDki8YoqLVjorMFffSN64ahKIi4s3P4/psp7L/oSWZBGAWZG7h+aAyOI7UZsXIyx6N8y4ORusqidCMnAs3o1UmNKb5zufbw2SAUnq0GD0Pnn4Zib6zK1M0riH8wndmGcljPHUmQ7xBW+k3DZ5Qcyj17sHnPQs4cGoq9kSKTwpyJF7eYymHYQbE57XXa0qmzIkZWVvx4fjFfzmmPSucefH99A3llQRxwVEFFSZbOxq1pJ6/A7O9Xk5QbyN0Tc/lt/0JOXXDm+k037kS7csCrC12UZDCZYMfuM24kZgSTd2cqjmNNWOTvwM3UJ5MP/h0YhlNS4Mf+pe1R69WLL/cu4PjxRRz4bRY7v59E2DxNlOTaYDPDgiVLrVjo0IslYYuJS68FqiJ/Ln3Vi976yozZMIdryUGV4K7WAi51Z+tsTQzaN6Ntu+aoqsmhoyNDi0//H43lZdHrrIJZd3V6WbRHX7UJrawGcjzat1oXZLXr1VWxaz1fFwwFZxROcVGYOIotn8ATQXG2L8lJG0hM8uB0aFeMVNow2n8RN5MCyM0PobBYmNwQUWfXJIRyPagTOq0+pVmrZigqt0BJsQXmy+cSdW08U/QVGBeyqlYYivL9eZS8gQcPvLh7ZDj2hs3RGWHH7+fdiEvwEp+PvTqT5dbytO9mRvCBVdyJ8+LBQ3/yhUlI1bqC3lJkWBpAwm1Xrl1agu+oVrQx6kbY3sWcv7KGyN/701ezMY07dGZd2CR++mU6rkPkaKWmjWPQFI7fCyCvOAJRri8P4t259PMghut/QaOPPqLxF5+i0rsXQb+t4MapMYzTb4bGgP5s/WUBBz0M0VBSZ/aXc7mcEkTRM1r11etSBHmJrly6uJKLl5zFkeq1665E3ljDrVtuRN1ey5277kRHLcTXXoHWjT9Be9xI/rzlQ0HJ83Rj1oRe7X/n35zELDMZ2nXtgf+PDvx93JHjEv09ntmmzZFRM+Kri17kFHlz7fhCDhyYzzfz1VBW1WbFzsVcvO1ObPxGsgqESSn+JMev49rJWYQ5d6N/z854/rWOtBrRbFnGDGYZtqDHorlEPQqhTBTMw5uO7I4YxOLFIzl4TxgmkuTz5Z+P0nw/LuwcxrrlvZk3z0Kshe6TOHbLg6OeBljNHMm+Iyu4stUc8x5GuHzrwKWzQmRYBwyLvTm92ZLBxnIotG6Kko4mMwLnE5UaTHFhAA+j13A7QejtqaMrXvAVogCubrdigLEKI92mcS4+8KlJRNXrypOya/AwXOHXHRMdLZy+HoPrLB20mn9Mk9byGPUxZMraqWxZooa6whe0VWyBqtLnNJVXx/mPtaSKK1BFZGhkjM+vS7h0Yw03by4hdJYm+h2UmRiwiOiMUERl4aRfnkGgmw1LFvXBJdyByOQgsZFLCoWZYk+cb2nsVOb1bI3xhJEcuOZNbnEYOTcXsu+wE3/vHMHCoVqMcHfgTmqwuBtNDMMOzWmn3hZDo/KJOsZG8rT+/L80U2iNfueKc8ZtUGz2P7SmVYkM85wInGZAb+N26Ou2RkVWaOE2oo2i0EKXo4MAeCNlTHWa8nmjJmh318RmgC4DB+oyas0s7j6q2ZUZRNQuGwboNUfNrBPTF9iwcmU/1niO5KtflnIvXWhhVVSesmASri7l1KmlnL+4iitXXbiyzxZr1S/oOmsSh864EhW1ltu35rPGVpZWvWz5+0717tu6KuWzz5fDsF2rlpiPs8L3h8XcfBj4DIcZSuKRYYw3aUYz2RZ0NtPEdmh31v+ymkc5krGEMB7HOXPptg+5BU9a1KLHjqzv3woNGxu2HXDi0onhjNRqSreFc7l5tX4YlucllEfnJuE0SAEFORlMBpswa545s6cZM9RWA2ODVnSx0aOHthwGlt3w+sWZh7m1z959K92kFQ0SUeYCVli0QLartXjMsDBrBcHjFFFq8T8+bduJkLPupOa4EjqqNcp9+vHnTW/yBbgIQC/ayIUdAxnTvS3GQwzoodyaUUttGGulQufBtnjNVUdD9mPk7UZzIdaX2C0m6OoZEXLBg6zS+hoqT5xZ1XpTJswIFzdw6oooA7m2pSc9VRvRrrcV35/3JOdfnAEtSl1KwARlFBXVWfzDChKyQykpCae0tFxF9yYwQb8pigOGcybWn9KycEqKQinKcyFsdFt0hgzlWIx/lZ4BYYLYEvbuns+lBGGG5gZi73rwqEovU2X+C5fjYSOHaq8erHO1ZtYwTbpot0RBvhFNW7TDYacryZIhmcrG5ss8H6Fc2mzOpCGa9OqpLo6sek8dybE7Xpz0NsRqxnC2b5vKj2s7YWigzVTnUezbP4zRpk/DUJS7jj82dMNcswlKJp1wcOzF0K6yKCq1oe/C8eIx5cKK8qx7lnoQd/cOZKRxS9S66jPJwZoVgv/yGMHmnxyJEsb1Jf6rMt9P6k+Dh6Hzb7PZMEmdXpMsWTzLglUeY9h1eBlXr89hzUgdRi4YwQ975nJgvwN/7J/P32fXkPg4pKKLoAKGhgasDJ/Cnj/msf/gEg7tGoLTnF4sXjkIL+/y/v2NngNxdrTA0WcW5+P8xdOdny6UMG5/aYyhji5rDq4htVBowYSRdNyeeXbaDJkxiG/3zedUlC854s82UQ7DVnQf0ZPFK/vj4tIfl1VdMVNohFbvbsxz6ld+ztkcO2N5ei6eya2HFRFd8Vr2BQxk9XJb1qwfgkNfWeQ7GeP7wzzOXHTm6jUXcWv4UogJOspaOP68hEtCizhmPbHJ/uKI6EkeQoj9fSAjOjfj808+QcFAg0GjTJg4yQR7Oy1MdFvTxbY3W85u4LG4izkCUUkYJaVC9FLeysw5aE13VXlGha0kXjKLrcSN0BGtaGtRAcPidexe050xQ3QZMKDjC2nQLHtOxvtRVFYOQ4WWnyEr9zmtFVqgaajBCIchbDu2jvR8CdwqKrrIj+u7+jPKRAbZ1q2xHG+Fm3s/pvRujYa1LbuPLODXb4eyeLwOpvryGEwcy8UEyWzQIK5u6koXhc/pNHMS5xODKLg5mmHaLejv4cS9mxOZWmdkGEbmPUe2r+uGjaE8Bv0t8XCzYsECc+bO7YqVdlPa9+iKk/totu5z5OwBexb0V0RToy09Rtryw2VvsourO/O3B8Nw4neZ003xEz6WacdEHweun7ZnrIkKo5eY0r29MrO/W82D+zNxMG5B17kziUyW9DyEk/h7PwaZKtFn+jD2/D2ZdQ7WhB9y5eblhfzyVT+G6cqgpdqUZuYD+OvuBk6u10arR29+vulNQY3ouNLp1+LQav2scD1nj5YvJyhfRhNO8pGhjO7cDHk9E/wPuZFaUBGFl7x6/SxIX8nX8zqgpSDPILdZXBW66aoNM4QRtdkY/TZNsfFYQkzGk/qa988wBusoMDp4KfeznpwXejzub+tJbxtLvo/cQG49Tj0/bgEufVvSsulnyMo2ob1+ewaM741r4GT2HV1JtBBpVZ2U89LPRxhJFxz45fuJfP31eLG27FnG/TQ/8QQaqxlDCXCzwWl6ZwYNMmTkOHN8v+rHYKPqMCxIcGTTIj06KX6BRl9LNh92If7RRu5fmIbL0HYot5XBYLANW097kCX2PU8A9qS8Q4j7cygTu7eg2Wef0EZXjX7DjZkwqSv2Q7Ux1W9DZ5tehB1xr5yv8eS35ddr8DBcfcSNqP22WHfRZ+VOJw7vHkeQ/zA2upvRS1kGI7teLF8zGA+PIXhsmMDhuz7klkgcTEU3aZvGtGzdlHaKzVHUNCboyHhWjNVCX7E5GnpKmJiq0q2bMnrtm9K2S3e+Oe9FTuU1qhZMIL8vUqZ9b2sOVM62i6Aox4f7l+YQsKI/X59aT2q+pKUbyuO4VRw7spTImA08SvUlLc2XtAczmGf0/9k7D6gor+1vZ63v/nNzc+1dpPdeBJUiNoqIYu8Ve0dRsCCiSJMivZpmEhNNM4nRqLHG2GMXAQsgIipSpEkfnm+9QxuKRI3eSDKsddbMnLedd5+99+/sduiCndtyLt0Jqu7LCuJ+4kauJvrztFiozRKy36IpzAkm60kw2blB7F+rirrtMA4lBlFWW7slmUDz3JhhNOmHxzLNrAvyBoa4xi7j7LUtJKf6kZbmR2qyF9cOTWaOZU+MJozjRKoASJLvLXwP56SnNupK2nif8CGnVonXgKHcEHuO3w2mosKTnatNGDZAGTOzl2sWk8dxLCWY0howVNQzJuCrBeyMsGeOnRzKMu2RU+nFgIm27DhfA9qiEM5E9MdKtzPatoMI+3E9iWlBZGV6cWCDNqq9OqCo3AVVbXn6D+2N4/JhBHy5lrS8KCqJIeOYoDQ7oaoni6aaDBbjhxK6wQgtWXkWf7WZjJQ5zwdDURAHNxlgbqLKhDWT+XLvSk6eWMmhg04c2D+dJRad0RvnwKc/ruL0OTcu/b6O8xdWsytgCJOmO7A3qdqdJSm0fxUYinJd2Tq6F73a/j/+X9v/0lO2B0Pmjibmq5XcTFtP2CQ5zBbO5FB0f8xUFVn4hQcZz2rdWXEUpbqy56slHDq5gTMfDmDgQDMC964j/s4WEq6sIHbzOD7x74t+3/58cHEdMbPl0Zs4gfP3BKupMa+9zO9YMvbaMdxUngEzxrIvcRsPz89g8ZDu9FDVZePXbjworJEnAVxfA38Wpq8ieI4B0z3nia0+IYGoftG5HVHOarbY96C7Sm8iTvuRX6tLREHsW6OBZl8LdgiuU0nAIpa72/ug368/n1zzb5DkVccfonCSfhrHPFtZFHp1w2KCFUG7VvL7DS/uPQgiOy+iOtYmCcx/Sj6EpD0ThvXpVh3fFZLQRjhwIN6P3wTLcNEk9vzkxNGDy9i7dyl7D7hy/dwUZlnWgmE06Sdn4DJWEeVu7TGeMpKvhCS/kur5qKqIIOv2KmKXaqIl2x6F3ga4fuxKam7j8p1oMk5MYv6Q7ijq6+EUuojfrngiTgSs0V/Xj0xjqa0cxmNGsu9mULMLrL8BGPrw5MlilpvKMSNiLZ+76tLXQptpcyyYM9OMuYsGs9zJCqfpmuir67DpsDdZdauLGsuwTx/8v13J2csbuXLNm8cFwWTcdWazvQxDls3g4JlNJJybzmyTrpgvnsPFdCHLrxZQJQRTFMxXC2VRGT6S08khDZJFqiojyX0USLakW6PSm51O+kxwX0TS42q3qZixa0orGiTQsJ3SU+OZam9J2FlfcmsFqG513DCBpvSJO/u/nEVc9BR8ZiohK2tAkFBa0WRFGU360XHMtOiGquVAog56kC4AQaMYjagshPiYvhiq6+DxiyQNq99flLGEVQO7oGQ3imN3Q+rdO0IW7NgeyNqM4FRyMJVVUeRm+JF8x1ucjSlkZL5ou3NvW3Xxfy0YCtmkN7aSkxdMRuoWzv80jQ3T1dA2NueD3/3JF5RJVQw5F+fgHzSHw1d8yX0WRvIJRzxmadFb8X3e+3dX7NdN44czG0m868eDx8HkFkSJXeCVqfNxtumJgpEZYT+v5ey+ySwZKoe6zHv8R7kvH1zyJz+jBTCsiiE7fh2nL3uS/NCdz9b2Y5S14E5SY+AARdS6vEt72Z70MVOt7htkwMbvPbmXEcj9+0Hkl0oo6Zp5/kvAUBTMb0HG9NZQxca8A13MzPF00qWPpiKOsetJz4sg+VML+hmqM8CgPT3MrfjmRiDFdTwUy71vhjLeRoW+feTRkf8vbTt2QE1PDgO9nugZyDN2sxPxl2Ywp586SyOEuGJPRmxx5m72n01oiaPsyQa+WK+PnkIntAfpM9S4C91llVm63YW7uY2Sw14Df1aWhfPkvh/pNZm0kkCIKISzISYYybTDzHmh2GqsBfuSG9OZbtydwWuWEJ8ZVb3grZPvWjC0fA4YRnLr66GMMu6Cen8ztu525XpqEE+fRTeR5TrwFO79J+SjijhyU9y5cGo1x46tErcTF7x4UhDOmQAhZjiRsNUmjLRSxqyfAgb9B7L9WwcmD6gFwzhyL81gobUqDk5TONBchqwomryHG9m71RRz5XZ0l5Vh6KLx7L0eSKF4wR3Nw5OTWWTdEw1zC4K+dyNV2Eijjvdq9FNZKImfWNJfTxvX7zaS0SjpSKDJ3wIMswpWsta8Ow5bnIlboIy6tRW7j7mRdMebOzUt4SsrLFQ0WLN/C5l1AedqMNTtP5jd8Vt58siLi0eX8M3RzWQXhJL4oTmW1oP55IIXp2PMMO3Xh+Bj3uSWNVzp1TFXVSTH3dVRMzbn06stuzLE11RsJmKcjDhD9EaGRLnEc8Cw+KAtpmr6bDnlQ3aDVaMw4Y3A8OECVgyWRblHW7q0ew/5YaM53KQ2R1gJ+7JntRbGQwYSdXgT8cdnsG66Dv0tNBnvPJ1fU2uL2uMoOT8Ge0155uzYyINCicWAKIgjXgboysgwffs60iTrecrW42vXDUUHoSxFsvZOYhFRJ/Av2tdcAk0clSXhZD3w4Ua8D9lF9VmhorJwcnIjKC305kCgBTYm8gyaaE3gGkM05bRw+8WTx8KcNrJAqp5tZnfgeD4/uplHRTFUlIaR8tVgzOTboO3oyOUHEVQ8agEM2U6V4EoWxzqiyL7vTVLCZm7e3MzNa4tZZ9UVo6nj+PHEBuKFvptbuJ8T1dCF1Yg2fwUYFp2fyETjrvSZO41tcxVRtR3GvvOufPfRHH69EyT2tFRkrsDNpjvd27RjqJ8zt3OEWHvtfMZRmr2VWwke/BZrQV9tLVZ9vJyTR8czWU+G0R4L+O1OGKXFvnyxQBkTgy506qWD9xFvcuoWrrX3eoXPqhgKM7dwOMwcC+U2tPm/d9Gf78i5e+FNlGadLDei++vpj+Le/hGM0W9H9z4D2XGh2sMkBktRAHvXaKChbcS2X314KiQd5ftwes9Mgn0d2LR5FG6TFOila8bHV5tahqLM5ay36YGS6UC2H9ssjjk3yQB/zju9qnxQ6ce3biaMHlS98Ymw+YnFjPEcS/Jl/0YdrBdPImCuBlYzHfhk2yCGDjAn5HN7JtaB4XaEJJx7t7aIwzYlz6strYqlOGcrF75yYKJJJ7p0aouSiQn+P3uSWejHvo2GWFj1J/DHDVz71ZHNc/UZ2F+TMcsncyhxG8/ENd1xlFyayCRjRWZEunInrz4noHZuWz0Yrg4bg/va3hj26MTYkDV8tFgZ5V7tUdHoiZ5er7qmq9KONu8rsKoODKO4d2YBW6fJ0VOmG0b9FDDS74GWviKjPZdxNyuSsqw1+E9UYeBwHfppKjAlwIlEcZnB8wQyjpyj9lhr9sBm7UKuZ7a05ZEARNVgaLFMIilGYNiWwFDdAO8zPuTUFO3XTmRjMCwvr85OO7BvGfsPu3L5jrClWtPsRKqiyEl251K8Pzm5awiepIad40giokYzz0YJuzULiX9cnWhTemok1hqKLNolURNJBAm7bbDTbIfG2HEcvh2CEOiuHZcoZxHLTDqjN8uR6w8kAP85gll7XcufzYFh/ZxUNZc4IQrmZFBfLPSVmeG/kNOJATzaa4OZmh6evwmLi/rr655dFU1BTqh4eylBsYty1hPtqIi8sjaeP28RZ/GJnixkxWB1lnzswYNm6gwpciV8UR9G2mhhbS3RrJTECSMd5GQws9TASvKYtQ6rdm7mYW3cVYJWfwUYVj52JmDtOPZc9Gb/Bo2aovtA8vKr622FBLOscxOYpN+W9//fv1AaOZp9iSGUNKbpMw+2C/Tr3g2rOcPxddbFoJ85289trXYVVkWT/LEpRrLv0cVmNMclPQwSNKibn5fqi6X0qT8XPh3CYOX36aigwcrPN/CoLnmqmfl/qfv/wfWiCO7uG8XUfp3orKDF+q82kCEkSdUsGESPV7JpuDxDnOdz5WEkFU/XE7NIG3MLLcZMNWXWNGNs9dvTtm0bNAYY4+Q/j1PJIeLsV4EeZWdHMVStPZZrVpCQKbkQ+YNx1b7jq8hHhSdRExUYs2QscbuX8ZWHEcYOw9hzYRVRjsoMW+VI2GIdrB1H8mnIYOwGWDQBQ2Hs4pyD5jxttWMTf8ZRXhRM6rl5eExUx2b+BA4kbKOkMoqn9zy4Ihgz2euInqvD8BnDCAofw+IRqgxb6cj5e9Xx/7Jz4xnbW4U5H6wluaBeR9XyU6sHw7UBNsyYZsiwCXZ8ccmHPS4qqA20JPYbJ347s5YzNe1kXH/6KKrjWgeGkRzbooeJwr95t2N3rKdb4RO7kMPnNnKrZo/F8icb+HihCopd/837CtqsE3YxEOILDSapIbOJCr35zlUbXdWeDJhsS+juVVxLC6G4ojZ+InF+rWW4yJELt4PILwijQGhZS3A27Yr9Rmeup4VW9xWEkfXDEPqqPh8Mz3priXc42X7Oj4KKWCrKoykrjaZMKB2QiCHWTn7dpyi2uhShyAkXC0WmhbiS9DCIhI8s6NfXjKjzW8kr8efn9Vqo6/Qh+vzWahekKITLO21xMGiPTJ/+xAgrWmEPxkJfLp1y5cTxlXzjZ4Jhz47Yb3VtkChQ9+wWaPn8c1oGw+auE+Uuw3VAN/QmTuTErZDqQvB7Lnzx4SLOPAhtcUs2IXmh8K4T2+aqo96zKyM2L+FGzUKnqiKUB3e9Sc+JpLwiuEnRPSWb+D50FO6utri4SLTVFlirt0HOxIDZS6waHnOxI+aIHzlNMv7+qtKKSLIzQygqi+DXxjvQiEJJ+mkMjgO6IW9kwspFOhiqdkXfdhCRh73Iqdv6cDui3A184m6Pf+QYlo9RRKOHsLuRDmu/dONxYSipx6aweFBXZLq8x/td5ZketILbghuzlkdK3NnlOwyfnW48youuW3A1N9/N9wllBAFc/EwAxLb0UNfD64A32c24zJq/XkJ2a8f0Ap+VTz3ZH2yJrV57Oitp4PyRsNNRQ/dsVVkYGUkeJKSHUVweR8Ev9gzRUmXBhyu5eNuPe/e28L2rGspqClhZK2Oo2RXNvqZEnt4qtiIrhHplrfaoDB/FTzcEkGiq7Ft6p1eSjwpPIico4ujvJN5xKuOrwQwaP5yvvx3LHEslpgY58ZGrHiZ6PTDQ64GakTlRu0cwScIybGlMzR2rKo8g674vqRkCP9bo1Koa/fXMGY9hakzzWc6VtCCSdg7Gqr8pgUe9yCoJ4IiXEYYGxgQe2UJ2kzDT38BNunH/eq4m+5Jyfxv5pREcWqeCqqkJm4Kn89nOueysaZ9uNkZXVlUCDGNIv+rCV67qqBibEfvrZh7mR1JeHsq9i07s8BvChEGyaOqpMXP9cJaOU8NIVxbLUf1xC1vAuXuhzTNcVSxFj9z5zs8CG4OuKCh0QU2rF71N1ZngvVxscdbFEMRg2BM5mU6oacqgq9uruul0puv7/6Jt966oa9X36yi24f3/arClWcswjsy91liqdUJRSw5TC1UsLdUatgGaLBd2SqndoqmxIFf4s2elBsZDzPDa6cyFAw4M15TFYZk9qxx1MFSXY4Lf8hrrOJzL2wdgrdMeOVMLQn7ezGPxpsvbEWUtYc0wJXSUOyPb9X1kTAey4/eA5yQdvYqCeXkwrMpdjFPfTqjYjGC/sKIUrMfySAryIyipEBYLzY+jIseTQ3F2TOrfA5muXbFeNYvTyU2ziUVZWzhzZAHr7bqgOqF+BxpEURTkBPMkM4jMmvYwzYc7CUtYZ9UNkznTOHndj8cSx4Xzcouqy3UaK4S/wjKsH4Pkdmz+pF9dRoSzEWYa7ellZILPng2kPvDiROxABml2RF5dmYlblpCWFVFd//nUhzPfz2DrSgOMlbthOcsGl4V9WeA2Bo/FRljqdka1vzlBuxzxGK+ImrIMg2ePYc/VbRQJ8aHClWwepoDVqsXcfhT5CmAozHEcFQX+nIkdxKR549iXsI3ilwSOeno0zzO1x0UFvpzePZbFIxTR6NkGeTNTtn63XpwA0jimJb6mqmbRWrWdZ0eHMVBVBgePORy94sm1EzNZNrALGuPGceDsRq4ccWTrtnlcTA8VlxRVFQuLcE00ZDugrClLX3MV+jeWf0s1Blhb8fnNQAoa5Q68knyIwVCBUYtGE/3FEna5G2JoPwS32RoYGfVm66GN/BI5EEeXiXx3xI34pK1k3pzBvIG1McOW6VdLxxf+rAhgn5s+FlZ92fDhcs4cGMNEYwXs59mwco4BfbTkGOOxkMsPm+7sJDyj1VuGHsd9yKqoJWoUh9epoqIpj90YY6bP6MeMmjbNXo6enZRYXWcZxlFRHsm1UEOqY4Y123oVuxE+XRUDbUXsZjuw4/BGkh8H8+ieB798OBxHGzlUtXqz7XRzSSw146iK4VlOACk31rJ/52R81g1mwSwLPL/dzKMCCQuxBgx1rcxZ7zWe0NCJLbZtTnroqhoRcMGP3MYuKLZTWeDNkQ/smS/sz2erhbWNJjYNmjGbf/QisxmLo1YYC1JXE7e2H0NNZdFRa0/7f/+Ltj260tuqL24friQ+I1xsVQk7u+THLyDQZzo/nvMmqzbDVXB7lPlwfNcsYiKm8uGuZZyOr95J4nmA88LMXgfeEZyJsWLeqimcTGu8R2EtLzT6rAzkeKAxJiqdUdNVxHKIJja2WthKtmGW4pW2EBOuHVNpoiMLLbujrKfDsohlXBbKapopzC6/Oo3Zg2WR7fAfdBc+b8s8YUyxpH87lNEDZejZ9l10Fy8koa4EodGY6963vv+tAcOE9exYpoGObEeMxg3jk+OeNdscxlGWH8D1n8Yxd0BPBrku4raQHPZgEW5jhQWlPANHWeDxkRNXUnw5vtWIvhod6akgh/3SifxwwYesogiy76wWZxFqa+njc9inOnZYGcD3zn1Yu9ud9GZcyLVz9sefwk5FgdyvsS5eH1/Wz5MwhrLUpbg5yKKkqshYl2kcuOxD9rOYprs5NTPPojx3Pl6ujaFGV1TVuqOm3BFFI2O8f/IkqzgWUVkEubk120IK1wtx0UceHPpoFCtm9cZhmFYj2a/RBcNt2ZXYFAx5zVaNeQAAIABJREFUFfkQg2Ev+vZTx9bBiJHm3ejRTxc7g24MWjSdk8mhFGT7ky5sIFEWzd0fRrN4tByyPbQ5+cLbsTWkaYtzWxVLYZorOzzMGWEhh656Bzr8R9jpqAsGg0xwjXq+/Ar3bbVgWJ64hG2bp7Dv9jYK64AhhsQfx7MpZB6/CRl8Kb6k1LS7vy/j46i54kzHorqVYBw515az6ztX7tRu0CwKI/HXFfz6uwe304PFcbZqYYmltCCYB8mbOH1iPcm5wmbY9Uqz2UmqiqW0KIycrCAePgggSyi8lYinURVGyoVV/HrJm4dPQsjLC2uxPX3sx61EXzKf1fwboCZCFEtJ/jYe3vcjVeLda2mQkrKVzMZjaHwPURR5j/24Hb+B08dWcODgSk6e38jNO1t5UhDVYPxV5eHk5IRX/7smScuqKoaSwnDy88MoFMYqWGGNn/OnfsfyLCeQjEchFIldwC8iMLEUZ/ty5cg8ovxHsH6NDatXWbNKsrmMY8+NhrV9ouIAfj/qzLnrXjzMq37/5t6l6lkQyQmbuHbVg6T0lv6FVRxFF2fjsdISx3k2RB/zaeBKbJaPJGj114JhDHf3T8IzcgmJmUHcOjibT/eu5vLd6nh0PajEUVkcSsatjcTfExRhHFUlW7lweAUnzrhz865/DS/Fknd+Fj4+k/nysLs4PCEOJwi8JIom/9EWTp90I03YWk+Qm0o/fvlsIeeFf21WJ8MvMvd/zTmi0lCSL7hw6oonKZkCcL2EHFQJWZQ+3Di7kh+/nc/XP6zk3A1fssSJYc/RO4K+KQjhccZW7qXW6756+fclJTWQp6UCIDemySvIhyiQXz8cy/avV3H+uheJ55358fAazh125vzdQPJq3Zhi/o0j5+JCwrztcPGey920kLoF5x/x/EsdF/jmyVbu3nTnzPGVHDy4kl/PuRN/eyuZeS0np7VaMKwqDScnK0QCrITJjRMzQ1ausAGthAUmzuoTXGLh4i2u6oV2O5VlkRQWVROpWsnFIewqIxSlNs4urJ4UwaKs33HmpSZKQqnV3qtSiOuJ3XTPYfAm1zRm4jf0uyoO8dhqd9dpIjxv6Llv9H3jqCyLID+32m35+HEQDVswBWJFITkXcZSXVqenNweCrzL/VSVhPHkcSMbDbeQVv5ilUPucvxYMhZrZELJqLJKK4nAKS5p354rHK7j9xMlMguUSK45fVzSSK1FJGNk5YTwTYs1NeCxO/H/vxPcQ+EJIaHoaLnZrNy+bbx9PijemqKXBK/B2VWU0pcWRFNfQ+XXxYC0/Nfx8SfkQPGBPg8krqlnwVkRTUhotlhdBfzaeTyHbOydrG5k54eI8hobPfs1zJ+ivihjKymqzuf/4/q0WDN8oIV+BaaXj+WNmk9Loz9PorwXDPz9+KQ9Iafi28oAUDKXA92bcFVK6vhG6SsFQCiZvK5i09nG1GjBUV+8u/l9ugjKQNikN/qk88N57/4e6ujpJSUm8iT8DAwOksiaVr3+ifP33v//m+PHjf1qsjh07xjsikQhBmK5cufKnbyh5A0HwhXu+SFNX/4533vmiru3effaFrnuRe0vPkZgDdXWuvPNOfdu9W0rnF+TR18FHxcXFkiLy2r6/jKy9jveQ3kNCplrgH2EB9M4779S13VJ5eyP6prCw8E/L0hsFw5cZnYHBTd5552Jdu3Ll2ctcLj33RSlgYADvvFPfXvMC6EWHIT1PSoF/AgUEI0MSDIVFhPTv7aSAFAzfznl5c6OSguGbo630zlIKNKKAFAwbEeQt/ikFw7d4ct7I0KRg+EbIKr2plALNUUAKhs1R5e3sk4Lh2zkvb25UUjB8c7SV3llKgUYUkIJhI4K8xT+lYPgWT84bGZoUDN8IWaU3lVKgOQpIwbA5qrydfa0TDCtK+Cn8ETuOlpDzrOqVKFueV8a91DLySqsQvdIdWulFrwKGokw48BPEP4KyfxS1WukkS4f9tlBACoZvy0z88ThaJxgWPWXtkFus2vmMjKKWwVCUmU/oqnSijpSSXVx7bhXZPz1gzKQHfJ9Uzivi6R9T920841XAMHc/DB8DX1+HopbAUAQntoPvp5CeC7XkfhvpIB2TlAL/AwpIwfB/QOTX9IhWBIZVFGaVcS+lhKSzj5mom8AM3yx2f5/Lrk+fEB6QgVtQLjceV1IuoYTLrz1mvPEdthwpIaus9kAVhXvv08/8Hh9fLaOwJf3+mgj91tzmVcDwN08wmwq7f4TTCVBUDMk3qgGvXJJ4FbB9BtiuhoRHUjB8ayZdOpC/igJSMPyrKP/yz21FYFjJSf9khvSJR0PlKu3fu4ycTgLmg25ha3+bsROSmeX6hNMPKiitxTyg9GQGVr2TCb1QylMJvV16JJ0BfVOJuVRGvkT/y5OwlV3xomB490dYPgtGDgdjRWjbGZRUwWY9CLuoeE8CUzOYsgI++QUeFYGoAiLHg6UTxD+UgmErYw3pcF8/BaRg+Ppp+qbu2IrAsIrsW0Wc+rWAXz9Lw1L9Ni678jkXX8ieqIcEf57HlTvlFJZXIZIEw8PpWAqgd7kh6JWdfICVcQoRF0vJk4JhU/7KugBR22DLfFBVhoXBsP80xKeBsIvKg5uwJxqWToB+o+GXu1AqBcOmhJT2/JMpIAXD1jP7rQgMQVRZRUVFFSWnM7A1uIXjhgw2bU5jdL8b9Blzn9DdhdzNESHpuSs5mI6F+T0+ulJGgQTolZ3JwNaoqcXYeqbuFUf6opZhZTHk5sB+NzAeD0cSoaQSqqpAlA9nD8OFREi5C9dvwtNiqWX4ilMivezvSwEpGLaeuW1VYCiQtTKziC9X3UKlyzUM7ZJxnHoLja5X0TRLwsLkJv3s0/jwdCl5NfHB0sMPsDRL5YPLzzjxYQbeuwpJfyqi9NxD7KRgCC1tDyXKgQ02MD0MUp7Wuz0rk2DhcPjwMuQJACmqBkmklmHrEX3pSP8XFJCC4f+Cyq/nGa0KDCsf5RM0+xY29omodklg0Sf5/BKegqFRMv4/FXLxXC4e4xLoO/ERR1MqEPCw7OxDhhreZq7TXQb0u4XzF0U8LKyi9PgDBpukEPl3d5NWVsKtW3DtWnXT0Kjfl1TYo/Trr+uPpaRAWVk9ZyXvBIsB8NEFKKis76+4AeP6QPgFGgRipWBYTyPpt38kBaqqqrhz5w7Xrl0TNw0NjQZ7k3799dd1x27fvk1paek/kk5v40u3HjAUlXNo0x2sJ2ew+2gmC/omMDfmKYHTErGcn8WF+5VUVIp48G0aZjp38DxSQnZZFZWPn+IyOB4tgyQWhD7lxsNKykVVJH+YgtHg+3xzs5y6iou3cYb+7JhEIlizBvT1QU0N3n23IRjKy1f3C8ciI+Hp0+onip6C7ygY6grXHyEOxIrK4GkOPL0EY0yeA4YTWk6gEcYjuFqlf1IK/A0pIIChn58fvXv3Rk1NjXfffbcBGMrLy4v7hWNeXl5kZWX9DanQOl+p1YCh6EkuzgNvs3pXEffzS/hg2k36WiairnqLDT88I7O4SlzWVnb+IcO0Eln2VTEPn1VRVVnJo7vF3EwoISNXiCdWwbMiIibexGx+FpcfVDZIuGmd09jCqAXg+flnUFBoCIKS/7lC+N6zJ5w+DRUV1Te7sxPM+8K245BbDCfjYLI1mPYBI23o2A7GboTDSVBcXjOASoibAqYL4doDmuxmkHECVq2Go3egRCKA28LwpYekFGhtFDh//jyqqqoNQFDyP1cI39u2bcuhQ4cok/TEtLYX/ZuNt9WAYXl8JuMsU4n7vZS8ygqOuSeh3uMKJouz+T29kgqxtVFF2s57GKvdYuNhybpCiVmrLOdUaAp99W7j/mMxT2pAVOKMv9/XoiKYMAH+85/nA+KqVZCZWW+1PbsH3++HtFwoOgPjrWHdx3DqEpz9BMxUwcAIdHrDRA+4/hgqquAnZ9AYALuvwrMa16qoEH79EMb0AYOxcEjIPJVah38/RpO+kUABwfW5cOFCMeA1BsHa3zNnziQ9PR3BkpT+vR0UaDVgWJmezTzzW8z3ekywZyo2RjeQ73Gd8aEFpOZUkpVSxIGPHjCpz3V0xj3iWLIQM2zIaOVPnvHNlmQsdBIY753L9ce1IPp2TMYbG4VAh/37QXCJNrYIm7MKhYFUVcKzYqgUwbPDMMAIVn8KVxLhOzfQHQQfHYC9H8HWz+B+brUrNfMIOBiCjjnMWATLF8GogaCpBjYL4PuL8LS0+tw39sLSG0sp8NdS4Ny5c6ioqDRrHUqtwr92bp739FYDhlXl5Zz7KJ1Zo28xbHwqmz/J49hvRdx9VMbJkFSG9r2Bum4Cw+c/5DuhkL6s2m1a9+Kick5sTWag2S3mBT7lcnolZZWNzqk7+W/4pSXr0NkZHj+utwobv74oFz5cCYP6go426PWBFR/D/TwoKYDsPCgXskoB0TNI+hWCN8B8R5jpCEvXwac/Q8J9eFb+/Oc0fq70t5QCrZQCLVmHUqvw7ZzUVgOGgqYtzS8n7W4Jt1PKyCoQUVZRJXYz5CXk8/33eZz4vZi7GRU8Kxf6GxG8SkTevWdcul7CfaEW8Z8EhAIpnmcdCrHCU6fqY4WNyFb9swryHsGteLh6Fa4nwqM8qHhO3E+caPMEHtyHtPvwMBOKpNZgs6SVdv5tKdCcdSi1Ct/e6W5FYPh8IlZViCguFlEhagYEJS8TVVH5R+dInv93+y5Yh+PHN4wd/pFV+HejgfR9pBT4H1FAsA4XLFhAmzZt6tylUqvwf0T8V3jM3wIMX+G9/5mXNLYOX8gq/GeSSvrWUgq8DgpIWodSq/B1UPTN3UMKhm+Otm/nnSWtw5UrW44Vvp1vIB2VlAKthgKS1uGMGTOkGaRv8cxJwfAtnpw3MjTBOty3D/r1e4FY4RsZgfSmUgr8oyhw9uxZjIyMOHjwoLSu8C2e+bceDCdOnEiS8C+DpH+vjwKFhXDoEOQK/4C3cabR63uM9E6vhwJvswy8zWN7PdT/83cRrEMBCHNycqR1hS2Qc+7cufz+++8tnPFmD731YChsdKuuro7wKW2vkQaamhjo60tp2gr46r333uNKSxuqv1kd0eLdpfL5YjKpqamJvlTeWtQ3u3btolBYqP9Ff60CDHfvns+VKxulTUqDfyQPqKt3f6vBUCqfUt30Z/WzsbECx48f/4tgsPqxrQIMBULDdmmT0uAfyQMGBrJvNRhK5VOqm/6sfh44UF0KhrVLAQODm7zzzsW6duXKM/EhwQ0jFTapsP1ZYWvN10vBUMr/rZl/X2TsUjCsRUJACoZSgX8RofknniMFQ6ls/N35XgqGUjCscfvFkp/uyfWbfmQXRyP6i92hJVkBZBZGUy76IyUUS2GmHykp/jwtiUFU9Ufnv4njUdz/dS479m0kI//5tBPleHBknzO/p4RQXBH3P3G3ivL8uZ8VSan4eZHcv7yBO1kRlIrpGsuTG66cvOjF48JoKlug3d8GDEVhpCd6cPNeMMVlsf+TOXg+iESRlRFEYVnMC8hba+HzWHKuO7PvqBspuZFUtMBTz6fLy8uoKD+AB1kRFJcLchXFg+vu3HkcSnGlcK9YshPWceqiJw/yop47JikYvkEwrEhfTazXMFxWDMIlzIlbTyJaVDivkzle/l5R/OZvjPXciZxLC6Hiz4JhZQBXjzpx/Ko/+SWxVD3nfhW3lxLiYcOSBf2ZPbMvk8bqYzdYBRP9XljOnsLJtFDKWhSoSI56GzHEbghf3Aik8A/B8+UFrZaWJYlOfBg+mV1n/ckrqQYzUaEXv53YwOW9o5k1VIe5YatIyW0OEGPJOzic4eb6rN2zmcziFhRxpS/HPp1MoM8ovLyaNt+PnEnOiaCyhqb5R8Yyc5ItO64GkC8W/up3FOW7EbdIh/42lkSf9CX91CRmDVbAbPokTgh0LdvMB3M16GM9iM8u+lPYAkD/bcCw1BX/iZrMDV1HWm7MnwfDF+LzGG7/NBGP1YNYMM+cmdNMGDtSh8EWCujrqzI7ypW0p9HPlZFq/mslfC4K5eBGPcwdhrInPojiFuSxMnUVu+Mm4NMMj3t5jeaDg548zq+do3BOhg9kpus0Tic31E+iAnd2rDJiiI05wQc9ST0znSX2yphPHsvPidsoKdvCZyv06G9tSdxJH56KAbOpHpCC4RsDw2iux9nh97ULv99059N19nxx3Y9cQeGIQkk6uYxvv5jNjo9msD12GlERkwjZNo4Av9F4b3Fg00Z73Nba4rLKihXLB7Jg5QQO3grmmYSyq1XSDT5FkTx94MXV0yv58cuZhG8dwZplA/D61pPHBTUKuNKXbz3MWRCwnLtPImuEMJJDa5RRdxjJb8nBNYo2lnt7x7DceRK/pART3AwoiR5t4OdvFnPyVghFkkz2bCUe9mrMDnMj7enzwbDy8XI8pxswbKg+46aYsWCJGTZabWjbrisjNy/mRtYfrS4j+NFJHkV9UzEYFLUgfA3o9BxwbumcvJ9sGWykjtM3m3n0rBoMS5OX4D5Jh3HOk/ki2opx4+z46loghU3mKZzjGzXRNLPko+PuJCV58PvJFfywezG/3Q2hSBKIyjbwwYq+jLTWoJ9OJ3opy9CvvzqDh2gyZIgmtoumcuyCO4mpQRSVRZP9zUCM9fsQ8rsfTyXev6oihEsfmGOqIc+MCFdS7m9k5zI1eltbs/NKAPd+ccBOsxvWbou5+iiSyqrnW6utEQwrUxbiMduSgJ+9eVJc827FK1hj3g2HLa4kZ9fKgx97/QbjHLaSlOxaeWioLP8cn8fyeJ8D00frMNTBiCmOliyZpYVW13/TTlWfzd9vIutZzB+AYSvh84LVbLTqgdmCmRy/vIWk626cPLSE3XtcuZsb0cAqK7s8A7e5RtgMUUJPqSPK2gqYD9AQ8/iQIdrMD13Gbxc9SX0cTklZCD+6qNN30iiOJmyrWwgK8lpVGcq1zwdjpa/AJH8nElI9+GaNLmY2g4g75UvKsXGMN+7JEOfZnEkLp0LUPJ9LwfC1gWEMT9O2cCcjlJJyQchiSIwZwuoPXbh5dz0Ri234/LofTyvjoNKHzxZrYKjSgZ4929Gjh9Da00uuE4rKXdHQ7Imuviy9jRXoZ9IThW7v076TDDNj15KeH0XOnfUc3beAzz6cSsjWkWxwHcKiOf2YMEqHQWbyGGh3R025MwrK3dDvo8zAIdrMCXMlLadm9Vm+ifDxvbBcPp/4h7XCXwOGI0dyqg4Mo7kR3hujAUPYFR/Is2bAsOzMOMZZmuB7wptsSTAsWoKTcTdG+60jJff5VlBVRTiP7vmSfNeX1LQtHAnui4liV2zXzOFscggllXEvpCSUDMz5/HoAbxIMn347ECNFeRbs3sTDGjAUlYSS9ts0Fg7VYl7IUk5e8iW7KJrSxMVsdR3IrKl9mDDWAIdhGhjIvcd/2rRBUa07GhrdUFXugoq6Eku/2MzDQgkBFUWSdd+Xu7fciJgqg5r9ML49voGk217cFto9T3a76jHc2ZHrGaFkfT2A3np9CL3oR54AhmXeHN05nYht4/HzGMz0yaYsdhmBn/8YNq+yZN5iK9y8HFho251u3XsyfKEdXgHj2RYyiyO3ghsCc82ioTWCYfmNyYw3UGO5xHxRA4YjvSTAUJCHCXIMcJpH/MOIZvntz/F5HBX5gdxL8eFuih9pt5wJnqaAopoWa3auJTknisrnKOj6xVk1GL5dfB7Jze/G4rrYjKmTjRk7Wp9hg2WRa/d/tOnaGTX1HmiodUVZuQvqpoP44mZDz43oWTAP7vlw6+I05pnKMMzZkQPntlTz+G1vUhMX4jHJkBUxa7mbvY0fV6vTZ/JojiUEV7uVy304+fUsooLH47dpCI7TTFnkbI/P1jF4ugxkwWIr1nmOYPHwXsj27IHtbBs2+wt8PpODNwLIK5OQObYjBcPXAoYRJO0ZzuRBcuga67Hq0/VkFERT8tCNPTFj2eTuQNBOF+7m1Fg5VRGk/r6awwdX8MsxF347u56Llzdy9aoH165v4kb8Zm7e9CThpisfL1VFseP7aE+ZwKGEbZRUxnDrkwFYGXWll2wn1HTkMR+iy7hp5swcIYds+3/xfg9ZHJaOY9cvazl/YQPxSV7cexJOWUUNsJRvImxMT/ovX/CHYHg9xABd80F8+RwwLD0xgsEaOrgf2cKTZsBwzB+AYb2wx/Lo2Fim9uvFwMXTOHYrmNImQBhL3p11/LJ3IV/tmsvnnzry8YdTWW7VmS5yKjiuH8nWwLH4ejuwyd2Otesmsf9OMEVNrLSGq/76MbTc3xwYilemZWGknHHh93vV1nFV1XYq768gdL01y5YNYfU6O+bZdKNb116McRlD1GcL+H7fSn4948blq5u5lx1JmbBIamytlrmxdXgP9EfYEv7JAr7/YQk/HtlIRp4vn82TxXD6ZC6lhTQFw1IPvg1yYO1KK1asGMKSKRroKnfBZLgp85cMwWmFFSuc+jFI5X26aGowec7A6r5Vo/n6aiD5kvPYqsFwEmN0VVn+1SYeNrIMG4KhByGje2K+dK6EPDTkhdfG55WBHPPvQz99NRbHruJWdlQzFnlr4fNY7h+cyPpVg1m2woZ16/pjo96GrnqGuPhN4bOvFrPvFxfO/O7O1ZpchObi0mVXJzHZRJ5hy8YSt2sxP/ywhMOX/chJnceKAUpM9V9N0pPgpmBYtpm9kaNxq+HzpVO1MFLvSu+hfZizuJbPTbHSakd3dVXGzhxQw+ej+OK8LzmlDWVOCoZ/FgxF4SR8Zcdoo47IKHdFtuN/6KqoxMxtK7iTE0ZeViDp9/3JFAK3dco9jsryaMrKoimviBGvCquq4qi8twj3aYYsilhLWpY/Z2MHYKXRHo0Rw/lKiOmUC+7GOJ7dWcO+fU4cPb2Bqzc8Sbrtw82DY5nSpzNKpqb4f7eWpIxQnj3zYpdrP2aumsjPCcE8q3XFvSYwFFVEknNgKJZqaiz9cAmHT7pw9OAyvv96Hp/GDMFKsS16dgNY4TIUF+fBLHGZxvG0kGbcrbE8vTyTpVaymE4bx0/XA8VjbRpnjCH5s4HihYCcbCcUVbqiqSuDUpf/49027VA3UMCsvyoDB2lgadiFnj212XLSm+za924MNi/5+3lgKICYqDyacmF+a6znqvJwsh4FkpERSNqZKczq2wX9KRM5mhBAXlEkJaUxYneNMO9NQLBmXGWCZaPbjg4d2yGn0BklxU4oDbZjf5IHH82VxXDGFC43B4aCqzwzkIwH/jy4s5qQqfIo6hoTsN+NpDR/Hgj9qR58t14HLVUV5keu4PJtP9IfBJFbHNOMct5O67QMXw8YvjY+F4Vy+aNBWBkqMS1gKdcfRTzHZdda+DyO8oJgHj0MIOOhH2eizeir3IspoatIeBhGUXEUpeWxiET1ctGU16NJEFz5iv+lY/cOyCt1QVGhCwNXLeDSJUcxGE4LWE1SVjNgKIoi70lQNZ/fdSFqnioa+oZs/noNN+/V8/mPnkb01lJmZsBiziUKfB5IblF0E9pLwfDPgKEolOtf2OJg0IFeffsTsX8Np74dxXjDDnTvJcOIdfO4/Cic8mbci02ZYjsViVOYqNuJIS4zCXftS3+1DmjY2/H5WV+elsXWK9qKaEpKJJRvpS+7ndTQ7WdG2EEPHhXFUFHoyZGfnDl9bAEhzr2xmTian28HVwe0a8BQQb4b+r0V6ddPiX79FNGS+TfvdeyIjqFCTZ8S+grv00bLki/qLMMIToX3Z6yVEr0NZdFVbst/332Xzr06oaTSDQ1tGQyNFTEzl0G27bvI6KhibaeHw0gDRk524Ps725q4Mp8lLWCdQy/k1VSYsMCKdRvs8fAcQ9hHizlzN1gi8zKO4nQPzp5ew9nf3bly1YPrV5fhPrQrPcwG8tkv64hP2sKtW5784qmLWk91NhzzIqsZS6c5+v9RnxgM5duhOtgU1+B5HE8QYnbPj4cK9yvPWE3QTCXkO7ZBxUQFK3sjFvgu5kZmffykIn8rVy978aQoqj4WIgrjN189tDV0WL9zBacuu7JtUg9kLazZl+DBxy2BYQ2Ylme68dkaA4zk2qJkasisxYNZvqQ/M8bpMrifHDp9dBg9QAYNI03m+C/m6uOI52bvtlow1O6EvLosvfsKPK5Ev749kGn7LzrKyWBoUtPXrxcKHf+N1nxJy/B183kESd/Y4WDQCbX+xixYaceGDcPx3DqJj75fW+01qov3tjY+jybj+HhmmnakY7cumPTXxH6cJb7fe5BZWBsLjSE/bSOXb22jqKQ+bCIqWEfIZEV0ba3Y/oMLl05NxrFPVywWz+PCxdktg2Etnz9x56tNJpgqt0Opjx5TFwxm+VJLZk7Qw8pMHt0+2jgM6IVObw1mbJnP+fthNdnUDa1/KRi+KhgKq7wdVtjrtaOzuiHeP3jwUACh4hCSj01hrnknuvXogsXcyRxLDm2W+I2VrwCG47U7YGyti6FCV4wnjuTrC35iIGypZKDi1kxm9JbBwXMFiVnR4vKCyocuRDsZMWyMJV6fLuPQaU+yCquPUQOG2pYmLFltj8emEWzaZM/M/h3prKXJXKehbBT3DcdprCKaA234LjGoxqKL4dZPk/DysMPdcwxbl+ug1kOeGcHzOHjWnSvXqt28CZenMkO3M7auizhx2ZvkZF9SUgPJKxUsj3omLE1dzpaJ8si1/Rft5OQYMsqEmY7mzJpqiK1pL3T66LLyk/XikgXBUqwSxVJREYuoqma1WbiCtZZd0Jo8jcv3w2tS1GNIijZGR1ajBgyjufOdAwunGeLgoPdybdRAok5tJbcsDjEYyrWhY7e2dJPpiLKmPIMnDsZvpwt3al3gddZmLLk3FrBpshKK3dqja22Ky5bReMzVRFdDG/fvVvPLXkcCVptiby6LlpEZ2y/512WDFl2bgWOfjnQ3HsDnvwdQVOJJ5PieKI8Yw5m7ntVu0udYhhVPvTn5xSjm2smWGezxAAAgAElEQVSjbaTHKr+RuK60Yvmywcyy7Ymsqhoz14wi8rOlnDznRMxKfYw1u6M/wAT3XRvJLKjN4Kufp9YLhj2xnDiQ1RsEHh/BJncz+sv9Fy0rC5zWDK/u2ziYsf16MHD1IhIf18bQXyefR5G6fyQTTTrS9r33kDPSYNRkUxxnmzJ1rBam+jL0sbfik3MB5NfEsV6Jz4u9+M7Tkmlj9F+Oxx30GLV4Kqfuh4gzt1+Kz0Uh3PhmBJNNO9NNRgbrmbZs8RnOXCsZNIba893xlez9dByrZ+pibtgDI8fpXEoPq1n0RXDzs0EMVmuP0eypnEgOo/jWTGb364H9RieuX692kz7PMqzI8+HMN+NYPFIJPSMdlnmOYM1qa5YvHYzjMFmU1FWYvMKB8B1LOHHGiQ/WGWOu2wO9/r1Zs2Md93OjG3hlpGD4KmAoCuXSx0Ow02lLu17qOH+6ltS8+jotUWkY6eccWWktxIk6oD9qON9eC2o2MUESEMuvTGCkZids18/ni2+cuXI3sNo1KgEekufXfi/Yb42pqgZrD3rxpFaYysJ5cs+dvWHD2PTxGlKzIsUAIlxTnu/H5V9XcTbel4zMYLKyg8nO9udbJ0VU7Ibx8yVvMsV9wTy+78mVq548eBpZ41aIo6wwhKysbWRlh5C5fyiW6tq4HfIks0zCHVKTQNNSzLAsfSVbpymjLC/LGNdp7DvrQVKyL/fStnIv1Yfb11YQPkcVbSNjAk/4igGp9p1rPwtPOjBUvTNDvVeTnFO/ChXAUFtOA/fj3mRVxJC404ZJw9QwM1N+uWZhgv8xX7JLa8BQUYaJAfP5eudk3Ofo0Fu5PTJyXdEfYIzrjvU8zBeSlGLJPTOZeVYyKGlrszRsCecTt/I4K4jbB+wZqtoBWcUuKKn2wLi/NuMcB+MWMI/TaWGUVG6nImM1AVMUUFTthYFmN/QserMmdBhjtTpisngB8Rk+7BRihs2CYSyZB0cwylweywm2RHy5hCMnV3P40AoOHFjO9iUqKOoZ4fnpEo6dXseFS26cO7+e47vG4TSpH557t5D5rH7lXkvn1geG0eSnufPr8bXEpwSQmSXweDDZDxbi1LcLdm7LuXQnqLovK4j7iRu5mujP0+LaWtXXxefRpB8eyzSzLsgbGOIau4yz17aQnOpHWpofqcleXDs0mTmWPTGaMI4TqdWAVEv32s8X4vMST3auNmHYgJfkcTNlLCaP41hKMKVV26sXfS/C56IQzkT0x0q3M9q2gwj7cT2JaUFkZXpxYIM2qr06oKjcBVVtefoP7Y3j8mEEfLmWtDzBAxJDxrFxzBvQDTVdGTTVe2E+2oqA9cb0VlVg9ofrSE5ewMoBgku5OTdpLFlHxzBtiBL9x1ix7dPF/PLrag7/Us3nH67UQsvQgLWxCzh8ah0XLq7n3IX1nPh6Ai7TTfH42p202uz6mgWsFAxfBQyrIoj/yJx+2qrMj3QmKSuqif9ZiBk9urqIjSN70qNzG1QGWBJ9wpe80qaKpprhY8n9yQpT5V447thIam50dSyxztKoX6XXCkjtddlfDcBQRY8tp33IlkwWqYqlODeQR9kR9ckzxHJn5xAcJtizJymIZ3WumeaySbdD6RqCpuqyIGxts3VZ9YkFXjwp3caV/fP4OG4qkT6mmMp2YFSQG6lPm75zefoqAmeqoKqqyuIoJ66lhzVNmBFF8zR+GtMMuzHUYyXJWQ1XcogC+HGVGipKOngf8yGnzh0aTXy4IVqymmw+JdAkjpLcAO4le3P79ku2O37i4n8hHbs+ZujB/ZwwsjJ8STy/jNgN/RigLc/sD9xIz6+O61bkbOBz//F8fliYywjyklezw8MMm96d6fjev1CxtyPmh7VcTfQh7UEQWbnhFAvxlUpfvnLWQltBjllhyzlzdhkRS7QxVG9Pu/90YdoHG0jPD2gBDOMoz97E2dPuJCQHcPmzoUwfpcXAgWri1letDf9t3wGdPspYivvUGb1xMYn3Anh0fyuP85vGUgQ+a3VgWOnNTid9JrgvIulxZH1Re3PZpGyn9NR4ptpbEnbWt7r8qZHcvRqfR5N+dBwzLbqhajmQqIMepAtA0ChzVFQWQnxMXwzVdfD4xZusRlmOL8znFVHkZviRfOclefy2N3fubasu/q8DQyFr+g/4vCqGnItz8A+aw+ErvuQ+CyP5hCMes7Torfg+7/27K/brpvHDmY0k3vXjweNgcguiKBfFUZk6H2ebnigb9mHrt6s5fWAaq0YpodXrP7yv1JvQE17kPGwJDOMoz/Xk93MbiL/jz5VdI5g3XptBtXyu0Y72Hdqj2VuJ/jV8PnLdPC7e2srj9K08zmuatCYFw1cBQ2Ipyfbk3FkP7mfXWkxNwaqqIpKsJCcCp8oj0+l9ZAx74/uzF9nNFVyLgti3Wg1ldUNCz/qR11x2YSMBrQbDOIqP2zNITZ45n27kQVFT4GkInjHER/QWZ4h+cSNAolziOWBY7ISLqVCXtaa+LktiHA2VRABfr9DAQLkd3bu8Rzt5HXwOezfJ2hLKTlL32GBrrMHiqJXciF/FB+v6YtdfBavx1sT96svTmrhCVcl6/Oy703uOIwkPIiTcGrE8PjKSkbrt0Zk+nXNC/VCdBR3NeV8d1BX1CLzg26D2riEtms5ZS8frwbC+tKKqMoqCLH+Sb2wiOTtCDOjie4iiyc8Jpag0nDsHxjHPRgHjQcasChzKaM0O2LitJOGx4LZulEBTFUnC7nEEfe5M/KMIyiuiyEtZwHKzjnTRNmPHZaE4PrAFMNwOVTGUVwgx5jhKsrdyJ8mTmzeFDGUPflingZpRXwJ/dOGSOGt5M0n3Q8TlQE0Tlurp0+rAsGIzEeNkxBmiNzIkyiWeA4bFB20xVdNnS83iqTEfvBKfV/iyZ7UWxkMGEnV4E/HHZ7Buug79LTQZ7zydX1NDKREvRuMoOT8Ge0155uzYyAPJMhvebj4XlYWTkxtBaaE3BwItsDGRZ9BEawLXGKIpp4XbL548lvQY1eiOqmeb2R04ns8OunNfWICVhnHv+6HYaLRDc8oUfr0bSnnmwhYsQ4HPa0ImojhKcvxJvlXP53s36WNgYoznlyu5UMvnacEUlT4/xi8Fw1cCw/qJaCkbsFopRpGb4kLMAnX6DLPli0uBzez0EUvWb+MYr98B3RkzuHA/vEFcrbFgNv4tynHG3boH2jZD+fZ6EM9aBNIaMLQY3KhcomUwHOUt1EM1BdoGSqI8mofXXTlyYBn79q/kt8veNdt8NVL4CMzrw5VLm3mQE8LpYGMG2JnjGTEFn3la9LOz5ev4oOpEm9I1bLHuTr9F80h8GFkHhkUJ83Gx60EPDSMCDnuRWypRjygKZs8yBZT0zNgh1B7WgWS9cm9Mwxf53RwY1l0njmFKjEEs9LHknBzPNItemM8Ywzent5DxaCkuZt0Y4SlR5yaxuAAhQy+E3MIaC00UwgUhS0++M0M9l5OUHYVIFMS3K9QZvGQm1x40U2dIBL+FD2DKSC2srSWbJqYabflvh47omakx2ErymBZ2q+aS8LA27tqQVq0VDC2WSSbFbKfZOkO2IwZDdQO8z/iQI+ldqZmbV+Lzqihykt25FO9PTu4agiepYec4koio0cyzUcJuzULiH0eIrdbSUyOx1lBk0a76hZbAW62Cz0XBnAzqi4W+MjP8F3I6MYBHe20wU9PD87dG3qpaXq+KpiAnlMKS6hwC0VN3Pl6ijpqqJmu/dufhs1hEWUtxc9BmUeQa7mQ3k01KBOc+sMFxTEM+trbWxEyrPe07dkCrjwqDGvP5ipniLRFrd3CqlWEpGL4qGNZO6ot8iqLJe+jNreRA8prsnxlL1sVZrLDtQU91Q/x/8SKnhdVL7cQ1+BSFc+c7W2x1u6IzwATX0Pkcu+YnTpNvmnhTaxkOYMcFLzLzwygoEFowe52VULMfzhFhcwBxXxgFWUtY0bcrI58DhmVnR2GrocCM7eu4XxCDqKK6ZKS0rLZkpKFSrR93HJWVgvUSwc8uKvSZNpGTSQFkJsxkbj9FHKPWcz8vivSf7bBR78mU6PXczxfAOJacy3NwdZCll4wC82JWc/ep4FIOJ/WSKydPrObwN2OYbNgOOfux/JYSImExPm8sL9bfIhg2xweiEPa5qqKmZ1Lt9hEyTyv8+PWLGew5I8SnGi8SGo5DVOjNwW0WDFJvj+oIB368EUSxsNCpiuHpA2/upodQXB5NduOie6K48f1EvN1tcXGRbDbMse5GVzkFRs0eiHODY7asi3EmLac2gaThWForGJovcuTC7SDyJfjZ2bQr9huduZ4WWsP7YWT9MIS+qs8Hw1fmc1FsdbijyAkXC0WmhbiS9DCIhI8s6NfXjKjzW8kr8efn9Vqo6/Qh+vxW8sWL2dbD56LcZbgO6IbexImcuBUirpmtuOfCFx8u4syD0Ba3ZBPkuSjFmahlOujKdcVu7TzOp1dnWldVhPEwxYd0YS/d8pCmdYZEkbB/GgEekjwufLdh3lAZZBTkGDbdkhWN+TzSiVuPmi76pGD4vwBDsaIUkkskEkyEPlEQFz4bxiSzrnSXU2bJdleSBcX+0pZMHBVFgVz+bgxzbWRRUeiEsloP9HorMXDCKH6+u02itq8aDLXl2iOv1gMd3V7oipsMSl3f5d227VBR71nT1wtdnc50ef9dhmxp3jIUZS5llWVXFBR70NtUhf6Walg2atbLHbmWUZtB1lDJCi7T9D1WDDbWwNFrDkcvLMdzeHcMHQaxYZUZdobdMJwwmp8Tg8W70RRens4i6570lFNiTogT8Y9r3NSibfywRgdTnS4oyraho4wSS3a4kVGX2t34uS//+6XBsCqEH5wUUVTRYtN+T7KEPVqrYiguCKNIWBE3ih3VLRQqgkk4NJ21k1TRlmmDirU1n5z24amwSJLkDVEwSWec+Wa9Diqqvet3oCGO0oIQsp4EkZlZ0x5uJfnOZvYKblITc2JPbuLeY4njwnm5EdW1ks0Ae+sEw57IyXRCTVOmAT93ff9ftO3eFXWt+n4dxTa8/18NtjzHMvzTfF7hz56VGhgPMcNrpzMXDjgwXFMWh2X2rHLUwVBdjgl+y0kUF+FvpzXxeVXuYpz6dkLFZgT7hY1BhLrC8kgK8iMoEWd+Ny9rFTmeHPtkBDOG9EK++/9n7zygqjq6hp33/5L3TUzR2EVReq9SLRRBsWFDEWzYxYoFC6goClKVXo0mGmNMMSamaCyxt1hRUVEUK02lSG+X51/nInpBwIYFvaw1i3vPmTNnZs/c/Zy9Z8+c5lhOG85u4XdeuTnIw3EoyvDm+L7JLBkog4adxA40wjjPDeF+tXGedHUZf3nqoGtiwqptC7lWwzgvFqYRqo1zKQxfGwxrGBDlYZz/2gwbayMWr5/HlftPBuI8UpDVOu7J47GU5geTnLSUw3+NI3xFL1wmdWL8MmfiUyXdrhUw1NRSY6x7fwJDhhJSV1plRV+tltgFuHO9pm3VysK4unsUiycaYNtTnR7d1ejRQzKpY+85lSvpFe6gGuud48Oe2J6M6CmPrmZL2jT+kI8//wKljmqMWDiKXfEB5D5cZ1n2YCk/BQ4kdqsbicK+pZVAKY/i2t4JfB3tSNSaCfx12JNbWS8jzyf7K+/ICGZN6E7EAd8a5kGfzC889abtHcxQwxbIKctgbKZK9x7q2NhIJk0mRcznZqbERs1Fy1jnrIyqggy9pjvy52k/MQifsPJLPIgeq4peu09oomVeze1dtT6i25NZMFAFrTYf00jLgp8vBko8IFXN+2QfNcAAGvGcYRu0rDvj7jWk7jEeMpRVLtpoKekTcNyXzBrcpLzsOC+PIee6K7ELTOhp2g5N5cY0/t+HfN66BR2tjVm4ZhbxyWFiq0pQ0g1qnJcFsjfQAEPFZihryWFmpUaPKmNcHZveZkQcrliiVDm+ii6NYU7vdihpqTEpcDLHrgmejupTDaspiR/N9L5ydPiyEZpjRnEsKfRxQFQ1vShKnsayERroynzCZxqd+eZfH3IlHyCr5a+si/BfCsM3CUMhECfDj2vX/MVrAGu1FOroQMnOrPgcS2lROA8yVpEm7AxxT9iGTfIpKJacpIXs2b+IxJRVZGaHkl1XylrJjcvLuZ4eIY5IffJ+qykrDOVeirAcwoekpCfTzXSJreBqbEsMRdkruXllKacOz2HHdhd2H3DnzAVvbt0NE79+6NFTXHk0uRnB5IjnGiTdjLGUFoaT8yCUB7kVryyqYkXVeN+nQ0CyvaL8YFKTA8nIq4j0lTxX22dRQTA3zsxmU6Qdnu49mevanTlzJFMPArYsJS2nclmI4DGIIOXEbHYfW8KVlFDx03WNbSmPIP3aMs6f9eBsQt2vsCrPW8j6JdZMGtOVuVFzSMoQlto8e/sbnGVYHkrS8TnsP+VNyt3gusd4dihZab5cvuRDen5UrW71lx7nwo4pab5ciV/E4T0z2f73LA7868GFRD/u5lR7cGtQ4zyGgvs+nNk9gUh/W9zn98C1yhjvzpy5g9lyPpCcRxHfqxEVBHBmvytHzyzjTmZErV6J8oJV3Ejw5GzcEi7dDCa/jo0uyvM9+MG3J1PGdGFOmAsXU5/9TUFSGL5RGD67MqpN2b7IcVFZNMWVc3r1AIkXqUPN18RSUTdhd52KaMia870Zub1oXcrLosh/UOHOSUtbSfV0X1CEj7bqq2ibsL2bsF/p8wCrzvqVV2xdlZIcSHp27YqntjIaHAx5uOXhww0aamvXGzkubL0o3o7xafPqDWmcx1JWHM6DzCDupj85xtPSgsgRb7hR9QG2pLgiUOzRw+7L6qPySB7cX0lqcgDpWRUP8M9athSG7yEM34gCeNlBLr3+USTtm+i/hgfDhgQSaV3fxJiufk8pDKUwfKNKtvqAlH5/OxWjFIZvZ79Ify/11y9SGD4jDFVUWol34RCUgjRJZfC+jYGPP/6IM2fOSPxa3p6Purq6SH+f0t/ky/4mP/30f+zdu/eNDuw9e/bwgUgkQhjUb/IHp6t7gQ8+OPkonTmTLxaMUK8ffvhBXDehftL0cjJQUVHhgw8+eJSksn05eb6O8Sj02Zv8bdaloV7V71NF5Rc++GDjo/TDD0cb5m9f6LsPPnicpLqs1n50cHDgxIkTdQ23V3rurYdhQkICBQUFr1QI71PhgvKShOHbqmTfpz55Wlvf5t/Aq6pbbQ/HT5PVW3deVxc++OBxekst/LdBbomJieTm5r6xqrz1MHxjknlHbyyF4Tvase9Ys6QwfMc6tAE0RwrDBtBJ9VlFKQzrU5rSsl6VBKQwfFWSlZZbmwTeGAwzMkoZOTIJU9OLmJhcpFGjU4/mC4W5Qy2tePFx4dwvv2SSl1dWWxukx+uQQFlZGXPmzKFr166YmJjQqFGjKm5SLS0t8XHh3MqVK8nIyKijNOkpqQRejwSkMHw9cpbe5bEE3hgMS0vLmTfvNl9+eYb//Odx4ExlEI1wTEgqKuc5dSqPsrLyx7WWfnpmCZSXl7N27VpkZGT4z3/+UwWEwtyhcExIn332Gdu2baOoqOiZy5ZmlErgVUlACsNXJVlpubVJ4I3BUKhQfHwB6urxVSzCShhW/l++PBnBihSUuvTvxSRw//59unXrxkcfffQEDCuDaYYNG8bNmzelcn4xEUuvqmcJSGFYzwKVFvdUCbxRGJaUlDN37i2aNDlTIxCVlM5z8qTUKnxqLz4lg/Ag8dVXX9G6desaYfjpp5/y559/Sq3Cp8hRevr1SUAKw9cna+mdKiTwRmEoVKEu63DZsmTu35dahfUxWAXr0NLSkg8//PAJIDo6OkqtwvoQsrSMepOAFIb1JkppQc8ogTcOQ8E6dHW9RePGVa1DwSo8cUJqFT5jPz41W23WoRBQI7UKnyo+aYbXLIEXg6GIhD/SCFz3gKQMEaIXqrOI7NQirqeUUlRSD1Mzz7POUJQO2/+A+FQofrHav1CTpReJJfDGYSjUQgiQUVU9X8VVunDhHe7dK5HOYdXjQE1NTcXMzKyKdWhnZ8f169elcq5HOUuLenkJvBgMy/h74WX6zL3PueSyp8CwnLv77+Kx7C77b5ZSWMk9UQl/e11jrE8WSen1AKTngWHWDrBzgM3nIb+ue4vg8HoI+RFSsqGy7i8v9ve6hLcChkVFIlxcbvLFF6fFQJSTO8fRo7kIEafSv/qTgLDtXkREBK1atRK7Sj/55BO2bNlCYWFh/d1EWpJUAvUggeeBYVleKSm3i0hKzCXMMZ5OTqls2JzNn1syWL86ncAV6fx5sYScKvpExPnwqxgNTGZXYgnFlaqmvJStLhfpPPkeF27Xw3Ku54HhEW/o5Aib/oRjlyGvEK5fhOQsKJGEYyl8NQZ6zYNLqVIY1sN4E4p4K2AoVETSOnR3vy21Cuupg6sXI2kdDho0SGoVVheQ9PtbIYHngWHB4TTG9U/A2PACCs1P0UzhIl2trtDXNpFB9lcZPvo2Xx0pJquoknhCE0UcXHaZjsPT+Pd6KY+xJ2KX2yVMxt8l/tbjoy8slKfB8Pp2cJsOI4eBmQo0aQOaOtDfE65cgYAx0KMnTFwIm/ZCej6ISiFiCJi5QHyKFIYv3DlVL3xrYChYhzNm3ERHJ15qFVbto3r9JliH4eHhyMnJia1C6b6v9SpeaWH1JIHngWFZWj57t2fx++/pTDI9h/WMu2zZlcs/36Wx3P8evx8t4Fa2iFJRVRjudr+E8bh0Tt+UdKmKOLD0MgZOaZy/UfryrXkaDO8egWBfWDQGFORgtBds2gZHEyAvFxL/hW9XwiR7MHeAf5KgSArDl++YJ0t4LTAcP348FhYWT01ycp1o3NgIY2Ozp+Z9lvKkeWqWuaampngnGn19famcn2FcNpRxJGx0/K78PQ8MEZVTUiyipCAHL5sL9ByfzAq/FBYMT6Cj+TUWRWdy7HophdXcpH/Pu0TnSfc4c7sqDI8sv4z+yDTOvQ4YluZBWir84Q4dB8L2eMgvBWFdtSgHTu6F4/Fw8RwcOg5386SW4Ssa5K8FhsJ+mF99NYq9e12lSSoD6Rio5zGgqNhCvI70Te74X9/66blgKNy8rIS4zbfpoxyHXMcrOI65hrXaGVqrXcTK8hJdrK/itiGXOzmih/EmInYtSKDTxLucvpDLBv80tpwq5kGxiGPeV9Afnsa566/BMhTqLsoEz94wbBVcy3zs9iy7AjPs4JszkF0GIlEFJJFahvU93oTyXhsMz5zxkL7Vnfp7M7T0LdtSWVaOAeHFqu/aq7ieC4ZlJRyMvMmgvlforHQGg/F32fZHGsN1LzB4eQY79mWzbn4inbomEby/iExxtIyII16X0et7g/ljrmDW6xbfnSomt1TEPo8EDJ3SX4+bVNDC138EC3OIPQoPJABceh4GG0HYcciqFkAjnTOsdx5KYSgFlPQhpYGPgfcbhuXc25PC0F5Xcf8mi9CxFzGeeJc/QpIwM7tOzNEiHpSWk5uUwRSTeAaseMDVDME6FJHy6y0sdePp2O06vr/kcfOBiLKyIr52uoDlrAwSUiQB9IK692lzhqJsWDkEesyGMykg7MEsKoHsTMg6BYMMa4Ghfd0BNI+syBes93t4mRSGDVwRVloH0v/vr6X4XsNQVMqf8y7T2+Uex26UcinmGh07Xaab1nm6z88kLlUk5gvFufj0Ok+XGRlcSBFgWE5pZhFx/+ZyLK6I9NyKfPnn7jLC8BLjv87jdo5kwM0L0uFpMEwSrEIT8NsFGflwdB1MtAMb64rjLb8EBy/YmwgFJQ8rUQaxw8DUGc7dEQJjq/6lHobFS+BAEhRWP1k1q/TbYwlIYSiFodQybOBj4L2GYUkB4faXGBedy43scrJ336GbShwt9a+z9nAROSUC9qDsdgbORufoviibK/cq5w0fK0LhU9m9PGImXkLX5jabz5aQXx9vynkaDHOvwMaf4eo9yDsOI3uBawRs2wN/h4ORAugbg5E5jPeDi3dBCATaOhPUu8HPZ6Hg4RIQUR4c/g5GWoC+HfydKIVh1S6u89s7AMMY7l2Yy/ZdC7mRHUFp+UMLQRTKnSteXE8Npbg09ukKv8yXfd+NZuuJALILYhCVx1IuKMnSVSQl+HI3J+px2XUpz5JIikqF62uwVEQhnNpgx4qoqZxKDqNYVEMeibILb3twcM8cTl4PpaDkGdrw6NpIrh+ewqZNMzl3N4yimuryKG/ddXg+izOSC385sforZ47eCqWgrD7LflpZMWRemMvOAx7cyIp8tr56aRnE8CDFn4zCh2OjMIBzcSvIyItCJJQtCuLi0QXEXVtJXklMxXh66Xs+KYf3GoZlRWwYd4neU1KJikpl1oCLaLSPQ84ujUPXS8m9X0Tc7vv4jE1ARTMR352FZBRVAPKxZhRx/3wWgRMvo2+YiMePeSTnlgtBqi//9zQYlpdCTi6UlkH+LjDXh3kb4Nxl+GMp6JhDxM+wMQyWrYUbGYgrlrwd+uiBYQ+YPBfcXWFkP+ioDdZj4LsDcK+gIu/Lt+K9KOEdgGEUJ8JMsXEazP6kIEoeKn5R1iy8HbUZ7Tebq/cja1ZEohDifhiE91euXE2ejc9gXdx+WErcVnvmug/n78uryL09Gfehpiz5eQmpeU9XaHkHHJgyvhu+vy0lPS9a4r6R3Enw5PQfQ5lpr0bPkX35/ngAOcW1QS6GO5tt6GdpgNeuFdwrqi3fk8oRIjm6ygiLnt358UIgeU+B7vMBr6b7PTwm8mfTdBUMulnxw+u8rxg8oez20sfKvi9bL66ioI42l92cxw9rhhG0yp5VT6ShfHfAh6z8mIcPUGEcCLNkgucE4lPDKHsEsxhyzoxhjr0mg2Y5ceRWAMdWm9PXQh3nmPnczo6iOGEs0/qo0G/uBM6khL8yQL/XMCwXkbw/nblOV7G1vcp493R++T2bveeKuHUonRmDL2Okd4EuvZPw3DnEhowAACAASURBVJDD1UyR2LCS1O6i+7mEjL1M1x5JeG3K5Zo4T32QEHgaDCUrUnYXIqdBdzMwMQHjTjA1GpKyID8TUu5BsbDsQjBjc+D0X+A9F8Y5wSgnmDQLIn+EE1cgp1gKQknZPsPndwCGkRzwVEOtZx92Xl5F8UMYlpweQj91GRzD3biRXQvEyiO59qMVNl2NWbVjDNPNlJnx9SS8h8pjaD+EvVeDyT08ABs9PZbv9uJeyUNr8ZFCrA6GKM6G6KGlqi3Of7/4cX5RljvR0zoyYKgFXlHD8HIfxM+n/HlQBwyvrzVBS1YR17+Wk/5cMIzmxjem6Krq4vPPIuITFnPgzwms/Xk+t7Iiqij07MNOLPccxDf7fckqqARA9XY94/eSJQQPbE17qz78k/j4weRpsC3L8ubg5hF4u5ox0l6Xvn21GTi0E9MW2rNxvxf3CyQfKmqpS+48ltm0xmTcSP45vZzEi4s5smcGv/7lxvUsCY8Bqyk+7cTsUfr07K6IrlIzVPUVsbBSp0cPIWkyLcaVk2e9uHUvnOKSIH6e0h4dR3uO3wipsPjE/R9LyV03Ip3kUDXqROQhH67/68Skru3oPmc8cSl+7PHRQVNZFddNC7mTF12zt6DWsVRLO2vI/17DUFiZUFDKjUv5nD5dwJU7pRQUVSywL7mfz5/f3eeH3x9w9GwhaTnVF95XaMjyolIuHcnh8JlCUsVzh/UEQqH454GhMPl37zqcPAL798Ghf+H6fSipZSecskK4exsSE+DSZUi6BdkFFUE4z6D8pVmqSqDhwrB0JZeOzuWfHTMIcWqHrJEJ/l9PYtvOBVy6G8rFNSboqagwc91Mjpz15MKFyrScWxkRlJTFUpq8mO3f9meiUze8QnoyUEsG25m2zHTUYdhsO77du5zTkUbomxrju2k6+4+6ceyYG8f+9eC6UEZ166PMlw3j26NoYcMfCauquCcLb7iyZeMIFo7QwGJQb9bvWcIdwfUqqs3ii0EMw/ZKzN22nPRaobka8payNcoeH09blnr0YaFbD6YNbE+bJp8jpy1LR4N26OjKYjrAlj8SV1HwyG0aTdLXnTHW1MBt+3Lu1gTckgCObRyIm/dETtwJffSwUSPgiuayxLIleqNHE3cnXAIctSn2SG4fGIXbcFUMdTtgbtEeNTV5eg42xMFOky46rVHXU2GE1xTOpUtaVtEk/umA5zxLnCd2YfQoYxz6K6DY9L80adcGfQM5DDu2Q1tLBl3L7vx4qap1LMoJ4HL8Ek7tG8xQ9ebYuI7lz/2LOHVqsThdPDeRRUMNcN+4lJQHq/hpsizaw4Zy8kaouE0lSfP4+dtRREXYs2yGEfbDzJnvZU9o8ABcJ3Zi0uy++PtZ01/rC1praDN1yWBCI4cT/f1crmZUBXONcqwBeHXle99hWFWlSXwrF5GfW0ZhieDyrBtwotKKPHXnkij7WT8+FwyftVBpvlchgYYLw7zZrBiiirFmaxRa/Jf/ffYZckqt0NDRw2fXLFYNk0WmcSNk1WTQ1W+PfmUyUGH298tIzY2l8NQ4PF27MszRGHubdrRr/D++bNcOi17aDB5uikvEJFY5tEO25RfIq7RBS7st2kLS08Vr55OuS9H96czu3Bxdx8H8snM+J8/7cj8/mrJSX7a462HdqzM+Gyax+W8PbmdFUiaGUgx3/h6K6yRTHB0McZBI/Yyb0rjRZ6hZaDHQvuo5Bwdj3Dd4kPIgmvLChaydb46TgyGOw4wZOboz48cZYqbUiKZa+rgFjeX3XXM5csqbtLyoh/cVABVF3Epd1Dpo4n14BRllNYC5bBX7ffXRU23HAO8ZXLkfWQVyJXFjWTDBiAG2Otj2UUCp6X/5Uq49lj206DfUli2JK2tx00Zy9c+BOFnKoGVmwpI1M9j7rRXmqs3Qsh/ErwfcObFvIr6jFFBVaY+9/yyuZVS6u6O5sc2eBS7mOE+1Ys6cTlgpf0ZzDS2medgRuWYs32+exvZdruw/uozk3JrnEItPD6afelv6zR/Od7/OYNs2F/bHB/Lgxlgm6LVjZMQibmY9CcOic5NZ6dmLWbOsmeViwbDusqipy9N/jBlTXayYOdMaFydVlJp9ioqlIeOmWDFzljVzfCYRlxr6yJVfF+Ce55wUhq9CNdZTmVIY1pMgX30xDReGpUFcOenGwb3T8BrUmjYdjVm5YSq797lz6q/+9NP4nM9V9VgYOJxv1jsxv28LWimoMd1vJDsuBZNXHEvZgwASE5ZyaJMtQ/S+4LOPPuSzzxuhaG1O0Oa5nNw/gtEdv0S5lw2R6535yUMHJVlFxoVM5GhyGEVlMdzdNxz36Z1wGKxL325tafv5h3zeqgXqmm3R1Vdg8LJpXE4PImnnQAbptsTAwY4diUEUPrIIY7ixuTfD+6jQyVQBU4mk0/4TPvno/2iu2I6OxlXPmZoqMTbcjZuZ0ZSLwki95sVFwfq9uIxLCV5cSVzGtqVaqGto4b5hGtu3TWZd2EDcpnXCyWMS51PCKCuP4rCXBipqBkSc8uNBdUtXsFDKo8m+Mpm5Vs1pp6yF1w5v7ktYkKVXZhDu3QfX2d2ZOUoF+WaN0bc1xXlGd+YsHMW+W8ESluhjCzH//BimW7dB1bIbUds9uPMgioytVpjINaHb0jlcuR9NeVkE967MYGnf1shpGRByyJcscSBRLEWZAVxPWsG1JC/2R3bGRFGGIf4ziLsZxIPccAqKoikTxVL+yAp+fO8K0ERxMdoIHZlPadmhJWoabdBQk6HPEheunHdivJ4soyIX1whDUe4qbl1fQWKiN+f/HsJwg6ZoDOzP5oMeJFzxFh+/eHQ8c6xbody1CyG/L+BcgheJN1aSW1z/7lIpDF+9onzhO0hh+MKie90XNlwYPnQlibJdWdKjBa069xTPGRY9WMzq8QootPgfn8gaEnXUm/QHnkQPk0Heujd/x/uTVxJbMX9Tsoq4Xwczqac8nfrr0LlDa+xmWuNoo4zZsAGEztVAo9V/kRk8jBPXg7guzMPpGhN+woesMkHRxpK5bxiuU80YP8WSIcZNaKqghkvAKDZtmUjwWHmUDc1Zfy6AnLwA9vrqoa3YjhER87mZXTkPFkvhPR8unV+CsEvP4+RG1Jh2yHz+fyg52LNltzunq5z34HJyKIWlMWTHTSU22A6v5f1YuqQP7vN6MHNaVxwsWtH880a0VWmDhkYbtHQ70MlSA7sZIzl8O4Si8kj2LVFBWdeUtXH+5NYEQ0HOZaFc+qYrxrJfoDFyBMdvhz4KBikvCuVuagB3bvtzbZMlRgqKTNkwl7gkf24nB5FbXENkrSiQv9zVUVNWY/4Pi7gtnk+L5mJ4RzRkZJnysyepBQ+tVFEEV9d3xaB9U3r5uHI9I1oiMjiK1EPDcLZoTrNWLTDtrsvQ0d0J/suTe4+Cl6LJubOUc1eDyC96PCcqynEjcFBbVHtYE/PTDPb8NYCBKo3pPGsaF8/WDcNKmN49PQnPYQootGmGqV0XZi/oybxZFoxx1MPGQp6uvXXoqiVDp/7dCP1rKXfzK/u8Ophf7rsUhq9bbT7H/aQwfA5hvdmsDRyGMST/1h0L+U/4X0t5nMNncfHfEYzuJM+Q6cZ0UlRgxvdLSb41lVmdWmAyRbCIIh66+WJI3TkQx24KdB8zgO+3jcbTuTsR2xdz+tBUNkT0Yah+c9QUGvOlVX/2JAZwxFcLdTMrNl8IfGTtlGYHcv3aCq5dnsZC65Zo2g/lwOVVFBRHkrbZEiNlTTweBt8U3JzKXMsWyHfpweaLK+uMeKRsBWtGtKXtZ/+Pzw178Oslybk+SeUZS+4BRyYP06WnjQa9+urQf2BHHIaZMnaCGc4Oisg1/QzdEYPYuG0eJ84s5dLVQLKLBAslkt3uSigZdGHDuYBa3JnCvWIpvTuThdbNadlWHe9/VpAhzGGKIsm+u5KU5ACSk/25sNoUbUUNFv7uxsXbASSnrOKBYKFVs85E6VOZ1bk56oOHcjAppMJtKApm60x55JX1CTvuS7aEy7Y4YTgOGo1RGzmGi3fCK2AoCuHi1kGM69aKNjJtsHS0YtGSnjhZtUWrf39+P+jK9h8cWTLViF5mcnSdPIa45Mpo0HAurDejs9wXdHQey4nkcIoShjNUszl9V8zn6sUxTKjVMowmO2kBm4OsGGImi2EfS5a4WzF9hiVTp5pio90Upa5GuCyyI+bnWez5ZQhTe3dAW0+RvuMHsuX8SnKfZanPc8wbSmH4ZpVonXeXwrBO8bxNJxs0DEVZbgQNlaXdF//H/33+GbJK7ek3dSBh66ZyKnE+gYNl6TptDLvXWNBVuQPj1y/mzqPlEbHkJs5m4zcT+G23O0fWdcPGugur/nTn4tXlXDw1nXD3/kQtM0TL2Iy1p9xZPaE92vZDOHo95AkFX3hqKIO0ZBgSPJ/rWRUWQNHePliqKDHzV09SC2OhLITjgfpotJdhzNrFJOc+tlSqzxGV3Z6As1FzjGxUUW3XgTHRC7glzA/WoCTLsv1JiK+wLOPOLuFcvCcXE7y4es2XG1fm8/UMNfQMNJn1jRu3c6Ikyojkn4XKKHXswrdn64KhsGYuhP2eGig1/5xuy2ZzNSOK8vy5rHLSxcpUHhMTeToqfUajjxvRXksWA2N5TLqYEnrEl4z7Ppzc48rpmyEUlMZScmIQfVSbYrPclWsZD9tU6MaKni3pYG3LnqtVI1FFyeMYq9MEhcHDiL8VKq7L8TVW9DNsiaZ1F3w3zuFkgi/Jtz35fYE6irLN0dCWQVtfHnMbXYZP7I7n13PFUaVlRJN60JFxXZqjpNkWDU05eo62JWa5AVqy7XHetJQ7SeNqh6FoFbtXGNLNVAm7mXas+cmFff+48Ocf09j623CcOzVFy86Wdb/O4dCxRZw5uYBD+6ezxtMcu2G2/HZRmEOtYW62hn6tPiZq+y6F4dukUqvVRQrDagJ5e782XBiKgjkWboqJugJWxo1pZmyM2yR1DDQVmfTVQu48CCNhTSeMDdSxMf4SGVNLNsUFkv/I4ojh1m+2jBqggVU3ZUxUvqBJ82ZomSjSpbM8nbsqMWz5DM79OwInE1VmRtsxzLANfZbOJPGeJFAEyymMw77aaGgbEHrYl+yHT/5Fe3pjrizAcBlpAgyJpeDCMBy0vkR95CjO3AmrEozyWNmFczbGmI7y8kxbNwlvBzm0zM35+rg/OXVYFUWpHvz9rT0es8xwctBnQD8dBg7Wp791O2SbfEwrZRVmbfQgJbdyqUkkBz3VUNE25qsz/uSI3aSRFBbFInrCZRpL1q5eWCo0olXfIRy9EUJZyQr2/zCamDAHwsKG4GzxJc21tJm1dBAhwrGICRy8EULenSks6KfO5JhF3M6OQXhIsFBqyeCwRdzMrnggKDozlEEaX9LZdRqX0isDZSos4MJjg+it/AXakyaSkBIB5VGkH3FimddIfj28nPTcUK4fnoDfNH3M1D6n0cfN6DFzCBv+nsfxs8tIvBFAWmY4xWWxlN2cwsJ+7ZDXM8J/8yx2/mDHhB4d0JL7lE/lDYk54Ud2ch0wLI8i9eRsduxfSPz1RWz06Ipjfy169xaSMpqt/8eXcrKYWWlUHOtrhPcfy0i64UtCgh8ZBZIBTBXte9zvL/ZdCsO3V8E+39KKt7gd70HVGiwM808NZ5RpKwycHPAf2wFFm978cWgW34WP5O8LgeSWxFKcPJ151q1p/fnnWC9zIUGIhHzksoslP2U5p47N568gEwxUVZgaPpG/fhuAnUZr+swbzY74IPJzvVk/XgET49a0aqeB599eVQJIBEUmui+4EFuhO2w4x24+nk/L2WqFkYIqC3Ys567gVmQ15YXL2bjUioUxs0jKrHTZSirBGHLOjWGqWXPku/flz0sB3Npvx2D9Vhg7DGLb5eAad3YpS55NwFgNuljoMHpGb7wDHYiIGk5UhAOB3r2Z5qRP78E9WP+vn3htY4WFGU1ckC7qCtr4H/Uhs2w1RRfH4j6zHxsO+5MtESgjbmfqJGb2UMRsxFAO3gyhWBRNQW4o2dkhZGd6s2Z0W5QHDGDPOV8yhWPZYRSUxCDKnYmbWUtMp04kPiWCkrP2DFBviqX7LK4IDxaiUA776KAuK8+sLUtJK3i8PpMSP/5YoIZi8xY4xi7kdk4FPEWFwaSmh1KQs4LdEVYMNFfAaogly120UG6rhtt2T1KLYp4IoCnP9eBbrwHE/LGIWzlRlOQHcfFbc4zbfYrqiFGcuB1GSWodMBT6sCRKDFaRKJyUBA9OHHPj6FE3jh4cxyzz5mgP6c/3f7hyRDh2dBGX08IpevQQJtnX9fNZCsO3WFNLLcO3uHOqVq3BwrA02QXv2f3ZeGQZfyxUfbjoPpCMjBAKSoT5sBgyTjgyQu8LGn34EcpDBvP35RAKq28Rlu/JukmKyMm0pteUAQS562NgYkqkYOEJkYvlkVxZbYJeu49pZtWPXVeCqq21iyLxu66YKnZg4reLuJ0WLJ6PKy2vCAjRVNNn1b8VATdiC6A8isxkP5LvhVFUKqH0xW6yGB5cmsIyhw60b6/EzO8WkiwElxQEcCDEGCPlVpg69GNznLC9l6SrLYZr35nRSUsNl7UunEz0J/VeMJlZIWRlBokDXG5e8+LSFX8yCySjGWNJ+8GcjnJtGb1uMXdyVrJnuTaaShp47vRG2DRAXOdKF15pMEnnl3AuwZ/sQslyhCAbH9aOaou6vT0nqyxOXw3F81nevRU6o5yIux1GWc58vPu0QsGoC18d8Sbhn6E4GTVBtltv/hLWZ1a6EQv92BtugaVSI1p17s5PcSslLHvBdRvM0YiuWBso4ug5lp2nV3D7t+6YKmuz7OAK7lfva6Ed5ZFkpK4ku6BiLlOUtZi1zorIK6ixaKsnd4Wt+NKdcbFUYcpaD+5kP7m0gnw3vpprxojB+tjZSaRB6ujKfEwzRTl69NGtes7OEI+fl5OWW02mlbJ9if9SGFZVam/VNykM36ruqKsyDRaGlIaRcmslDwrD2V99BxpRKIk7HJjaSwYFPX0mj1VDR6U1JoNsWLNvBVmFlW7C1YgyF7HW3QbPAFumDFRES/YTGitrs/DHRaTnhXLzoBOuvVrTrvnHfCqjwISw2VwV1gg+VF6ijLn49pdBwcKG384t4S8/c8bMtOObn0bh2rMV7S17s/3K451xqsBFUgEWBnJ6y2Am926HbBsZBns6i7fwKhGDIZbCu0vYvFgHbblmaJobs+hrV65kVq6fi+ZiZEc0NTsSdMRXHOla630k7ynsxpI4hnGGzVDuYsTUKYaYKTdGfYg9/1wVLL/nUNzlQWye1gFF465sOB1AngSIym6NY7x+MzrPmsqltEjKy8O49H03zJWboaonh4HGlzRt1YFJa4U5zWjKS0K4enACflN0MFL4lBYaeizZvJiUaru4iLJcWGjVCi07O3ZcWCW2vkqvzWJt+AT23wom/wlXr6QlFkNe0hyiXLTQlm1BL/dJnE6tWNhfXryKxDgPrqSGU1QS9MSiewo9+DmgL/NcrJgxQyJNN8FS8VPa6mkxYrxF1XMzuhO2w4f7+c8h02p9VVufvgswzMsrIy2thJSUYnHS1Izngw9OPkq7dj14dE7IK6qXjUPrUo31dE4Kw3oS5KsvpuHC8JGikNyOzZ/k+Jl8tdiU7vrNaK+rz+Lv5pNw1YO/grtgptoMFX11xgXO4E5GBBBDSaY3hzaPImCeAZ1UWtLZ0ZLpY41w9hiCz1xTehu3QrWzCV5rhjGvf3tU1eWwnT6UPwUXakk4cas7YyLXmiHBrlzLCuJEbFcsNFugrNyUVq3aMjxECNyoPscooZRFQZzdOgx3J01M1JrQSkGJsX6TOXEzVOyKe6wAo8lN8WBrYGe6KjWmnYIM5lNGcfyOsIg7lpzj9gzpKINJ/64s8HEgZs1o1q0bw/r1YyvSt5M5khQsDmB5XOZqyotXcjTGnG5qTWjd9FPkzM2J3OtNpuBifCRjifrWeiyaW792x1K1JUYDu+H71SS2/jmdLd8Nw2OUAvLCTjq/LCW9QCg3lpIsb3ZH2zC8pxJmNobMi5nJ+bRwSsrCif/OhsFdWyPTvAk6tlaE/7mYWw+ETQqqgqQ8cwozjJui1Ksf2y9VWJTlxeFkZoSKN8Z+7BKvWv/STC/2rO/P+F7tkW/Tgm7ThvNPQhCF1Sx1UYY3x/dPwaNvC5TtH+9AgyiCzNQAbt/04+bDdD1xGRfiJjOvWws6jnZk90mvR+cq86Rn17XjUNU6SvbR0z6/CzC8fLmAIUOuYmJySZwaNTr9CIQCFLW148XHu3VL4OzZfMrq440Sr16/Pud2bK+jQtJ71CaBdwuGlxay0VUTfbmm6PbvTqSgRLMFJRpD4f0VHP2xPyM7t8Zi7mSupEUgSpmOl5M2ZsaKdB/YmQXhzhy64MUuX306abegg6IsNhMGsnGvJykPQkg+N4PgCcqoa+riu1tYXhBF8uFx+PuOYu+VIArKYshP9+b4trGEBgwm+oc5xAtvp6hrvqg8mJ0eWuiptsHcsSdRW924ki5Aoarir1CIMRTc8+HUX8OZN1SdoV4uXLpbMQ9aXhDA8e/7Ma6PPJqKzZDr0BQ5uWaPkryyLgGHVpBRxb0qKOBYijJ8OHd4Jlu3unDgjI94L9DaQFKXYi7N9mZ3pDUDO7VBRaklKqqtUFZqiZaRJs6B0ziXGk6FpSvcN4bCTH+uXlzK+YsrSMmOrNiaTljkf20OMZ698ftqCgfP+ZFV3SVbCeRSf3Z469NRuRV6ndToO1CfIUM6Vk0O3Vnzrz9ZEi7fosvjxAv+FTXVmOA3kUNC39Ww72zJuVE495ZHsXkjtCaNJz4lvJYHhBiSf+/HSFt55Jv+D+0pzlxIjagl74tDrzbZvwswzM0tw9HxGp98cqoKBCWtQ+Hz4MFXuX69iPKnbK9Wm8J77celluFrF/mL3vAdgGE0V7YOZmHQZC6kBhK/dQRRG6dz8Hx1JRpLad5Krp2ez78Jq8gTLJ98bw78Npnf/57LsbNe3MkU9iyNIePQCJZ42LH617mcSVpFXvHDQIyyCO5fX8yObXO5nC68gimW0oIQ7t4V5ikfB2uUFYWTlRHMA2Fe6qmuxmjSTs9h5343ziQGPjkXV6n4Jf6LikJITlzGlRRh0X3lvGMsJTmBXItfxOE9LmzdPJFN349n48aK9P2PszgvvM6plvqUi6IpFnZHEXZtkbhXbQq45uMxFGb4kXBmPrv/cObHH5z5bdtsDp3w5Ma92gBfAxxEkWSmBXI/5yEga61PDLkpyzj02ygClvZk9sxuTJ9myTTJ5DKAn84G8kDiIUCU58uB36ey64gHSQ/rVVObRTl+nPt3Pvv3zePElYfjoMa6xJJ7bBRuUzrhONKSoO1e3Mt/Xsu6BjnUeK8n870LMBQU2LZt2XTocK5WGDZqdIpff82ksCG9sFYKwxdl02u/7h2AYSyFWSu5k1YBpOLcYLLy63BHiWIeb9NVHk1RQSTFpY9BJih5UX4QyalB5NRokcRQXBT1ktCoqtBEJVFiS/BFrLGaoCSAraQoksKCCAoqk/DOvZcCXdU613Tfx8diKSuJorAwkhKxbGuycp+nvLryxlJaGEpGegC3b/lx84YvNyTTzQAy8oXlDJJ1iBH3e33KQxgzt2/4cDXJj3u5dYy/ZwTcY1nW1faKc+8KDJ9mHdrZNTCrUFDnUhi+dqi96A3fARg+XVk8j2KR5pXKs6GNgXcFhoISq806FNynW7Y0MKtQCsMX5dIbuU4Kw1fwpN7QlKm0vg37AeBdgqFgHTo4PDl32CCtQikM3wjUXvSmrw2GBgYdsLBQkSapDKRjoJ7HwKef/g8DAwMSExNfVA+8VdcJ1mH79o/nDhusVShIVeomfavGVl2VeS0wPHHiBHv37pWmNyQDRUVFPvjgg0fpq6++kvbFG+qLV/k7yM3Nreu33mDOVbcOBw1KbFgRpJKSlsJQUhpv9efXAsO3WgLvQeV0dXUfgVCA4pkzZ96DVkub2JAlUGkdVlqFBQWihtkcKQwbTL9JYdhguurFKyqF4YvLTnrlm5FAhXV4leHDr5GU1IDWFVYXlxSG1SXy1n6XwvCt7Zr6q9jrguH48eOxsLCQJqkM6mUMtGljiqysKZ06mddLeXWNzVc23yqFYf0psldckhSGr1jAb0PxrwuGwn2++moUe/e6SpNUBg1mDCgqtnh1UwdSGL4NKvCZ6iCF4TOJqWFnep0wPHPGo+qbLqRLV6TyeMvHwCtdmiKFYYNRnlIYNpiuevGKSmHYsNcRSteBvtr+k8LwxXXLu3SlFIbvUm/W0hYpDF+tMpXCqmHLVwrDWhTHe3ZYCsP3oMOlMGzYyloK21fbf1IYvgdK8BmaKIXhMwipoWeRwrCaMhVFkZcRwNXzCzl/M1T8+qbHwIlBVBZNSUm1VFrxBpKyspgnz5VEU1YWS3l5tfvU01xZ4YUZfL16FD8f9SO7IOa1zkGKMj3Zv3MeZ26EiN+Q8lhOdbU1huw7y4k/u5gzZypS/I1V3Lu5nAvnPB4dO3NuBXfFm6hLlhXJpe1ORP8wlxuZEY9eov1s95Us59k/S2HY0DVc/dRfCsP6keNbXcrLwlAkEj3T++OE+7zxAJoyfw7/OJKwgEGs8OrPUo/euM3rzszp5kwca8qwIbr06aGKeWd5jAzlsJ48imO3hRckP1Se+fMImdCRXhbKmJtLJAt15nzrjO8kI2ytJI6L86gyInAON+9HvgJQxXBnUzcsDVRw+cGT1DzJt288u8J/MZjE8GB3fwZbdcRj6zLu1gHiwiQXghcPYN1+bzIKw/l3tTXjHHTo10+bnuYK9HafxK/B1kwcpku/fjr0661KZytrNl4MJFck2Y4Q/pivhvnE4Zy+FYpIFMSBmN7MGG/KqFEmTyQnZ3v+Tgoiv7L/XuABRArDt1p9vbbKs72+tAAAIABJREFUSWH42kT95m70sjD08vLiu+++IyMjo04ovhUwLA/m3++H4LWoJ67TLJk1vzeLPGzxGKeGqmwH7BfaEbluDIEupkxa7MjmQ15VX2ZcvIxtsfb4eNqydOnDtNAIE5kvsPWZzLrQofgtlzi3xJI+6l+gP2USCSkRYhiKsuezdnk/fL+Zy82sCEQvoKAfwyuas8F6qLVXZfE/3tyTeC/j4zySMKn8HENW4jw2Rw/AdZIJ9gO06Wurx9AxlixcNZ79lyteaFx3GWEcXKaBuklnYv9ZzOVET84cmcO2X6dz7HoI+aWVYI4h5+xonC1l0OzSibB9yzm61YnwlYPw8enP1B4t0Rk3ip2/jCYmxA4fn4GsmK2Dtooh4Sd9ya4Cw2B+niKLpuNQTt4IQVTmx7fj5dAyVMN+ZGcmTjJj0sM0tnc7ZJUNiTjtV62MShk8238pDN+cbnqb7iyF4dvUG6+oLi8Lw549e6KkpIStrS3r1q2rFYpvBQyJIfeuPzfOObOwvyI2U4az84wXiZssMVLQZPGOJSRdmIRrHxXsPadwPj2CMkmrojyS3HsB3LjmzZUrXhXp7AhGabVgkP984q8FcCtJ4twlFzxsWtFp+mMYliWNZqxxG2zcZnD5bmQNL0uOIuXYeFa4DeCHE/48KK6ESk3KO4p9S1RQ1uvE13H+1ayomvKvhiI/DqzpxXDr9ugaKmPRsRVqJhoMdjTErrciOmqt0bMwxmvLEtLzoh/VrzRxOqGeNkxz7sq40SYMd9Clk2IjPm3SBA39DhgZtkdPWwYtXRVm/7hMwkqNpTQ3kHNb+tLPUBnnr1yImaVLnz46DBpiwIDuivRxn8SOUHP699FigJ0BDoM0MLO2ZuOFSsswiuzkFVy+6E7osDao2Pbm513uJNxYQpSjDDpDBvLn4aVcTfIhSZy8OR1pjJa6ISFPALUWudTyUCKF4StSPA2sWCkMG1iHvUh1XxaG3bp148MPP+S///0vcnJytULxjcNQFMKlvZPZtH40a2PtmdO3HRrmprivHEbMPC2U27Rn8KJBLHVWRVVJjsEz+hEc48Tar8fw4z4vMh6CoeTUSKbaa2LRVZGuXZXo2rkNMp99Qi8/N67FT2HpSB2szR6e69oexWYfo+n8GIYlcUPor9aUXt7zuZZR0xvvo0nfP4hBeq3QGzCAbVeCKJS0jko8WL+gK44DdLC11cJUqRGfftkMA0t1evczZOkWb9Jrc5cWruDPFaZYaslgNrIva/5y5duZyqjKy2DvN5UD/y5k34+DGNW5FSoGBvjvXEFGYQWMS2/MYNUCKyY7W+AypzujrVrQonkb+k7ri3+kE+u/d+b37bPYu9+NC8lhFD2yDCvgU5YXyNmjbly8uZyvx8hiNtKWyHWT+CmiB8NH9iN4jioqVl3wjR7L5s0jme+gx8y1C7iVHU25aCV/LjXEpnM7FFp8xCdffomaZjusZw/FzaYFeqNHcPpWmISVHUPGT+Z01DaSwvBFlIL0mickIIXhEyJ5tw4IW6R9+umnVTbqFl73U9fWVNXPNWnShP/85z+PypCE4vr16x9Zim8chmW+/LLYGNtuinTurICxTiuUVGXQ0WyJoswn/O+j//Jl6ya0k21CO/nW6BvJ06mzAp07KzLIcxqJdyMoJ4aMzRYY6euyYI0z2/e6sm/XaLymW+C/1ZvkvQPpra6IU+A4ftvlyr49U4n27M7yDQtJzY4Su0mLD/fHRqU1QyMWcfNBTQEvsZRke7FlriqK7VrSx2smV+9LWJClXvwVPoBFrt2ZPdMEC/lPkdHXwcnZitlzevPVPj8yC2qyJsM5v64b1uqtsJw+nO1xgtUZzNZZcsi1U2XpP17cL4mlrCCIK9ts6aveDC2HoRy6GSKeMy0vCiH5ug/XrvlwZf8wxpo0R2uIHdvi/Lj/IIz8gihKymIoL6/p3g+BKD4fzpFVhliZKWFupkQnfRmMHAbzc6QFFgZt0TdRopu1MsZGmiz4cSmpeUKZEVw7PI2fvx+JS/dmtOtsyvLgkfy4ZzarBreRwvDdUktvZWukMHwru6X+KlXdKpR8ldPLfq4ORXl5+ZcIoIkh69Yyzp1eyMmTz5OWcO1eOMVlsVAeQdqVJZw67saxY0Kay68hFlgrN0ZB/gsaNWqMXPtP+KyNDLazHNi8ay5HxPncOJ24irxiwYqL4myQLhoddZi7cgTffj+BTRudCA+0I+I3DxK+NcNIUYHhyxxYs3ECm74fS2zYEEJippN+P0wMw6J9fbFUbovTWg9u59YGjhgeXBrNBOMvaa1hQsxxPx5UWlrlkWTfDST5jj+3r01gmlFzukwZx/44H27fDuBebhSloifLFaVOx71Ha5Ste4rdr3klsZSXehI+pA0yHS34+UIgBQ9dwqL8Fayf2J72HTTx2beCDIm5yJLU+UQ6q6DY7HOUTNXoP7QTs4Onc/FeOKUPry/N8Sf+3AruC9GgT7gfY8i5tZR/D7iyI7wzRjq6LP7ZjavXFxM+oi2dRg3km80u7Dm0mGv3IigR+o5YSosjKcgPYOPEdmgMHcyhhEDyClawZmRb5FXaY91bFzs7/Uepn0lzvpTRI1jqJq0/hfEelySF4Tve+a8ShpUwFaCorKzMxx9//BIwDOcf3wo3mY5OO5456Wuw4NflpOVXhUNh6mJ+De7GoC7t6TrMlrVehmjLqTE9yp4Fo9Uw1JOn1+jeRP2+iFsPoh7PG4pW8cs0OeTbN0dTrz3GJnKYmMjRUbM1JlNG88N8ddRkm6KsI4vRw3MmHWVQ0+vMxQT/Chju7k1XJVnGb1hCcm3uTFZTXrqKnQvVUGjZGBvvOVzLiBJbpoXZq0hLCSA5OYA7F0bipN2cnguncfSin/jY3QeRlIoBIjk3FkP6Vms6K7RmcMg8kgTXI6sRZUxlpkkzlO0cOX4z9HE7iSIhyhANmVaM/MaDO2Jox5B1cSp+41RRbdMYDUsjXBb1ZYGTKtpaOiz/fR57t08kfIkljr2UMOpqzrq4ALLvzyfWzZJxI4wZPtKGNUd9+HedDSNsVemq25Qvv2iMir4cnbsqoiHzMU3bt8HARIle8yeSkBou4foU2vM4gOboeU8uXV1ExNA2KOmrM2ycOeN6yiCjoshgJzMm26ugZ2rG1+cCyJF0Mz8BZ0k5PflZOmf4jivBZ2yeFIbPKKiGmu1Vw/Cjjz7CxsaGtWvXiucTX3xpRSTxvzngs6Qn8+c/R3IbyPcnAsguioXSUG6dmcXGlT0YYSOPbkcVHOY6snn/Uq7tGMx4++7EHF7EqZOz+W6FGX2N26CqKUvXvqbMDplBgtjyCeXizpEsmdUDn1hndu6bx+HDM1jWvzUGE53YuXU8kSv6sDzIiV93uXLw8AL2BBigoWFE3HnfChj+0xszpfaM/7ZuGArWUNb+fvRU+oyW3frxz9UgisvD2b+qE/2t5DExkcekYwtaNPqQpu1l0DMQjiniFLqAmxlBXD85h72nfckuEMAXxQk/LVTl1Fm+fwUZD63MwqMD6KnSFOslc7h6/3GwDMSQvKEzOrLNGRy5mFsPosk6PgqXfh1Q0VRjgu949pxczs1kfy783pPuil+ioNEWLW1ZTMw1GDi8K7M9R7P/eggFGW5869WTGcNUUG0rj8tmTxIvLebIvtlsD+2EoZYOc2MmsHXHdLwGtcZkRH++/smFvWd8eSCuuwCoaHJTvTm1dyILejajjVJbupjK08vVATeblmgPHcT2Y0s5HWmETqcuRO5aSMLlpZyO8yYtL+qRxVp3dOyTIBTyS2HYULVb/dZbCsP6ledbV1pNMHzeN93r6+vzf//3f4/mDAWLsBKCX3/9NefPn0d4y7qOjs5LWIaxFD4IIj0tkJSU50ipK8nKr1gQL8qYx0onVQy026Mr34jPvviUdqrtMOmkSJeOLZGVaYq6oWChKGCk3ZzWjT+iiYo8ZgYyGI8bxZnbguUUQ+GtGXiPUKdzJy3xnFbagxWsGSGL1Rxnzl1dzPfz9elmIk/POeM5lxrKvZ/MMTDuQtyFCsuw+GA/rFTaMuKrxdzOqbBYiwojEdXk2syahZtlc5q20mbVUV+yyqK4tn8C38Q4EhbmwEpnFWSbC25dW/xCHAgLc2TTQR+y8vzZskAHm8kjOCXUm0j2LlZBSVmfsFOVSw0iOROsh0Z7BVx/X0b6w0CZCmBEcMxHE+VWbZn0oycpBbEUpy9gzbIBxPy6gIT0MLKvz2eTnyV2Zq1o2egj5HtYEbjBhYPHl3Ap0Zc7acFi17KoNIx7d/y4+rctNqqKTF87iXVrRhEV5kCwqzbqSsqMXNCfgJAhTO7WDO0+5ixaYU9omCMb9nhXBC4VuhMxQYeuOq2RbfYRnyqqMH6hA78ccSVoSBs6jh3Jmdth5B8ZQE99XZbt9OZenVG4NYOvJlhKYfjWqa03UiEpDN+I2F/fTU+cOMHevXurJAFcz/NXGU1aCUFhqcU333zzCILConzhTwDvi1uGz668alJowrHy4lXE7ZrO33vnsmaKPPImJgRumMquva7sWGmElqwC4yMm8Ps/QuCLM+69WqA+ZABbdszl3wsB5BZWWE7lRUEkxbmyadUggqPs8VjYA4eOTbBaPJPL6SGkJriz/ZuBeAYMI1RYTzhFjQ4G5sRdDBBbhqVx9gxQb46t/wKuZ8ZA0TK+dbdm2YYF3MkWXKESbRUF8tNMdbqYGRN80JfM4lhKCsJ4kB1CdnYwiWs6oa2si9eeJdzMFI6FkFsgwD+MnW5KKJta8mO8MBcYLZ7rVO+ggvtOLzEoRNkL8OnXGlkTa7bEr6RAAsYlt6axoHsLmisZEXvCjxzB7SqKJCN1JdkFYVzbPYyZA5XoZNWRacut6KPcGGs3F+JToxDVEkBTcm4oA7WUmLHaicDltiyY053ZUw3pbq3HGGdLZs22ZvJgFSz6mzJpmjWz5/TA72cP0h5EU17qy661w4j9dhzuti1Q7GfLjjh/8gs8CB7Yhk5TxnM+OZyyzNks6i5L97mTOJ/2sms4K/pBCsPn0Qbvbl4pDN/dvq23lgkwbNSoEb169aoRgpU3etMwFAdhFEVSUhbJAU81VDQVsR9vwWzXHswaKkfbpi0wG9aVaXN64DrHnD5aX6A47GHIfvnqh9upRZF1fRF/rx/EtP6KGBjI03OUEVZKTejrs4CryStJODSZ8HkGdDNoi5ahFo69ZGhj1I24hEAxDMvTJuLcsRk6o8dw5k4o6Xv601ezBT09Z5F4vxoMieZ+0lLOnlvOnezIaoExMdxYa4K2ugFBJ33JqjIvFsmh5Wqo6JiwRrz+MJacQwPoo9Ico/GjOHJ1Of+EmGLU7ku6LZpBwt1IRA+DXwpvuhI+WQWlZl/QefYk4tIk11rGkHl0GBOt29PZ0Zb1OxeTdHsqc0xbYrtsHtfu1xQdWwGVRzD8fgFxF5ew9/vBuAzogKK6Nkt+nMvpBA9+XqCBjlo7rEb0IPDbmZx+uM1beXk0uZnBPMgP5IfJjxfdl92bgotJS3otmU3iPWEJRijHgwww1NfCffNS0vNrWroi8bAh+eBRy2cpDCt/we/3fykM3+/+f6bW+/j4iHegiY+PF7tDKy3B6he/eRhWKsFIDi5TQ0VXjXGze7PceyDLxqvQoXkbejr3YJHXQLy9e+Fg0Bjl4dXWr+UvZvVkLbqaKNN3VA9WfT+TY/+OYIxuG4aFLODvCCsGdJFBXV+FwdMH8e2O+fy0QBWVbjbEXVkphiHF3qwb1x55ZUWGTbXA0awlbdQ7suofb7HlV8UyrEVBV1i/sdzfbImhohwTNywmJU8CRGW+bBgvi1xna7ZeWkmhAPPcZXw/XRll+VboGbdHQ7YRrQzNWHvMn5ySWEqyvDm4yY4pth1QaP4ZGoNs2Xw6EHHUaWU9RMH8vVAVVS19/Hd4crcohvLSFexa68j3+/3IrBaoJGmlFxwfRB+19oxZ68bOaGvsLNpjZG3InAgX4tPCKRFFk3l1Lhu8zBjUrQP6nboQ/a8f2ZVRtOI6PA6gOXkjmDtbremqJM80YQmG+N6xFN6exbL+smh1McF/+3LuF7wcEKUwrP5Lfj+/S2H4fvb7c7U6JSWFvLw8aoNgZWFvGwxVjfSY7+/I2m/GsGaBDsqt22PvMZjIr8ew7hsHJps1RW1ENRiWBnPitwn8vnsO+48s5FyCF+e39qK7khyTv1tC/K4xBEWNZfNfM9l71INLVxayemx7lGwHcPZacAUMy6NIPzqCyd1a0a51I5rJKTE5cg6JmZES0ZyV4K77f+mtKcy2bIWKkS4zfEfx49bp/LFlHJEeJnSW/5Kuc52JT4+osPrKo8lKnE30XCN6milh42hDzN9LSRPmVHM9+W6ePv+/vfOAiura/vB7a/2TFxONhqhYsCBSVKyoYFfEjtgbTzRiB0VBEbuAIkhHuiU90cT4jEmMMbYYY4kNRbGDgoCF3qQO33/dgVGqYovMcFzrrHHu3HL2b9+7v7tPo7deXeo3bYrposn8csGNNAl2pVbg8WHPwpa0bN0W5/1OJMh/D5JnbamZRX2zJQEo/3+2O2d/GIf1cA10NdVo1aMr8+b3ZZGzOd/udyA8yp2EJB9SUnxJSfbi3o3VnDxizTefzePEDXdSc0OeZK0lR5P+fdYat/EaaPUxYfflEs28sgBij5tj2asRet06YBtqx+2X0FZhh4Ch4gmu2Z8ChjXb/6/V+uoGQ20dDQaadmbSlG5MHqVHT8PWDB7dhYmTuzFlSid6an2A5uQyMCSUnEx/cnKd2bGsK0N6t6SLbl0+1jUk9Iwbqek+JKT4k3p8IjNH6WLUTQOthvXov3oBtxOeLtRdmOPDnfBlHNhrxf4/1xCVGEBeiT47RSB+7me+H7cPmbN4dCva6TRAW0cdXe0G6Oi3YOjc8ewNL5vZBZIc68LVy+u4etuD1OxgOWgK8/2IPPJfHFeOYesee8JjpL9CUVFGFUzsgVGM7dIQ3U6tMBnRibHjuzC+VOmK3bYVxKYUNfnmRExnvrEGHUwG4L9rFn723RjYRV0+UrerYdGiBtLCBqVLK7oZtMDQeABfhLuTVrAFCtz5Y+twJnSqQ/OxZnhZtaWzTktmhS7jblqRHQq9JH1vHZrC3P6Nad13ELuvSbB89ouF4tiynwKGrzUMKO3JBAyV1nXVr+LVB4bBRHw7nDlLxvPDoWWcC5P+bFDZ4sDuwFG4fe1AbEqJ1V8UzYWF3vy1zZQlVn2YbTUEz+9XEJ36NLPLj1yAz6qBzJvTjyUbP+HIda8SC1cXB+XCEPJziybIl8q+FNeo4qcs24eY62s4cWgBu7+bza4fbTj810qu3PUmM68ioFUMBVmOLw/ue5NeDMiyUFB8L8jw4OpfVmx1N8XB1piFC/pjbV2yDMDl+7Xclwa+sIWCVCd+3GLB3pPOPMryJznWmfN/WPHNlsl4e4xjk9sY3CopmwLmc/6BHzlSdlrgzR+Bg5ltboj958s4sWMC7tttCIvdTG4FLxISEO+es2L713bcLrEggMKOqn4KGFa/WPI2aiRg+DZUV9FrVh8YhvI4wY2oe4pVZSqCQwhZyV48SvaXr4BSvh8vhMxED+7FuBId40FSZhAFJQJyYa4fj+I2ER3tRlxC0Tqd5c9R0XVfflthQTDSFI2cPKlZMbT0qNQqgrWqgCjMDyQ9yZO4e25ER7ty927pEp9UtHKM3GZp8EuKH9nyehXZV1gQRFa6H8lJPiQmeldaklL8yZGWcJPqXxhMWvxGbt9yITY5gOxUb6QFBqQVairVtiCAtPQA+SIEle7zHG0EDFU0IL2gWQKGLyiY2L1yBaoPDF8eOFWFhdhPdTQWMKz8ma5JvwgY1iRvv2FbBQxVBxA1CfYChm84MCjJ6QUMlcRRylBNCYYGBi3o109HFKGB0twDH3zwH8LCwt7MI9axI/zrX0/Lm7rOm6l9jTqrgGGNcvebNbai1W7Krn4jvpdeDUjSw9bWFjU1tSfL3W3YsIEDBw6UWjVI6FZet9epyYuuylTlJ0nAsMpSve0dBQzftgfE9Wu8AoGBgairqz+B4d69e8nJyanxuqiEAAKGSuNGAUOlcZWoqKoqEBAQUAqGP//8s4ChqjhbwFBpPClgqDSuEhVVVQX8/Pxo2LDhk8xw37595Obmqqq5NcsuAUOl8beAodK4SlRUVRXw9fUtBcP9+/cLGKqKswUMlcaTAoZK4ypRUVVVwMvLiwYNGjzJDKXBM3l5eapqbs2yS8BQafwtYKg0rhIVVVUFPD09S8Hw4MGDAoaq4mwBQ6XxpICh0rhKVFRVFJBGijo7O/PJJ5/IS7du3XjvvfeeZIampqbMmTOH+fPn891335GWlqYqpqu+HYWF4OcHU6fCxIlQr97TOYbSfMPBg4u2S795eUFiouproiQWChgqiaNENVVHgYKCAjkMmzZtKv+jye++++4TEP7rX/+iVq1a1KlTR54t/vLLL2RnZ6uO8apuiQTDHTtAUxP+8x/4979Lw/Ddd4u216oFn30GGRmqrojS2CdgqDSuEhVVJQUiIiJo164d//73v0uBUIKhoowcOZLbt29TKAVY8U95FJCyPSkDlMBXcvWZkv/v2RMiIkAmUx67VLymAoYq7mBhXvVUQBogY29vT7169Z7ATwFBRXb4ww8/8Pjx4+ppgKhV5QpILy+ffw5NmlQMQylbDA2F9PTKzyF++ccVEDD8xyUXFxQKFCkQHh5OmzZtKoThmDFjiIqKElmhst4sz8oORVZYLb0qYFgt3SIqVRMUkCbW29nZUbdu3VJAfP/999mzZ4/oK1Tmm0CRHTZuXDo7lLLCkBCRFVZD3woYVkOniCrVHAUuXryInp5eKRhOmDCBO3fuiKxQ2W8DKTscNKh032GPHnDliugrrIa+FTCshk4RVao5CkjZ4aJFi/jwww/lQKxduzY//fSTyApV4RaQskNpxKgiOxRZYbX2qoBhtXaPqFxNUOD8+fPo6OjIYThlyhSio6NFVqgqjldkh++8AyIrrNZeFTCs1u4RlasJCkiT8K2trdHQ0EBapFv8+SYV8rqUHX76adHIUtFXWK0dK2BYrd0jKlcVBWbOnEm/fv2UurRs2VI+2b5Lly5KbcetW7eq4rJX3kfy+T91rVeubEICrF0LN29W+75Cqck+LCzslU1WxhMIGCqj10SdSynQsWNHtm614OjRJaK8RQ20tBr8Y4FU8rmBgYHyvDjo6tKvZ89qX19pZPPRo0dLPV815YuAYU3xtArbKQXGsLA1wBZR3qIGHTtq/KMwFC9Ar//lT/KhgKE8oNTM9FiFOVEjTBMwrB4vAf80DMUL0Ov3e79+OgKGRQFFwLBG0EPFjBQwfP1B8WWybAHD6uGHl/Gd4hgBQ5kMAUMVI0QNMkfAsHoEYQHD6uEHBdhe5lPAUMCwBqFD9UytEgxl/jy658rd+35k54VQ+Fb61gKJPTmXHb+v4356ELIK6xBCcsRSfv9zDXdTAskvfNEAG0J63HquXncjOTu4kms8/5yydEcOfP0Je05vIvVxSJX6YpUNhrIUZw7vtCBouxVnYnzJLgitkp0vBBmZDxHHFvNnmCsp2cEvcd+FkB6xiK8/n8/pe348lj3fdxXVLyfRg4TMIPKec7yAoYCh6hGiBllUJRg+XorH1A6MWzaHqw/8XxoSFQWasttybtry1VYL/nfOg7ScogAry3Th1Ik1hP00GkuzziwMsSc6Jah8cJT5cWh9Z4wnjGDvVa+XCH6BnPTtgZm1OWdjfMmvELjPD6gFsbOxGdSWRV+uJS5DBWEo8+KIvxmbd1ix7/vxrPRcwPUHmyl4Sb3K3gOK77I0W9aP02XCGiuuPgp4ifsuhNidxgwaYsyX4e5kPAdm+ZGLCHEbgb3dQBZa92XW9O5MHK3PwN5aDF8wjZP3/Mh9xguWgKGAYQ1Ch+qZWiUYZlphY/Ax7S2mczH2zcIwbd9QBhvqYbvbiftZRTDMubMAp2mdmbpsEp/59GfsxBH8cNmTzIIyYMqwx2lwIwwtp3L4gjO3rq7m5JGF7Nm3nDspAaUzxQJXfnIbgJ2/LVGJgcVgDeDAslbojDTjeKR3cXAPIea3SSxfPZWj0T5kPyMYKoJ4QfR0LDo2x3Lrau6lVy1jUqrMMM+RYLuR7A5z4VG8FSvtzPk70qsIFAX+JMW7EXnDicsXV3Pm1DL+PGrL7/sXsvd/c9n5pQVbdi0nOjmAgudomXF8JIPbaGIZasuFG+u5GubAkV/ns+/0RlKyqpIphhD9qREdu/Zia9gm0p8Dw4L7C3C06MSwIe0ZO8kQy9ndMdatTZ069Rm+ai6XHvmXvofKwF/AUMBQ9QhRgyx6ERh2nDGD8Lg3C8OUH/rRuWVz5uxcR3wxDAuyvLh+YCIzh7XH2m8evx93Ij7Nn2s/T8LRvj9zZ/diukV3Jpm1QkvtXeppNKazQUu6dtGgvX4TOvY34btrHmSWDIZ56/CfoEFfm9lciQ8oDUMzM/56AsMgrvgbYNDfmB0RHmQVB/DsFHeibztx5dJqzp524PgfxQF/z1x2BvWjb4uP6WU+iNVOo1i3agh2i/oxx9IIC9up3I3zLdekqDQwlAWSkebJqa2mLF81glX2/Vnsu5hbUuYmaZOxBA+L9vTr2pzOnTTo0L4J7do2Rk9XHR3tBmhpqtFcW4s5W5YTm1YCaPkb+MVvJPbWfZht2QML866Y9WiA2ge10GjbDINuLejSqSn6+k3pbzuba/cV92EgKfGu3L7myKWwlZw+ac8fhxez/xcr9vwwmyArbVpoamG+dDhO601Z5TCIRVZ9sJxmiG2oA3HJQU98UZjnw92r67h0aR0R19bwq6ch3TUbMMDGgiPXvMjKf3YXgYChgGENQofqmVoOhjI/os4u4bef5/O/XXPYuWMmX203YYhmbVr07Y3jpkkEbJ6Il8cdAsRhAAAUJklEQVRYNq4fifOWxUQl+b+2JrKKYChlXIXZ3kQcWsixG56k54ZSWBjM3V8n4GDTl7lWxtjZ9cBYuzb12+pjvWYsgdtm8O0P1uw/uIRjp5yIyyjTh5i3Dr8xjem9cM5zYRju0xH9nv359ooChiHc3jmYCYNa0aU44Ou3a0L7js0wMGxFrx6NaFS7Fs07aTPYtBNjx3Vh0uRu/NfCiJkrZhBz3+9JAFZkk9UNhvnxzoTf9SYjtwQACtw5sWUQU2eYsePocs5fXM2FC2u5HudHdn5o0QtF7jp2uQ1j6SITlq0cgfPGcfgETGX7FzP5/itTxrarw0eanfA8vIFkyY+K7CrflV+9hmAzry9WNibYTddFu0Ft2o7oz5pN5mz7YhY//GTDwaNLORXhTkZOcb0KNrDT3oBBRs3p1LHo5aedflM6dm6OYQ8terT5kNp11ejUrw2mozszboIBk6d0x2JaL1Z8sZL7qU9hqPAFhPDw+CRm9m1Gn5kT+fWKJ48V9inqW8GngKGAoeoRogZZVA6GBRv5dnF7erZviI6uOu30NTDo0hD1D/6POk0aYWDUmv4D9Bg4SIeuumo0Hz6a45E+z2w+ehpkyjRrVhBQKoOhdI6CnEByC0KKMhBCyUl2506UC5FR6zkW2BNDrSaM37SQi9HepGX48zgnmAKZBM4KrvtKMAwl9bINX22fypZPZ/DtrvnsO2DH0WP2HD/hwIm9Ixiu3YjR62bz+6m1XL7iyNVrzty4uYHIGC9ycsv3I1YvGAZz88sBjBraiSVfryY+vTiDK/TmT5cOtNFQo4e1JRfi/Mgtq29hICkP3ImNdSf+viePEn1ISd1MRpYPlz7rQ0/Nhgx3tObKo8DSzaSFQSTHuRIV6ULUzaUEzmiJln4XNv26luhEPzKyAsjJk3xfAqDS/VPoy+VfLdm+ZSqffjmTXXsWcODwEo79uYwTJx3Yu0Yf7badWPfdYk5dWseVCCeuXV/PzVsuxCT4k5tfthk7hNRLliw1bUGPiWbsOruJjCoOGhMwFDCsQehQPVPLwbDQn8jTi9n/qw0HjxQFlT93DMJYsw7dZv6X/x1cztmzqzh/dj4rBzegUf/hHLnpTV5FwKkAds8DoxyGzevSZlgf1gbN468bXmQ9MxgFcf+vKcztV5+P1RtgZNKRidNN8NnnSEKmohkumPTYdYTf9iYrpxhExTDUbN2MXv3bMGRIO4YMaUNXzVp80LAhhn11GSzf1paeenWo27ZPicxwC7LcANLT/EiXQzeQh2Hz8VnWk4ljOjNxjBat6zdgqrL2GRa48KVlczTUtXDY58SjHAWAgkm7ZV3kdw1NFn69hvjMEpnjM/ydeXUmNsbq6A0bzu5LnmRVNvo0z4O/AvvQT+sD1FtrYmJmwHTbiey76kWmAlz5m4m9spbbiQHkFISSm7WZtDQJuAHk5HgStmciyywNGDPWgDG9GlC/tWGV+gylezPrlhVOE1vQSrsVY+cMZu36Ubh6TGLLNws5c8dHngFXdg8LGAoYqh4hapBF5WBIKAV5QeTlP30Lzzg4jH5a6kwMXEVMWjFM8p0JmtgYDeNiGOa58LO7CfOmdcfc/MWKxdLp/B3rKx+AIYdhs9p8pF4XDU112nfTwcxyKL67HIhKLtPUKfPl6t4xWA5Qp3GTxvSfbMyqtUOYZtwUfTMzfjq+hP07J7PWqhtD+7Sk97xPuBhXPOqxGIZtenRiprUJ9suGsGzZICYb1UNNR5upc4yLtw1mjmlztPuYsPuaB48rgL7s4WJcpuhhMmEATp4TcfqkNS3U6jE2YBXRaWUzjwqyVLZQnTLDvBvTmdalHuo9h/DLdS9yStpc4E/kbhP6tayDRt+h7Ln2/FG7BQ+XsdlSi9btOuL041oePK4YoLIUJ/a69WKA7oc0aavDZJthrHUwwrh9E8ycrTh+1Iad/qZYTW5Hn25azPt8DXHpJbPsEB4eHMWUgW2YsHAknj4j+aSPGmoanQk470ZayT7jCsCdE70Yj+latKr3Dh82b47J6G5M+6Qn0827MLxvS7oP6MrKb1dxX5EplzmHgKGAYQ1Ch+qZWh6GZYO1Pydd9NHTbIPT4Q0k5hUH92IYNjMeztHb3uTnO/GVnQFDemtiaPhipefEsRyO8pYH3aJm0saMdprGp8FjsDPXo5PWR7TUaUov05447lzNg/QgCmW+nNlmzMiuDWk3sBeu39hx7rorcfcc+cmhDVrN6tO2fRPad9ak7+COmM82wfHTpfJRpdIUgLx0V84cWMChM45ERrsTFycVF3Zat6DVkCHsPeXIPfk2d+5eX8XxE2u4m+RPnqw83DIPDqO/fjvsdy/n1iMf4o6NYoR2PYzX2HErQZGdltW19PdqA0PZZk57dkK/UT0GOi3mZmL5KSwFqevYNqM5TRvUZ4zXUu6mVG6jLHEVn9nq067BO9Rq1pY1PzryqAIYylJWss2mA111mjBw1hi+ObKK69Hu3IuwwsGkAc1aNaa9flM6G2ozeHR3ZtuO5NNjG0kpNY/Tn4MrddAfNpjdpzfwKMmdYxv00dbQY83hDSQo7t0yEJMyvby4JfjN1kW3ZVNMF4xnx+/LOHepqHn7asRaLhyfi9tULdobGbH5uKs8Wy6bIQoYChiqHiFqkEXPg6Hs/kIcBjZAc5Apv9/yfjrPKs+RzWMboTHItGjkZWEADyKdCJcPqpAGVlS9hF11k0+qlkYjPukz3LGWu4+8iYt05OyhWXjZGdBTrzmfbFlBjDQKsTCIhyen4bR+KntOOPMww487J2bhZt2ZPnp1eP+9jxm0aDxf/WbPmUtO3LrrzoNkf3ILpCa/ECK/H8rk6aP4+aZXiWyveGpFqdGkWyBnOQFzurI4dCX3UoLLDX7JOWHGoDZaWAYvJuzmOg77dKdTo1p0XDCfqw8U0zZKw69sIK0uMMyLmotN34+pr9OVwBOupCmaJksCpDCYBweGY6JVm4bdTNh91bPCOZ159x3Yuqg9HVqq0294a/Sa1UPLoCPLvlxBbJmFEwpzPTm5zYz1IfM5cd2TjNSNnNgxFuuxrdFr+C7vabZhkYclvx1fyaVrG7gb60lyZpC8T/iploGccG5Dm149CT64hptXbPEx16BRPQ0W7HHkQXb5Fxk5COPtCZinR1sdLSw95vF3pDePy44clQXy6NwkJnVQZ4SzLZfjA8vdBwKGAoY1CB2qZ+ozYSjz4pi7AZ00GjMpYBl3Sw6Fz13BxqHqtDQdx5k7vi8xIbpiODyBYYmpFYX5ASTFbiD81HKuxBeNXJSCmCzbh/sP/Xic7sKhAGNG922F8fj+ONvoo91Uj+X7HbkvjTos2cwnD+rBXPHvgn7Pfnx92Z3MJ79XAsPHNiw1ashIZ3siE0s2yxXZIEtbx87lBgwwakl3o9YMMGyI2gfv0HnxAq4/VCIYFrjz27oOtG3wIX2Xzefyw8rnAsrSVuM7oTHqag2x2LqK2DLNlanXrNg4Q4c2zdQZumQah8+t5ugXQxnZQY3meq2Z5mHD9cSS5w8hO8mDh6kBpEfaErCoE3176DLeeiQ2wxvQdOBQ9l/xIEcasFMSzKX+H0raldksn6CDUfeWGPXWwVD7fT54vxmLf3biYfEiDk/hKfkvmOifhjKsqw6Wntacv7SEL5z7MnGEPmNmDOeLk66kFvczFz52YMNQdQxmzuDv2+VHBL8JGOZnPiTyyjnOR8SQlJWHDHj8KJLwsCvcScgkt6B6xCTxJ5yqhx9ELV5Bgcph6M+NPcMZ1aEuOmZm7LvqXWrJLVnyfBZ2r4/+tOmEx/o/I0BVDL3SAenpPhXB8Mm+sqf9mE+3+XAqoDcDDbSY7DiD3y+4cO9HE4y02+N03IXEshPzS8Kw14BSg2Lg2TActcGByKTyMKQwmNRYJ86fsOPQkSX86NgBHfWPGR+4gui0ivvHntS/OJi//cwwiJh9ppi1r0ODLr359LQbGc9oVqQwgJvbjOjUpBbNxk7mdLRf0YhimR/X901g/rBmtNBoyrjVlvx5Sxp4EkJeujuXf5uIZc/6NNVsznhnK648Kr0Ygix5OQGz9TDo2Q3HLxZzIcqNH+000TYtuRDC0/ulrI6FeX7EXlvNiSO2HPljPo5mDVFv1YXAM26kVThoJ5SsB+s4fmwFtx94czrACJNhRqxwG8ea6W3oM3oEe656kSX1N+YsY/0gdQznzeJM5OY3nxnKkjmzK4jNXq6sXTgbh+3HuH5uD75O63FxWsrCVZ9y7NYjsgtfIQC8pkMFDF+TkOI0b0+BCmEo8yV81wgmGaqhYWCE9wFnErNDkGW6cen0ck78tZS93kZ0bfoRQ12WEpVUeZ9R2WD1vO/PhGGpLKAoIMpSbFhprI7+2LEciPCSjy7Mj1zMdv9ZHIvxKQpi5Y5TZIZ9+fzMBh6lbyYjQyre/GSrifaIERy+7EaqfNtmMhKtWNy9AWaVwVBx/sIQ8hMc8JncjBYdjdh6ZhPpFTUzKvYv8fnWYZjjzDfzWtOySXNmhNhzJy2oeApLZeAJJe/ODGb1bELnkWb8FulN+sPV/ODamyGd1Wiio4eVrzXnY/zkPlFkc1I2f/uP/zK3T32atNBg1Ko5XHygWNklhJTfhmGs24SxmxYRIZ9+EUzkwWn4f7uUmOSqL8lWKAsm4dREJndWo+N0C87c2/yM6T8h5EvNooX+7F+qRVfz8RyNcCP2gjnTDDWZJTWPpwUSf9CU4XqNmbTZgWsJ5ZvLX3tmWJhLUmwUUZG3ifh+OVMdtvOd40yWeu3m0N8nCF60CP+D4cRVAxoKGL69GC6u/JoUKA9Dfy59aYKZgRrNuxnisns1sRlB8jlhsgRrVo/RpZt+Y3Q0atO0e2+2nNpE2rMyiBIB/3kglH5/URgWyjNUNVoPHcn+a15FzWi5/iQn+ZEpn5dWUTAvgmHbFh+j17klPXq1ppe8aKGv8R611NToYKBZvK01vXo2oWmd/zDQuZLMsNjGnHgHttnqo6/ZjKk+ttxKDnwOUJ7W7a3DsGAzsRdt+GaHLRHxm+XzB5/rr3wvbl5YxYXLriQ+DiThb3Nm9mpEh8F98ZQGEyUEVDjgqDDXl6jjFlgN0KDPbHOOxyjW/Awlec8AurdswFBnG64lSPqFkpvhS1KqP3ny/t6nmlVev0DiT07DdngTNLsY4nNoA8mKSfrPvB+DufNdf/obtmOexxz+PLcQx+GNMBhjwvpV/RnfozGdx5iyJ9yL9Aru+dcOwyfPeDY3Pl/M/E27CLQyZ803J7mZnMnRDbNZu/M0t1KkxtO3+0/A8O3qL67+GhQoD8Ngki9Ysn7NBL45vI74YhBKgacw25nfPp2Cp9s4fLfM4re/1/MoK7jKAb/y4PU0wGX+NQXr6QPw+8OVpAr7eJ7uKz9f/iYObOhMF211OvXQY8Tozowf36V0mWTCtr83kZKrGEBRBMN27bQxXzQUJ5fRuDyrrO/DYL36jHFfwZ3kCppJ2UL2bWucLXRoq92CSU6z+Ttms3ywTlVslvZ56zCUICELJFMalFJl6EgLGigWNQglN8WN83/YcfryRhKzgktPqi8DIQmI0ZdWcP7GpieDpyQd8mMXsWFsc7R1Nehh0p7RY8v4cnwXJtlNezIVp7y+gdzea4ZF/8Zod+2K084VxKQXvcyV37fMvUQoeclO7PM1wXy4Nj26a9Cq/ju8/9FHtOmqyyS7Sfx41pWUHMXCD6WPfzMwlJF0/kucHTby1fEr7F5tieN3p7iVms1x11ms+vokN5IFDF9DKBSnqOkKlIfhFgpzfLl/34fM3DIPfWEQmak+JEmriqQHvMCbeumg8aygVJDuwZ3bG7mfFkh+BdMYyh8bQka8E3/9aIH7uiHYLhrAAuv+WJcsNqP4/pJHiQw2lNTrS/n5V3su33XnYYI3Cc8qj1y5em4lETGbya4gI5DqVJDhwu9bxhP4vR2XYjeXahosX+fyelQLGJYBVlXqXXafgnzp5ehZg1xK2C4HaZl9C/yJv2rPj1vHsc7BhEULB5T2pXV/bFzmcOm+XyULPYSQEbmYLZ7mfH9krXzUakGh4iWoxLUrtTWEx4luXLtQtCj4ru/msPuXxRw7vYYb93x4/IwFIF4/DGUkh+/Cy8md7fvCiE3P4mKQNQ7bj3P14QN+XD4Pt5/PcTfz7XcaisywppNEBeyvCIZlA1z1/x5KfrYfSQ/duRfjRvRdV+6WLNHuJGVJ2cHToCjLDyI7O0gOXEV/1qvZGUJWsjcp0nWqBPHSgVlVYPhqGhZrUhhMdro3D+M2ERNdxpd3XYmO9ylalejJKODSWlIQQHKiL1llX+YqBWCZ4+X7hSLdIznZgeQWL0DxPNteOwzzb7Fz6QSGmIxg8sz52KzZxsW9nqxaZIfD0vlYzHLhfxdiSC8QMFSBUCxMeNsKqAYMKwpmyrVNwFC5/FURGF87DGUZ3IsI4/z5c1wICyPsShTpSXFEhZ/hrz//5FT4HRIzc5G9fRYiMsO3HcnF9V9ZAQHD6hGEBQyrhx8qglxVt712GFb2dMvyyc3No0AmoxpwUF5LAcPKnCW2K40CEgwNDFogPciivD0NPvjgP4SFhf0j943w+Zvxc926tTh69Og/4sPqdhEBw+rmEVGfF1bg7Nmz8gdYeohFebsaZGRkvLD/XuYA4fM35+eUlJSXcYnSHyNgqPQuFAYIBYQCQgGhwKsqIGD4qgqK44UCQgGhgFBA6RUQMFR6FwoDhAJCAaGAUOBVFRAwfFUFxfFCAaGAUEAooPQKCBgqvQuFAUIBoYBQQCjwqgoIGL6qguJ4oYBQQCggFFB6BQQMld6FwgChgFBAKCAUeFUFBAxfVUFxvFBAKCAUEAoovQIChkrvQmGAUEAoIBQQCryqAhIM/x9Xag18hy+M8AAAAABJRU5ErkJggg==;" vertex="1" parent="1">
                    <mxGeometry x="80" y="80" width="451" height="341" as="geometry"/>
                </mxCell>
                <mxCell id="3" value="&lt;font style=&quot;font-size: 14px&quot;&gt;lead?&lt;/font&gt;" style="rhombus;whiteSpace=wrap;html=1;" vertex="1" parent="1">
                    <mxGeometry x="279" y="680" width="120" height="40" as="geometry"/>
                </mxCell>
                <mxCell id="4" value="" style="endArrow=classic;html=1;exitX=0;exitY=0.5;exitDx=0;exitDy=0;entryX=0.5;entryY=0;entryDx=0;entryDy=0;" edge="1" parent="1" source="3">
                    <mxGeometry width="50" height="50" relative="1" as="geometry">
                        <mxPoint x="319" y="810" as="sourcePoint"/>
                        <mxPoint x="219" y="760" as="targetPoint"/>
                        <Array as="points">
                            <mxPoint x="219" y="700"/>
                        </Array>
                    </mxGeometry>
                </mxCell>
                <mxCell id="6" value="Yes" style="text;html=1;strokeColor=none;fillColor=none;align=center;verticalAlign=middle;whiteSpace=wrap;rounded=0;" vertex="1" parent="1">
                    <mxGeometry x="219" y="720" width="40" height="20" as="geometry"/>
                </mxCell>
                <mxCell id="8" value="&lt;span style=&quot;color: rgb(240 , 240 , 240) ; font-family: &amp;#34;helvetica&amp;#34; ; font-size: 11px ; font-style: normal ; font-weight: 400 ; letter-spacing: normal ; text-align: center ; text-indent: 0px ; text-transform: none ; word-spacing: 0px ; background-color: rgb(42 , 42 , 42) ; display: inline ; float: none&quot;&gt;+ (14-Scard.to_i)&lt;/span&gt;" style="rounded=0;whiteSpace=wrap;html=1;" vertex="1" parent="1">
                    <mxGeometry x="399" y="980" width="120" height="40" as="geometry"/>
                </mxCell>
                <mxCell id="9" value="" style="endArrow=classic;html=1;exitX=1;exitY=0.5;exitDx=0;exitDy=0;entryX=0.5;entryY=0;entryDx=0;entryDy=0;" edge="1" parent="1" source="3" target="8">
                    <mxGeometry width="50" height="50" relative="1" as="geometry">
                        <mxPoint x="289" y="710" as="sourcePoint"/>
                        <mxPoint x="229" y="770" as="targetPoint"/>
                        <Array as="points">
                            <mxPoint x="459" y="700"/>
                        </Array>
                    </mxGeometry>
                </mxCell>
                <mxCell id="10" value="No" style="text;html=1;strokeColor=none;fillColor=none;align=center;verticalAlign=middle;whiteSpace=wrap;rounded=0;" vertex="1" parent="1">
                    <mxGeometry x="459" y="720" width="40" height="20" as="geometry"/>
                </mxCell>
                <mxCell id="23" value="" style="edgeStyle=orthogonalEdgeStyle;rounded=0;orthogonalLoop=1;jettySize=auto;html=1;" edge="1" parent="1" source="11" target="21">
                    <mxGeometry relative="1" as="geometry"/>
                </mxCell>
                <mxCell id="11" value="&lt;font style=&quot;font-size: 14px&quot;&gt;sequence?&lt;/font&gt;" style="rhombus;whiteSpace=wrap;html=1;" vertex="1" parent="1">
                    <mxGeometry x="159" y="760" width="120" height="40" as="geometry"/>
                </mxCell>
                <mxCell id="12" value="" style="endArrow=classic;html=1;exitX=0.5;exitY=1;exitDx=0;exitDy=0;" edge="1" parent="1" source="11">
                    <mxGeometry width="50" height="50" relative="1" as="geometry">
                        <mxPoint x="279" y="810" as="sourcePoint"/>
                        <mxPoint x="219" y="840" as="targetPoint"/>
                    </mxGeometry>
                </mxCell>
                <mxCell id="13" value="Yes" style="text;html=1;strokeColor=none;fillColor=none;align=center;verticalAlign=middle;whiteSpace=wrap;rounded=0;" vertex="1" parent="1">
                    <mxGeometry x="219" y="810" width="40" height="20" as="geometry"/>
                </mxCell>
                <mxCell id="14" value="&lt;font style=&quot;font-size: 11px&quot;&gt;+ numOfCards*INF2&lt;/font&gt;" style="rounded=0;whiteSpace=wrap;html=1;" vertex="1" parent="1">
                    <mxGeometry x="159" y="920" width="120" height="40" as="geometry"/>
                </mxCell>
                <mxCell id="15" value="" style="endArrow=classic;html=1;exitX=0;exitY=0.5;exitDx=0;exitDy=0;entryX=0;entryY=0.5;entryDx=0;entryDy=0;" edge="1" parent="1" source="11" target="14">
                    <mxGeometry width="50" height="50" relative="1" as="geometry">
                        <mxPoint x="189" y="930" as="sourcePoint"/>
                        <mxPoint x="59" y="840" as="targetPoint"/>
                        <Array as="points">
                            <mxPoint x="119" y="780"/>
                            <mxPoint x="119" y="940"/>
                        </Array>
                    </mxGeometry>
                </mxCell>
                <mxCell id="19" value="No" style="text;html=1;strokeColor=none;fillColor=none;align=center;verticalAlign=middle;whiteSpace=wrap;rounded=0;" vertex="1" parent="1">
                    <mxGeometry x="119" y="810" width="40" height="20" as="geometry"/>
                </mxCell>
                <mxCell id="21" value="+ INF1" style="rounded=0;whiteSpace=wrap;html=1;" vertex="1" parent="1">
                    <mxGeometry x="159" y="840" width="120" height="40" as="geometry"/>
                </mxCell>
                <mxCell id="25" value="" style="endArrow=classic;html=1;exitX=0.5;exitY=1;exitDx=0;exitDy=0;entryX=0.5;entryY=0;entryDx=0;entryDy=0;" edge="1" parent="1" source="21" target="14">
                    <mxGeometry width="50" height="50" relative="1" as="geometry">
                        <mxPoint x="219" y="910" as="sourcePoint"/>
                        <mxPoint x="269" y="860" as="targetPoint"/>
                    </mxGeometry>
                </mxCell>
                <mxCell id="27" value="理論上 (14-Scard.to_i)の最大値は14なので，&lt;br&gt;INF2 &amp;gt; 14&lt;br&gt;理論上 numOfCards*INF2 の最大値は14*INF2なので，&lt;br&gt;INF1 &amp;gt; 14*INF2 &amp;gt; 196&lt;br&gt;INFは任意の正整数" style="text;html=1;strokeColor=none;fillColor=none;align=center;verticalAlign=middle;whiteSpace=wrap;rounded=0;" vertex="1" parent="1">
                    <mxGeometry x="-10" y="440" width="340" height="90" as="geometry"/>
                </mxCell>
                <mxCell id="28" value="" style="rounded=1;whiteSpace=wrap;html=1;" vertex="1" parent="1">
                    <mxGeometry x="400" y="480" width="120" height="40" as="geometry"/>
                </mxCell>
                <mxCell id="29" value="legal?" style="rhombus;whiteSpace=wrap;html=1;" vertex="1" parent="1">
                    <mxGeometry x="400" y="560" width="120" height="40" as="geometry"/>
                </mxCell>
                <mxCell id="30" value="" style="endArrow=classic;html=1;exitX=0;exitY=0.5;exitDx=0;exitDy=0;entryX=0.5;entryY=0;entryDx=0;entryDy=0;" edge="1" parent="1" source="29" target="3">
                    <mxGeometry width="50" height="50" relative="1" as="geometry">
                        <mxPoint x="410" y="760" as="sourcePoint"/>
                        <mxPoint x="460" y="710" as="targetPoint"/>
                        <Array as="points">
                            <mxPoint x="339" y="580"/>
                        </Array>
                    </mxGeometry>
                </mxCell>
                <mxCell id="31" value="Yes" style="text;html=1;strokeColor=none;fillColor=none;align=center;verticalAlign=middle;whiteSpace=wrap;rounded=0;" vertex="1" parent="1">
                    <mxGeometry x="340" y="640" width="40" height="20" as="geometry"/>
                </mxCell>
                <mxCell id="32" value="&lt;span style=&quot;color: rgb(240 , 240 , 240) ; font-family: &amp;#34;helvetica&amp;#34; ; font-size: 11px ; font-style: normal ; font-weight: 400 ; letter-spacing: normal ; text-align: center ; text-indent: 0px ; text-transform: none ; word-spacing: 0px ; background-color: rgb(42 , 42 , 42) ; display: inline ; float: none&quot;&gt;- INF&lt;/span&gt;" style="rounded=0;whiteSpace=wrap;html=1;" vertex="1" parent="1">
                    <mxGeometry x="560" y="960" width="120" height="40" as="geometry"/>
                </mxCell>
                <mxCell id="33" value="" style="endArrow=classic;html=1;exitX=1;exitY=0.5;exitDx=0;exitDy=0;entryX=0.5;entryY=0;entryDx=0;entryDy=0;" edge="1" parent="1" source="29" target="32">
                    <mxGeometry width="50" height="50" relative="1" as="geometry">
                        <mxPoint x="520" y="820" as="sourcePoint"/>
                        <mxPoint x="620" y="950" as="targetPoint"/>
                        <Array as="points">
                            <mxPoint x="620" y="580"/>
                        </Array>
                    </mxGeometry>
                </mxCell>
                <mxCell id="34" value="No" style="text;html=1;strokeColor=none;fillColor=none;align=center;verticalAlign=middle;whiteSpace=wrap;rounded=0;" vertex="1" parent="1">
                    <mxGeometry x="620" y="640" width="40" height="20" as="geometry"/>
                </mxCell>
                <mxCell id="35" value="" style="rounded=1;whiteSpace=wrap;html=1;" vertex="1" parent="1">
                    <mxGeometry x="400" y="1080" width="120" height="40" as="geometry"/>
                </mxCell>
                <mxCell id="36" value="" style="endArrow=classic;html=1;exitX=0.5;exitY=1;exitDx=0;exitDy=0;entryX=0;entryY=0.5;entryDx=0;entryDy=0;" edge="1" parent="1" source="14" target="8">
                    <mxGeometry width="50" height="50" relative="1" as="geometry">
                        <mxPoint x="370" y="1060" as="sourcePoint"/>
                        <mxPoint x="420" y="1010" as="targetPoint"/>
                        <Array as="points">
                            <mxPoint x="219" y="1000"/>
                        </Array>
                    </mxGeometry>
                </mxCell>
                <mxCell id="37" value="" style="endArrow=classic;html=1;exitX=0.5;exitY=1;exitDx=0;exitDy=0;entryX=0.5;entryY=0;entryDx=0;entryDy=0;" edge="1" parent="1" source="8" target="35">
                    <mxGeometry width="50" height="50" relative="1" as="geometry">
                        <mxPoint x="360" y="1080" as="sourcePoint"/>
                        <mxPoint x="410" y="1030" as="targetPoint"/>
                    </mxGeometry>
                </mxCell>
                <mxCell id="38" value="" style="endArrow=classic;html=1;exitX=0.5;exitY=1;exitDx=0;exitDy=0;entryX=0.75;entryY=0;entryDx=0;entryDy=0;" edge="1" parent="1" source="32" target="35">
                    <mxGeometry width="50" height="50" relative="1" as="geometry">
                        <mxPoint x="360" y="1080" as="sourcePoint"/>
                        <mxPoint x="410" y="1030" as="targetPoint"/>
                        <Array as="points">
                            <mxPoint x="620" y="1040"/>
                            <mxPoint x="490" y="1040"/>
                        </Array>
                    </mxGeometry>
                </mxCell>
                <mxCell id="39" value="" style="endArrow=classic;html=1;exitX=0.5;exitY=1;exitDx=0;exitDy=0;entryX=0.5;entryY=0;entryDx=0;entryDy=0;" edge="1" parent="1" source="28" target="29">
                    <mxGeometry width="50" height="50" relative="1" as="geometry">
                        <mxPoint x="420" y="620" as="sourcePoint"/>
                        <mxPoint x="470" y="570" as="targetPoint"/>
                    </mxGeometry>
                </mxCell>
            </root>
        </mxGraphModel>
    </diagram>
</mxfile>